<?xml version="1.0" encoding="utf-8"?>
<!-- Generator: Adobe Illustrator 25.4.1, SVG Export Plug-In . SVG Version: 6.00 Build 0)  -->
<svg version="1.1" id="Layer_1" xmlns="http://www.w3.org/2000/svg" xmlns:xlink="http://www.w3.org/1999/xlink" x="0px" y="0px"
	 viewBox="0 0 962.6 668.1" style="enable-background:new 0 0 962.6 668.1;" xml:space="preserve">
<style type="text/css">
	.st0{fill:none;stroke:#000000;stroke-width:5;stroke-linecap:round;stroke-linejoin:round;stroke-miterlimit:10;}
	.st1{fill-rule:evenodd;clip-rule:evenodd;fill:#7F7C77;}
	.st2{fill:#7F7C77;}
	.st3{fill:none;}
	.st4{fill-rule:evenodd;clip-rule:evenodd;}
</style>
<g id="DXF_x5F_objects">
</g>
<g id="_x30_">
	<polygon class="st0" points="860.2,602.7 104.2,602.7 68.2,566.7 68.2,98.7 104.2,62.7 860.2,62.7 896.2,98.7 896.2,566.7 	"/>
	<polygon class="st1" points="490.9,127.8 149,127.8 140,136.8 140,154.7 149,163.8 490.9,163.8 500,154.7 500,136.8 	"/>
	<polygon class="st1" points="437.2,255.9 203.3,255.9 194.2,264.9 194.2,293.6 203.3,302.6 437.2,302.6 446.2,293.6 446.2,264.9 	
		"/>
	<polygon class="st1" points="509.5,397.5 127.9,397.5 102.7,422.7 102.7,516.3 127.9,541.5 509.5,541.5 534.7,516.3 534.7,422.7 	
		"/>
	<circle class="st1" cx="651.6" cy="429.2" r="36"/>
	<circle class="st1" cx="795.6" cy="429.2" r="36"/>
	<g>
		<path class="st2" d="M614.7,515.6c3.6,0,5.7,0.1,6.1,0.4c0.5,0.2,3.7,8.5,9.7,24.7s10,26.6,12.1,31.3h4.2c0.4,0.9,0.6,1.7,0.6,2.6
			c0,0.7-0.2,1.2-0.5,1.5s-0.9,0.4-1.7,0.4h-19.9c-0.4-1-0.6-1.9-0.6-2.8c0-0.6,0.2-1.1,0.5-1.3c0.3-0.3,0.9-0.4,1.7-0.4h2.6
			c-0.6-2.6-2.1-7.7-4.6-15.1h-21.6c-2.2,7.4-3.6,12.4-4,15.1h4.5c0.4,0.9,0.6,1.7,0.6,2.6c0,0.7-0.2,1.2-0.5,1.5s-0.9,0.4-1.7,0.4
			h-17.6c-0.4-1-0.6-1.9-0.6-2.8c0-0.6,0.2-1.1,0.5-1.3c0.3-0.3,0.9-0.4,1.7-0.4h2.8c2.1-5.3,5.6-15,10.5-29s7.9-22,9.1-24.2
			C609.5,516.6,611.6,515.6,614.7,515.6z M604.9,551.1H623c-5.8-17-8.9-25.5-9.4-25.5S610.3,534.1,604.9,551.1z"/>
		<path class="st2" d="M680.9,516.2h19.7c1.5,5.1,3.7,11.6,6.4,19.5s4.9,14.3,6.4,19.3c1.5,5,2.4,7.5,2.6,7.5s2.4-6.3,6.4-19
			c4.1-12.7,6.8-21.8,8.2-27.3h19.4c0.4,0.9,0.6,1.7,0.6,2.6c0,0.7-0.2,1.2-0.5,1.5s-0.9,0.4-1.7,0.4h-3.2c-0.1,5.4,0,14.3,0.3,26.6
			c0.3,12.3,0.6,20.5,1,24.6h4.7c0.4,0.9,0.6,1.7,0.6,2.6c0,0.7-0.2,1.2-0.5,1.5s-0.9,0.4-1.7,0.4h-18.8c-0.4-1-0.6-1.9-0.6-2.8
			c0-0.6,0.2-1.1,0.5-1.3c0.3-0.3,0.9-0.4,1.7-0.4h2.8c0.3-5.1,0.1-20.7-0.3-46.7c-2.5,8.8-5.4,17.8-8.6,27
			c-3.3,9.2-5.4,14.6-6.5,16.2c-1,1.7-2.8,2.5-5.1,2.5c-3.4,0-5.3-0.1-5.7-0.3c-0.4-0.2-2.5-5.4-6.4-15.4s-7.3-20.1-10.2-30.2
			c-0.1,26.2,0,41.8,0.2,46.9h4.5c0.4,0.9,0.6,1.7,0.6,2.6c0,0.7-0.2,1.2-0.5,1.5s-0.9,0.4-1.7,0.4h-17.6c-0.4-1-0.6-1.9-0.6-2.8
			c0-0.6,0.2-1.1,0.5-1.3c0.3-0.3,0.9-0.4,1.7-0.4h3.5c0.3-4.1,0.7-12.3,1-24.6s0.4-21.2,0.4-26.6h-4.8c-0.4-1-0.6-1.9-0.6-2.8
			c0-0.6,0.2-1.1,0.5-1.3S680.1,516.2,680.9,516.2z"/>
		<path class="st2" d="M810.8,515.3c6.9,0,11.7,0.4,14.4,1.1s4,2.2,4,4.3c0,2-0.9,3.7-2.6,5.2c-6.7-2.8-12.9-4.2-18.7-4.2
			c-4.1,0-6.9,0.7-8.6,2.2c-1.7,1.5-2.5,3.5-2.5,6.2c0,2.7,1,4.9,3,6.5s5.8,3.2,11.4,4.8c6.6,1.8,11.6,3.9,15,6.3s5.2,6.2,5.4,11.5
			c0,5.9-2.2,10.4-6.6,13.4c-4.4,3-11.1,4.5-20.2,4.5c-6.3,0-11.1-0.4-14.3-1.2s-4.9-2.3-4.9-4.6c0-2,0.9-3.8,2.8-5.4
			c6.3,3.2,12.9,4.8,19.8,4.8c4.7,0,8-0.7,10-2.1c2-1.4,3-3.6,3-6.5c0-3.5-1.4-6.2-4.3-7.9s-7.4-3.6-13.7-5.4
			c-6.1-1.7-10.4-3.8-13-6.4c-2.6-2.6-3.9-6-3.9-10.1c0-5.2,2.1-9.3,6.3-12.4S802.9,515.3,810.8,515.3z"/>
	</g>
	<polygon class="st3" points="612.8,746.5 615.1,746.5 615.1,746.5 	"/>
	<g>
		<ellipse transform="matrix(0.344 -0.939 0.939 0.344 81.1087 1129.0648)" class="st2" cx="848.6" cy="506.5" rx="14" ry="1.6"/>
		
			<ellipse transform="matrix(0.6049 -0.7963 0.7963 0.6049 -62.1037 866.1116)" class="st2" cx="841.7" cy="495.6" rx="4" ry="11.2"/>
		
			<ellipse transform="matrix(0.1249 -0.9922 0.9922 0.1249 254.0726 1293.3414)" class="st2" cx="860.2" cy="502.6" rx="4" ry="11.2"/>
		<ellipse transform="matrix(0.344 -0.939 0.939 0.344 80.6179 1117.2004)" class="st2" cx="839.9" cy="500.9" rx="2.9" ry="11"/>
		<ellipse transform="matrix(0.344 -0.939 0.939 0.344 86.5263 1137.9622)" class="st2" cx="857.7" cy="507.1" rx="2.9" ry="11"/>
	</g>
</g>
<g id="MasterLayer_1">
</g>
<circle class="st4" cx="723.6" cy="224.7" r="109.8"/>
</svg>
