0
SECTION
2
HEADER
9
$INSUNITS
70
1
9
$ACADVER
1
AC1014
9
$HANDSEED
5
FFFF
0
ENDSEC
0
SECTION
2
TABLES
0
TABLE
2
VPORT
5
8
100
AcDbSymbolTable
0
ENDTAB
0
TABLE
2
LTYPE
5
5
100
AcDbSymbolTable
0
LTYPE
5
14
100
AcDbSymbolTableRecord
100
AcDbLinetypeTableRecord
2
BYBLOCK
70
0
0
LTYPE
5
15
100
AcDbSymbolTableRecord
100
AcDbLinetypeTableRecord
2
BYLAYER
70
0
0
ENDTAB
0
TABLE
2
LAYER
5
2
100
AcDbSymbolTable
70
2
0
LAYER
5
50
100
AcDbSymbolTableRecord
100
AcDbLayerTableRecord
2
0
70
0
6
CONTINUOUS
0
ENDTAB
0
TABLE
2
STYLE
5
3
100
AcDbSymbolTable
70
1
0
STYLE
5
11
100
AcDbSymbolTableRecord
100
AcDbTextStyleTableRecord
2
STANDARD
70
0
0
ENDTAB
0
TABLE
2
VIEW
5
6
100
AcDbSymbolTable
70
0
0
ENDTAB
0
TABLE
2
UCS
5
7
100
AcDbSymbolTable
70
0
0
ENDTAB
0
TABLE
2
APPID
5
9
100
AcDbSymbolTable
70
2
0
APPID
5
12
100
AcDbSymbolTableRecord
100
AcDbRegAppTableRecord
2
ACAD
70
0
0
ENDTAB
0
TABLE
2
DIMSTYLE
5
A
100
AcDbSymbolTable
70
1
0
ENDTAB
0
TABLE
2
BLOCK_RECORD
5
1
100
AcDbSymbolTable
70
1
0
BLOCK_RECORD
5
1F
100
AcDbSymbolTableRecord
100
AcDbBlockTableRecord
2
*MODEL_SPACE
0
BLOCK_RECORD
5
1B
100
AcDbSymbolTableRecord
100
AcDbBlockTableRecord
2
*PAPER_SPACE
0
ENDTAB
0
ENDSEC
0
SECTION
2
BLOCKS
0
BLOCK
5
20
100
AcDbEntity
100
AcDbBlockBegin
2
*MODEL_SPACE
0
ENDBLK
5
21
100
AcDbEntity
100
AcDbBlockEnd
0
BLOCK
5
1C
100
AcDbEntity
100
AcDbBlockBegin
2
*PAPER_SPACE
0
ENDBLK
5
1D
100
AcDbEntity
100
AcDbBlockEnd
0
ENDSEC
0
SECTION
2
ENTITIES
0
LWPOLYLINE
5
100
100
AcDbEntity
8
0
100
AcDbPolyline
90
4
70
1
43
0.0
10
12.499999999999998
20
0
10
0
20
0
10
0
20
8.5
10
12.499999999999998
20
8.5
0
LWPOLYLINE
5
101
100
AcDbEntity
8
0
100
AcDbPolyline
90
8
70
1
43
0.0
10
11.499999819778079
20
0.49999999249075339
10
0.99999999249075644
20
0.49999999249075339
42
-0.41421356237309509
10
0.49999999249075372
20
0.999999992490756
10
0.49999999249075389
20
7.4999998798520515
42
-0.41421356237309509
10
0.999999992490756
20
7.9999998798520542
10
11.499999819778079
20
7.9999998798520542
42
-0.41421356237309587
10
11.999999819778081
20
7.4999998798520497
10
11.999999819778081
20
0.99999999249075611
42
-0.41421356237309509
0
CIRCLE
5
102
100
AcDbEntity
8
0
100
AcDbCircle
10
9.965994899977634
20
5.9826468746781991
30
0
40
1.5000000000000002
210
0
220
0
230
1
0
CIRCLE
5
103
100
AcDbEntity
8
0
100
AcDbCircle
10
9.965994899977634
20
5.9826468746781991
30
0
40
1.1249999999999998
210
0
220
0
230
1
0
LWPOLYLINE
5
104
100
AcDbEntity
8
0
100
AcDbPolyline
90
8
70
1
43
0.0
10
6.3703174830370513
20
7.0959168572865794
10
1.6222859869740571
20
7.0959168572865794
42
0.41421356237309509
10
1.4963017350055545
20
6.9699326053180766
10
1.4963017350055545
20
6.7219011092550822
42
0.41421356237309509
10
1.6222859869740576
20
6.5959168572865794
10
6.3703174830370513
20
6.5959168572865794
42
0.41421356237309509
10
6.4963017350055541
20
6.7219011092550822
10
6.4963017350055541
20
6.9699326053180766
42
0.41421356237309509
0
LWPOLYLINE
5
105
100
AcDbEntity
8
0
100
AcDbPolyline
90
8
70
1
43
0.0
10
5.6243281454108098
20
5.3169170587963857
10
2.376296649347819
20
5.3169170587963857
42
0.41421356237309509
10
2.2503123973793144
20
5.1909328068278811
10
2.2503123973793144
20
4.7929013107648908
42
0.41421356237309509
10
2.3762966493478195
20
4.6669170587963853
10
5.6243281454108081
20
4.6669170587963853
42
0.41421356237309509
10
5.7503123973793135
20
4.7929013107648908
10
5.7503123973793135
20
5.1909328068278811
42
0.41421356237309509
0
LWPOLYLINE
5
106
100
AcDbEntity
8
0
100
AcDbPolyline
90
8
70
1
43
0.0
10
6.6289042299078114
20
3.3497486390749627
10
1.3289042299078113
20
3.3497486390749627
42
0.4142135623730942
10
0.97890422990781123
20
2.9997486390749626
10
0.97890422990781123
20
1.6997486390749623
42
0.41421356237309509
10
1.3289042299078107
20
1.3497486390749627
10
6.6289042299078114
20
1.3497486390749627
42
0.41421356237309742
10
6.978904229907811
20
1.6997486390749623
10
6.978904229907811
20
2.9997486390749626
42
0.41421356237309742
0
CIRCLE
5
107
100
AcDbEntity
8
0
100
AcDbCircle
10
9.0052499942043802
20
2.908665834104287
30
0
40
0.50000000000000033
210
0
220
0
230
1
0
CIRCLE
5
108
100
AcDbEntity
8
0
100
AcDbCircle
10
10.999607487789509
20
2.9039527983148825
30
0
40
0.50000000000000056
210
0
220
0
230
1
0
ENDSEC
0
SECTION
2
OBJECTS
0
DICTIONARY
5
C
100
AcDbDictionary
3
ACAD_GROUP
350
D
3
ACAD_MLINESTYLE
350
17
0
DICTIONARY
5
D
100
AcDbDictionary
0
DICTIONARY
5
1A
330
C
100
AcDbDictionary
0
DICTIONARY
5
17
100
AcDbDictionary
0
ENDSEC
0
EOF
