<?xml version='1.0' encoding='us-ascii'?>
<svg height="201.52mm" viewBox="0.0 0.0 502.10 201.52" width="502.10mm" xmlns="http://www.w3.org/2000/svg" xmlns:cc="http://creativecommons.org/ns#" xmlns:dc="http://purl.org/dc/elements/1.1/" xmlns:inkscape="http://www.inkscape.org/namespaces/inkscape" xmlns:rdf="http://www.w3.org/1999/02/22-rdf-syntax-ns#" xmlns:svg="http://www.w3.org/2000/svg" xmlns:xlink="http://www.w3.org/1999/xlink">
<!--
HeartBox - Box in the form of an heart

Created with Boxes.py (https://festi.info/boxes.py)
Creation date: 2021-10-05 17:30:56
Command line (remove spaces between dashes): boxes HeartBox - -FingerJoint_angle=90.0 - -FingerJoint_style=rectangular - -FingerJoint_surroundingspaces=2.0 - -FingerJoint_edge_width=1.0 - -FingerJoint_finger=1.0 - -FingerJoint_play=0.0 - -FingerJoint_space=1.0 - -FingerJoint_width=1.0 - -Flex_stretch=1.05 - -Flex_connection=1.0 - -Flex_distance=0.5 - -Flex_width=5.0 - -x=120 - -h=40 - -top=closed - -thickness=3.12 - -format=svg - -tabs=0.0 - -debug=0 - -labels=0 - -labels=1 - -reference=482 - -burn=0.1
Url: http://www.festi.info/HeartBox?FingerJoint_angle=90.0&FingerJoint_style=rectangular&FingerJoint_surroundingspaces=2.0&FingerJoint_edge_width=1.0&FingerJoint_finger=1.0&FingerJoint_play=0.0&FingerJoint_space=1.0&FingerJoint_width=1.0&Flex_stretch=1.05&Flex_connection=1.0&Flex_distance=0.5&Flex_width=5.0&x=120&h=40&top=closed&thickness=3.12&format=svg&tabs=0.0&debug=0&labels=0&labels=1&reference=482&burn=0.1&render=1
SettingsUrl: http://www.festi.info/HeartBox?FingerJoint_angle=90.0&FingerJoint_style=rectangular&FingerJoint_surroundingspaces=2.0&FingerJoint_edge_width=1.0&FingerJoint_finger=1.0&FingerJoint_play=0.0&FingerJoint_space=1.0&FingerJoint_width=1.0&Flex_stretch=1.05&Flex_connection=1.0&Flex_distance=0.5&Flex_width=5.0&x=120&h=40&top=closed&thickness=3.12&format=svg&tabs=0.0&debug=0&labels=0&labels=1&reference=482&burn=0.1
-->
<title>HeartBox</title>
<metadata>
<rdf:RDF><cc:Work>
<dc:title>FlexBox - HeartBox</dc:title>
<dc:date>2021-10-05 17:30:56</dc:date>
<dc:source>http://www.festi.info/HeartBox?FingerJoint_angle=90.0&amp;FingerJoint_style=rectangular&amp;FingerJoint_surroundingspaces=2.0&amp;FingerJoint_edge_width=1.0&amp;FingerJoint_finger=1.0&amp;FingerJoint_play=0.0&amp;FingerJoint_space=1.0&amp;FingerJoint_width=1.0&amp;Flex_stretch=1.05&amp;Flex_connection=1.0&amp;Flex_distance=0.5&amp;Flex_width=5.0&amp;x=120&amp;h=40&amp;top=closed&amp;thickness=3.12&amp;format=svg&amp;tabs=0.0&amp;debug=0&amp;labels=0&amp;labels=1&amp;reference=482&amp;burn=0.1&amp;render=1</dc:source>
<dc:description>Box in the form of an heart

Created with Boxes.py (https://festi.info/boxes.py)
Command line: boxes HeartBox --FingerJoint_angle=90.0 --FingerJoint_style=rectangular --FingerJoint_surroundingspaces=2.0 --FingerJoint_edge_width=1.0 --FingerJoint_finger=1.0 --FingerJoint_play=0.0 --FingerJoint_space=1.0 --FingerJoint_width=1.0 --Flex_stretch=1.05 --Flex_connection=1.0 --Flex_distance=0.5 --Flex_width=5.0 --x=120 --h=40 --top=closed --thickness=3.12 --format=svg --tabs=0.0 --debug=0 --labels=0 --labels=1 --reference=482 --burn=0.1
Url: http://www.festi.info/HeartBox?FingerJoint_angle=90.0&amp;FingerJoint_style=rectangular&amp;FingerJoint_surroundingspaces=2.0&amp;FingerJoint_edge_width=1.0&amp;FingerJoint_finger=1.0&amp;FingerJoint_play=0.0&amp;FingerJoint_space=1.0&amp;FingerJoint_width=1.0&amp;Flex_stretch=1.05&amp;Flex_connection=1.0&amp;Flex_distance=0.5&amp;Flex_width=5.0&amp;x=120&amp;h=40&amp;top=closed&amp;thickness=3.12&amp;format=svg&amp;tabs=0.0&amp;debug=0&amp;labels=0&amp;labels=1&amp;reference=482&amp;burn=0.1&amp;render=1
SettingsUrl: http://www.festi.info/HeartBox?FingerJoint_angle=90.0&amp;FingerJoint_style=rectangular&amp;FingerJoint_surroundingspaces=2.0&amp;FingerJoint_edge_width=1.0&amp;FingerJoint_finger=1.0&amp;FingerJoint_play=0.0&amp;FingerJoint_space=1.0&amp;FingerJoint_width=1.0&amp;Flex_stretch=1.05&amp;Flex_connection=1.0&amp;Flex_distance=0.5&amp;Flex_width=5.0&amp;x=120&amp;h=40&amp;top=closed&amp;thickness=3.12&amp;format=svg&amp;tabs=0.0&amp;debug=0&amp;labels=0&amp;labels=1&amp;reference=482&amp;burn=0.1
</dc:description>
</cc:Work></rdf:RDF></metadata>
<g id="p-0" style="fill:none;stroke-linecap:round;stroke-linejoin:round;">
  <path d="M 10.100 191.520 H 492.100 V 181.520 H 10.100 V 191.520 Z" stroke="rgb(0,0,0)" stroke-width="0.20" />
  <text alignment-baseline="hanging" font-size="10px" style="font-family: sans-serif ; font-weight: normal; font-style: normal; fill: rgb(0,0,0)" text-anchor="middle" transform="matrix( 1.000 0.000 0.000 1.000 251.100 181.520 )">482mm</text><text alignment-baseline="hanging" font-size="4px" style="font-family: sans-serif ; font-weight: normal; font-style: normal; fill: rgb(255,0,0)" text-anchor="middle" transform="matrix( 1.000 0.000 0.000 1.000 15.100 184.520 )" />
</g>
<g id="p-1" style="fill:none;stroke-linecap:round;stroke-linejoin:round;">
  <path d="M 14.100 180.640 H 18.220 C 18.275 180.640 18.320 180.595 18.320 180.540 V 177.520 C 18.320 177.420 18.220 177.520 18.320 177.520 H 21.240 C 21.340 177.520 21.240 177.420 21.240 177.520 V 180.540 C 21.240 180.595 21.285 180.640 21.340 180.640 H 24.460 C 24.515 180.640 24.560 180.595 24.560 180.540 V 177.520 C 24.560 177.420 24.460 177.520 24.560 177.520 H 27.480 C 27.580 177.520 27.480 177.420 27.480 177.520 V 180.540 C 27.480 180.595 27.525 180.640 27.580 180.640 H 30.700 C 30.755 180.640 30.800 180.595 30.800 180.540 V 177.520 C 30.800 177.420 30.700 177.520 30.800 177.520 H 33.720 C 33.820 177.520 33.720 177.420 33.720 177.520 V 180.540 C 33.720 180.595 33.765 180.640 33.820 180.640 H 36.940 C 36.995 180.640 37.040 180.595 37.040 180.540 V 177.520 C 37.040 177.420 36.940 177.520 37.040 177.520 H 39.960 C 40.060 177.520 39.960 177.420 39.960 177.520 V 180.540 C 39.960 180.595 40.005 180.640 40.060 180.640 H 43.180 C 43.235 180.640 43.280 180.595 43.280 180.540 V 177.520 C 43.280 177.420 43.180 177.520 43.280 177.520 H 46.200 C 46.300 177.520 46.200 177.420 46.200 177.520 V 180.540 C 46.200 180.595 46.245 180.640 46.300 180.640 H 49.420 C 49.475 180.640 49.520 180.595 49.520 180.540 V 177.520 C 49.520 177.420 49.420 177.520 49.520 177.520 H 52.440 C 52.540 177.520 52.440 177.420 52.440 177.520 V 180.540 C 52.440 180.595 52.485 180.640 52.540 180.640 H 55.660 C 55.715 180.640 55.760 180.595 55.760 180.540 V 177.520 C 55.760 177.420 55.660 177.520 55.760 177.520 H 58.680 C 58.780 177.520 58.680 177.420 58.680 177.520 V 180.540 C 58.680 180.595 58.725 180.640 58.780 180.640 H 61.900 C 61.955 180.640 62.000 180.595 62.000 180.540 V 177.520 C 62.000 177.420 61.900 177.520 62.000 177.520 H 64.920 C 65.020 177.520 64.920 177.420 64.920 177.520 V 180.540 C 64.920 180.595 64.965 180.640 65.020 180.640 H 68.140 C 68.195 180.640 68.240 180.595 68.240 180.540 V 177.520 C 68.240 177.420 68.140 177.520 68.240 177.520 H 71.160 C 71.260 177.520 71.160 177.420 71.160 177.520 V 180.540 C 71.160 180.595 71.205 180.640 71.260 180.640 H 74.380 C 74.435 180.640 74.480 180.595 74.480 180.540 V 177.520 C 74.480 177.420 74.380 177.520 74.480 177.520 H 77.400 C 77.500 177.520 77.400 177.420 77.400 177.520 V 180.540 C 77.400 180.595 77.445 180.640 77.500 180.640 H 80.620 C 80.675 180.640 80.720 180.595 80.720 180.540 V 177.520 C 80.720 177.420 80.620 177.520 80.720 177.520 H 83.640 C 83.740 177.520 83.640 177.420 83.640 177.520 V 180.540 C 83.640 180.595 83.685 180.640 83.740 180.640 H 86.860 C 86.915 180.640 86.960 180.595 86.960 180.540 V 177.520 C 86.960 177.420 86.860 177.520 86.960 177.520 H 89.880 C 89.980 177.520 89.880 177.420 89.880 177.520 V 180.540 C 89.880 180.595 89.925 180.640 89.980 180.640 H 94.100 H 214.863 H 217.983 C 218.038 180.640 218.083 180.595 218.083 180.540 V 177.420 V 171.460 C 218.083 171.405 218.038 171.360 217.983 171.360 H 214.963 C 214.863 171.360 214.963 171.460 214.963 171.360 V 168.440 C 214.963 168.340 214.863 168.440 214.963 168.440 H 217.983 C 218.038 168.440 218.083 168.395 218.083 168.340 V 165.220 C 218.083 165.165 218.038 165.120 217.983 165.120 H 214.963 C 214.863 165.120 214.963 165.220 214.963 165.120 V 162.200 C 214.963 162.100 214.863 162.200 214.963 162.200 H 217.983 C 218.038 162.200 218.083 162.155 218.083 162.100 V 158.980 C 218.083 158.925 218.038 158.880 217.983 158.880 H 214.963 C 214.863 158.880 214.963 158.980 214.963 158.880 V 155.960 C 214.963 155.860 214.863 155.960 214.963 155.960 H 217.983 C 218.038 155.960 218.083 155.915 218.083 155.860 V 152.740 C 218.083 152.685 218.038 152.640 217.983 152.640 H 214.963 C 214.863 152.640 214.963 152.740 214.963 152.640 V 149.720 C 214.963 149.620 214.863 149.720 214.963 149.720 H 217.983 C 218.038 149.720 218.083 149.675 218.083 149.620 V 146.500 C 218.083 146.445 218.038 146.400 217.983 146.400 H 214.963 C 214.863 146.400 214.963 146.500 214.963 146.400 V 143.480 C 214.963 143.380 214.863 143.480 214.963 143.480 H 217.983 C 218.038 143.480 218.083 143.435 218.083 143.380 V 137.420 V 134.300 C 218.083 134.245 218.038 134.200 217.983 134.200 H 214.863 H 94.100 H 89.980 C 89.925 134.200 89.880 134.245 89.880 134.300 V 137.320 C 89.880 137.420 89.980 137.320 89.880 137.320 H 86.960 C 86.860 137.320 86.960 137.420 86.960 137.320 V 134.300 C 86.960 134.245 86.915 134.200 86.860 134.200 H 83.740 C 83.685 134.200 83.640 134.245 83.640 134.300 V 137.320 C 83.640 137.420 83.740 137.320 83.640 137.320 H 80.720 C 80.620 137.320 80.720 137.420 80.720 137.320 V 134.300 C 80.720 134.245 80.675 134.200 80.620 134.200 H 77.500 C 77.445 134.200 77.400 134.245 77.400 134.300 V 137.320 C 77.400 137.420 77.500 137.320 77.400 137.320 H 74.480 C 74.380 137.320 74.480 137.420 74.480 137.320 V 134.300 C 74.480 134.245 74.435 134.200 74.380 134.200 H 71.260 C 71.205 134.200 71.160 134.245 71.160 134.300 V 137.320 C 71.160 137.420 71.260 137.320 71.160 137.320 H 68.240 C 68.140 137.320 68.240 137.420 68.240 137.320 V 134.300 C 68.240 134.245 68.195 134.200 68.140 134.200 H 65.020 C 64.965 134.200 64.920 134.245 64.920 134.300 V 137.320 C 64.920 137.420 65.020 137.320 64.920 137.320 H 62.000 C 61.900 137.320 62.000 137.420 62.000 137.320 V 134.300 C 62.000 134.245 61.955 134.200 61.900 134.200 H 58.780 C 58.725 134.200 58.680 134.245 58.680 134.300 V 137.320 C 58.680 137.420 58.780 137.320 58.680 137.320 H 55.760 C 55.660 137.320 55.760 137.420 55.760 137.320 V 134.300 C 55.760 134.245 55.715 134.200 55.660 134.200 H 52.540 C 52.485 134.200 52.440 134.245 52.440 134.300 V 137.320 C 52.440 137.420 52.540 137.320 52.440 137.320 H 49.520 C 49.420 137.320 49.520 137.420 49.520 137.320 V 134.300 C 49.520 134.245 49.475 134.200 49.420 134.200 H 46.300 C 46.245 134.200 46.200 134.245 46.200 134.300 V 137.320 C 46.200 137.420 46.300 137.320 46.200 137.320 H 43.280 C 43.180 137.320 43.280 137.420 43.280 137.320 V 134.300 C 43.280 134.245 43.235 134.200 43.180 134.200 H 40.060 C 40.005 134.200 39.960 134.245 39.960 134.300 V 137.320 C 39.960 137.420 40.060 137.320 39.960 137.320 H 37.040 C 36.940 137.320 37.040 137.420 37.040 137.320 V 134.300 C 37.040 134.245 36.995 134.200 36.940 134.200 H 33.820 C 33.765 134.200 33.720 134.245 33.720 134.300 V 137.320 C 33.720 137.420 33.820 137.320 33.720 137.320 H 30.800 C 30.700 137.320 30.800 137.420 30.800 137.320 V 134.300 C 30.800 134.245 30.755 134.200 30.700 134.200 H 27.580 C 27.525 134.200 27.480 134.245 27.480 134.300 V 137.320 C 27.480 137.420 27.580 137.320 27.480 137.320 H 24.560 C 24.460 137.320 24.560 137.420 24.560 137.320 V 134.300 C 24.560 134.245 24.515 134.200 24.460 134.200 H 21.340 C 21.285 134.200 21.240 134.245 21.240 134.300 V 137.320 C 21.240 137.420 21.340 137.320 21.240 137.320 H 18.320 C 18.220 137.320 18.320 137.420 18.320 137.320 V 134.300 C 18.320 134.245 18.275 134.200 18.220 134.200 H 14.100 H 10.980 C 10.925 134.200 10.880 134.245 10.880 134.300 V 137.420 V 143.380 C 10.880 143.435 10.925 143.480 10.980 143.480 H 14.000 C 14.100 143.480 14.000 143.380 14.000 143.480 V 146.400 C 14.000 146.500 14.100 146.400 14.000 146.400 H 10.980 C 10.925 146.400 10.880 146.445 10.880 146.500 V 149.620 C 10.880 149.675 10.925 149.720 10.980 149.720 H 14.000 C 14.100 149.720 14.000 149.620 14.000 149.720 V 152.640 C 14.000 152.740 14.100 152.640 14.000 152.640 H 10.980 C 10.925 152.640 10.880 152.685 10.880 152.740 V 155.860 C 10.880 155.915 10.925 155.960 10.980 155.960 H 14.000 C 14.100 155.960 14.000 155.860 14.000 155.960 V 158.880 C 14.000 158.980 14.100 158.880 14.000 158.880 H 10.980 C 10.925 158.880 10.880 158.925 10.880 158.980 V 162.100 C 10.880 162.155 10.925 162.200 10.980 162.200 H 14.000 C 14.100 162.200 14.000 162.100 14.000 162.200 V 165.120 C 14.000 165.220 14.100 165.120 14.000 165.120 H 10.980 C 10.925 165.120 10.880 165.165 10.880 165.220 V 168.340 C 10.880 168.395 10.925 168.440 10.980 168.440 H 14.000 C 14.100 168.440 14.000 168.340 14.000 168.440 V 171.360 C 14.000 171.460 14.100 171.360 14.000 171.360 H 10.980 C 10.925 171.360 10.880 171.405 10.880 171.460 V 177.420 V 180.540 C 10.880 180.595 10.925 180.640 10.980 180.640 H 14.100 Z" stroke="rgb(0,0,0)" stroke-width="0.20" />
  <path d="M 95.981 180.640 V 158.980 M 95.981 155.860 V 134.200 M 97.541 137.320 V 177.520 M 99.101 180.640 V 158.980 M 99.101 155.860 V 134.200 M 100.661 137.320 V 177.520 M 102.221 180.640 V 158.980 M 102.221 155.860 V 134.200 M 103.781 137.320 V 177.520 M 105.341 180.640 V 158.980 M 105.341 155.860 V 134.200 M 106.901 137.320 V 177.520 M 108.461 180.640 V 158.980 M 108.461 155.860 V 134.200 M 110.021 137.320 V 177.520 M 111.581 180.640 V 158.980 M 111.581 155.860 V 134.200 M 113.141 137.320 V 177.520 M 114.701 180.640 V 158.980 M 114.701 155.860 V 134.200 M 116.261 137.320 V 177.520 M 117.821 180.640 V 158.980 M 117.821 155.860 V 134.200 M 119.381 137.320 V 177.520 M 120.941 180.640 V 158.980 M 120.941 155.860 V 134.200 M 122.501 137.320 V 177.520 M 124.061 180.640 V 158.980 M 124.061 155.860 V 134.200 M 125.621 137.320 V 177.520 M 127.181 180.640 V 158.980 M 127.181 155.860 V 134.200 M 128.741 137.320 V 177.520 M 130.301 180.640 V 158.980 M 130.301 155.860 V 134.200 M 131.861 137.320 V 177.520 M 133.421 180.640 V 158.980 M 133.421 155.860 V 134.200 M 134.981 137.320 V 177.520 M 136.541 180.640 V 158.980 M 136.541 155.860 V 134.200 M 138.101 137.320 V 177.520 M 139.661 180.640 V 158.980 M 139.661 155.860 V 134.200 M 141.221 137.320 V 177.520 M 142.781 180.640 V 158.980 M 142.781 155.860 V 134.200 M 144.341 137.320 V 177.520 M 145.901 180.640 V 158.980 M 145.901 155.860 V 134.200 M 147.461 137.320 V 177.520 M 149.021 180.640 V 158.980 M 149.021 155.860 V 134.200 M 150.581 137.320 V 177.520 M 152.141 180.640 V 158.980 M 152.141 155.860 V 134.200 M 153.701 137.320 V 177.520 M 155.261 180.640 V 158.980 M 155.261 155.860 V 134.200 M 156.821 137.320 V 177.520 M 158.381 180.640 V 158.980 M 158.381 155.860 V 134.200 M 159.941 137.320 V 177.520 M 161.501 180.640 V 158.980 M 161.501 155.860 V 134.200 M 163.061 137.320 V 177.520 M 164.621 180.640 V 158.980 M 164.621 155.860 V 134.200 M 166.181 137.320 V 177.520 M 167.741 180.640 V 158.980 M 167.741 155.860 V 134.200 M 169.301 137.320 V 177.520 M 170.861 180.640 V 158.980 M 170.861 155.860 V 134.200 M 172.421 137.320 V 177.520 M 173.981 180.640 V 158.980 M 173.981 155.860 V 134.200 M 175.541 137.320 V 177.520 M 177.101 180.640 V 158.980 M 177.101 155.860 V 134.200 M 178.661 137.320 V 177.520 M 180.221 180.640 V 158.980 M 180.221 155.860 V 134.200 M 181.781 137.320 V 177.520 M 183.341 180.640 V 158.980 M 183.341 155.860 V 134.200 M 184.901 137.320 V 177.520 M 186.461 180.640 V 158.980 M 186.461 155.860 V 134.200 M 188.021 137.320 V 177.520 M 189.581 180.640 V 158.980 M 189.581 155.860 V 134.200 M 191.141 137.320 V 177.520 M 192.701 180.640 V 158.980 M 192.701 155.860 V 134.200 M 194.261 137.320 V 177.520 M 195.821 180.640 V 158.980 M 195.821 155.860 V 134.200 M 197.381 137.320 V 177.520 M 198.941 180.640 V 158.980 M 198.941 155.860 V 134.200 M 200.501 137.320 V 177.520 M 202.061 180.640 V 158.980 M 202.061 155.860 V 134.200 M 203.621 137.320 V 177.520 M 205.181 180.640 V 158.980 M 205.181 155.860 V 134.200 M 206.741 137.320 V 177.520 M 208.301 180.640 V 158.980 M 208.301 155.860 V 134.200 M 209.861 137.320 V 177.520 M 211.421 180.640 V 158.980 M 211.421 155.860 V 134.200 M 212.981 137.320 V 177.520" stroke="rgb(0,0,0)" stroke-width="0.20" />
  <path d="M 224.623 180.640 H 345.386 H 349.506 C 349.561 180.640 349.606 180.595 349.606 180.540 V 177.520 C 349.606 177.420 349.506 177.520 349.606 177.520 H 352.526 C 352.626 177.520 352.526 177.420 352.526 177.520 V 180.540 C 352.526 180.595 352.570 180.640 352.626 180.640 H 355.746 C 355.801 180.640 355.846 180.595 355.846 180.540 V 177.520 C 355.846 177.420 355.746 177.520 355.846 177.520 H 358.766 C 358.866 177.520 358.766 177.420 358.766 177.520 V 180.540 C 358.766 180.595 358.810 180.640 358.866 180.640 H 361.986 C 362.041 180.640 362.086 180.595 362.086 180.540 V 177.520 C 362.086 177.420 361.986 177.520 362.086 177.520 H 365.006 C 365.106 177.520 365.006 177.420 365.006 177.520 V 180.540 C 365.006 180.595 365.050 180.640 365.106 180.640 H 368.226 C 368.281 180.640 368.326 180.595 368.326 180.540 V 177.520 C 368.326 177.420 368.226 177.520 368.326 177.520 H 371.246 C 371.346 177.520 371.246 177.420 371.246 177.520 V 180.540 C 371.246 180.595 371.290 180.640 371.346 180.640 H 374.466 C 374.521 180.640 374.566 180.595 374.566 180.540 V 177.520 C 374.566 177.420 374.466 177.520 374.566 177.520 H 377.486 C 377.586 177.520 377.486 177.420 377.486 177.520 V 180.540 C 377.486 180.595 377.530 180.640 377.586 180.640 H 380.706 C 380.761 180.640 380.806 180.595 380.806 180.540 V 177.520 C 380.806 177.420 380.706 177.520 380.806 177.520 H 383.726 C 383.826 177.520 383.726 177.420 383.726 177.520 V 180.540 C 383.726 180.595 383.770 180.640 383.826 180.640 H 386.946 C 387.001 180.640 387.046 180.595 387.046 180.540 V 177.520 C 387.046 177.420 386.946 177.520 387.046 177.520 H 389.966 C 390.066 177.520 389.966 177.420 389.966 177.520 V 180.540 C 389.966 180.595 390.010 180.640 390.066 180.640 H 393.186 C 393.241 180.640 393.286 180.595 393.286 180.540 V 177.520 C 393.286 177.420 393.186 177.520 393.286 177.520 H 396.206 C 396.306 177.520 396.206 177.420 396.206 177.520 V 180.540 C 396.206 180.595 396.250 180.640 396.306 180.640 H 399.426 C 399.481 180.640 399.526 180.595 399.526 180.540 V 177.520 C 399.526 177.420 399.426 177.520 399.526 177.520 H 402.446 C 402.546 177.520 402.446 177.420 402.446 177.520 V 180.540 C 402.446 180.595 402.490 180.640 402.546 180.640 H 405.666 C 405.721 180.640 405.766 180.595 405.766 180.540 V 177.520 C 405.766 177.420 405.666 177.520 405.766 177.520 H 408.686 C 408.786 177.520 408.686 177.420 408.686 177.520 V 180.540 C 408.686 180.595 408.730 180.640 408.786 180.640 H 411.906 C 411.961 180.640 412.006 180.595 412.006 180.540 V 177.520 C 412.006 177.420 411.906 177.520 412.006 177.520 H 414.926 C 415.026 177.520 414.926 177.420 414.926 177.520 V 180.540 C 414.926 180.595 414.970 180.640 415.026 180.640 H 418.146 C 418.201 180.640 418.246 180.595 418.246 180.540 V 177.520 C 418.246 177.420 418.146 177.520 418.246 177.520 H 421.166 C 421.266 177.520 421.166 177.420 421.166 177.520 V 180.540 C 421.166 180.595 421.210 180.640 421.266 180.640 H 425.386 C 425.441 180.640 425.486 180.595 425.486 180.540 V 177.420 V 171.560 C 425.486 171.460 425.386 171.560 425.486 171.560 H 428.506 C 428.561 171.560 428.606 171.515 428.606 171.460 V 168.340 C 428.606 168.285 428.561 168.240 428.506 168.240 H 425.486 C 425.386 168.240 425.486 168.340 425.486 168.240 V 165.320 C 425.486 165.220 425.386 165.320 425.486 165.320 H 428.506 C 428.561 165.320 428.606 165.275 428.606 165.220 V 162.100 C 428.606 162.045 428.561 162.000 428.506 162.000 H 425.486 C 425.386 162.000 425.486 162.100 425.486 162.000 V 159.080 C 425.486 158.980 425.386 159.080 425.486 159.080 H 428.506 C 428.561 159.080 428.606 159.035 428.606 158.980 V 155.860 C 428.606 155.805 428.561 155.760 428.506 155.760 H 425.486 C 425.386 155.760 425.486 155.860 425.486 155.760 V 152.840 C 425.486 152.740 425.386 152.840 425.486 152.840 H 428.506 C 428.561 152.840 428.606 152.795 428.606 152.740 V 149.620 C 428.606 149.565 428.561 149.520 428.506 149.520 H 425.486 C 425.386 149.520 425.486 149.620 425.486 149.520 V 146.600 C 425.486 146.500 425.386 146.600 425.486 146.600 H 428.506 C 428.561 146.600 428.606 146.555 428.606 146.500 V 143.380 C 428.606 143.325 428.561 143.280 428.506 143.280 H 425.486 C 425.386 143.280 425.486 143.380 425.486 143.280 V 137.420 V 134.300 C 425.486 134.245 425.441 134.200 425.386 134.200 H 421.266 C 421.210 134.200 421.166 134.245 421.166 134.300 V 137.320 C 421.166 137.420 421.266 137.320 421.166 137.320 H 418.246 C 418.146 137.320 418.246 137.420 418.246 137.320 V 134.300 C 418.246 134.245 418.201 134.200 418.146 134.200 H 415.026 C 414.970 134.200 414.926 134.245 414.926 134.300 V 137.320 C 414.926 137.420 415.026 137.320 414.926 137.320 H 412.006 C 411.906 137.320 412.006 137.420 412.006 137.320 V 134.300 C 412.006 134.245 411.961 134.200 411.906 134.200 H 408.786 C 408.730 134.200 408.686 134.245 408.686 134.300 V 137.320 C 408.686 137.420 408.786 137.320 408.686 137.320 H 405.766 C 405.666 137.320 405.766 137.420 405.766 137.320 V 134.300 C 405.766 134.245 405.721 134.200 405.666 134.200 H 402.546 C 402.490 134.200 402.446 134.245 402.446 134.300 V 137.320 C 402.446 137.420 402.546 137.320 402.446 137.320 H 399.526 C 399.426 137.320 399.526 137.420 399.526 137.320 V 134.300 C 399.526 134.245 399.481 134.200 399.426 134.200 H 396.306 C 396.250 134.200 396.206 134.245 396.206 134.300 V 137.320 C 396.206 137.420 396.306 137.320 396.206 137.320 H 393.286 C 393.186 137.320 393.286 137.420 393.286 137.320 V 134.300 C 393.286 134.245 393.241 134.200 393.186 134.200 H 390.066 C 390.010 134.200 389.966 134.245 389.966 134.300 V 137.320 C 389.966 137.420 390.066 137.320 389.966 137.320 H 387.046 C 386.946 137.320 387.046 137.420 387.046 137.320 V 134.300 C 387.046 134.245 387.001 134.200 386.946 134.200 H 383.826 C 383.770 134.200 383.726 134.245 383.726 134.300 V 137.320 C 383.726 137.420 383.826 137.320 383.726 137.320 H 380.806 C 380.706 137.320 380.806 137.420 380.806 137.320 V 134.300 C 380.806 134.245 380.761 134.200 380.706 134.200 H 377.586 C 377.530 134.200 377.486 134.245 377.486 134.300 V 137.320 C 377.486 137.420 377.586 137.320 377.486 137.320 H 374.566 C 374.466 137.320 374.566 137.420 374.566 137.320 V 134.300 C 374.566 134.245 374.521 134.200 374.466 134.200 H 371.346 C 371.290 134.200 371.246 134.245 371.246 134.300 V 137.320 C 371.246 137.420 371.346 137.320 371.246 137.320 H 368.326 C 368.226 137.320 368.326 137.420 368.326 137.320 V 134.300 C 368.326 134.245 368.281 134.200 368.226 134.200 H 365.106 C 365.050 134.200 365.006 134.245 365.006 134.300 V 137.320 C 365.006 137.420 365.106 137.320 365.006 137.320 H 362.086 C 361.986 137.320 362.086 137.420 362.086 137.320 V 134.300 C 362.086 134.245 362.041 134.200 361.986 134.200 H 358.866 C 358.810 134.200 358.766 134.245 358.766 134.300 V 137.320 C 358.766 137.420 358.866 137.320 358.766 137.320 H 355.846 C 355.746 137.320 355.846 137.420 355.846 137.320 V 134.300 C 355.846 134.245 355.801 134.200 355.746 134.200 H 352.626 C 352.570 134.200 352.526 134.245 352.526 134.300 V 137.320 C 352.526 137.420 352.626 137.320 352.526 137.320 H 349.606 C 349.506 137.320 349.606 137.420 349.606 137.320 V 134.300 C 349.606 134.245 349.561 134.200 349.506 134.200 H 345.386 H 224.623 C 224.568 134.200 224.523 134.245 224.523 134.300 V 137.420 V 143.280 C 224.523 143.380 224.623 143.280 224.523 143.280 H 221.503 C 221.448 143.280 221.403 143.325 221.403 143.380 V 146.500 C 221.403 146.555 221.448 146.600 221.503 146.600 H 224.523 C 224.623 146.600 224.523 146.500 224.523 146.600 V 149.520 C 224.523 149.620 224.623 149.520 224.523 149.520 H 221.503 C 221.448 149.520 221.403 149.565 221.403 149.620 V 152.740 C 221.403 152.795 221.448 152.840 221.503 152.840 H 224.523 C 224.623 152.840 224.523 152.740 224.523 152.840 V 155.760 C 224.523 155.860 224.623 155.760 224.523 155.760 H 221.503 C 221.448 155.760 221.403 155.805 221.403 155.860 V 158.980 C 221.403 159.035 221.448 159.080 221.503 159.080 H 224.523 C 224.623 159.080 224.523 158.980 224.523 159.080 V 162.000 C 224.523 162.100 224.623 162.000 224.523 162.000 H 221.503 C 221.448 162.000 221.403 162.045 221.403 162.100 V 165.220 C 221.403 165.275 221.448 165.320 221.503 165.320 H 224.523 C 224.623 165.320 224.523 165.220 224.523 165.320 V 168.240 C 224.523 168.340 224.623 168.240 224.523 168.240 H 221.503 C 221.448 168.240 221.403 168.285 221.403 168.340 V 171.460 C 221.403 171.515 221.448 171.560 221.503 171.560 H 224.523 C 224.623 171.560 224.523 171.460 224.523 171.560 V 177.420 V 180.540 C 224.523 180.595 224.568 180.640 224.623 180.640 Z" stroke="rgb(0,0,0)" stroke-width="0.20" />
  <path d="M 226.504 180.640 V 158.980 M 226.504 155.860 V 134.200 M 228.064 137.320 V 177.520 M 229.624 180.640 V 158.980 M 229.624 155.860 V 134.200 M 231.184 137.320 V 177.520 M 232.744 180.640 V 158.980 M 232.744 155.860 V 134.200 M 234.304 137.320 V 177.520 M 235.864 180.640 V 158.980 M 235.864 155.860 V 134.200 M 237.424 137.320 V 177.520 M 238.984 180.640 V 158.980 M 238.984 155.860 V 134.200 M 240.544 137.320 V 177.520 M 242.104 180.640 V 158.980 M 242.104 155.860 V 134.200 M 243.664 137.320 V 177.520 M 245.224 180.640 V 158.980 M 245.224 155.860 V 134.200 M 246.784 137.320 V 177.520 M 248.344 180.640 V 158.980 M 248.344 155.860 V 134.200 M 249.904 137.320 V 177.520 M 251.464 180.640 V 158.980 M 251.464 155.860 V 134.200 M 253.024 137.320 V 177.520 M 254.584 180.640 V 158.980 M 254.584 155.860 V 134.200 M 256.144 137.320 V 177.520 M 257.704 180.640 V 158.980 M 257.704 155.860 V 134.200 M 259.264 137.320 V 177.520 M 260.824 180.640 V 158.980 M 260.824 155.860 V 134.200 M 262.384 137.320 V 177.520 M 263.944 180.640 V 158.980 M 263.944 155.860 V 134.200 M 265.504 137.320 V 177.520 M 267.064 180.640 V 158.980 M 267.064 155.860 V 134.200 M 268.624 137.320 V 177.520 M 270.184 180.640 V 158.980 M 270.184 155.860 V 134.200 M 271.744 137.320 V 177.520 M 273.304 180.640 V 158.980 M 273.304 155.860 V 134.200 M 274.864 137.320 V 177.520 M 276.424 180.640 V 158.980 M 276.424 155.860 V 134.200 M 277.984 137.320 V 177.520 M 279.544 180.640 V 158.980 M 279.544 155.860 V 134.200 M 281.104 137.320 V 177.520 M 282.664 180.640 V 158.980 M 282.664 155.860 V 134.200 M 284.224 137.320 V 177.520 M 285.784 180.640 V 158.980 M 285.784 155.860 V 134.200 M 287.344 137.320 V 177.520 M 288.904 180.640 V 158.980 M 288.904 155.860 V 134.200 M 290.464 137.320 V 177.520 M 292.024 180.640 V 158.980 M 292.024 155.860 V 134.200 M 293.584 137.320 V 177.520 M 295.144 180.640 V 158.980 M 295.144 155.860 V 134.200 M 296.704 137.320 V 177.520 M 298.264 180.640 V 158.980 M 298.264 155.860 V 134.200 M 299.824 137.320 V 177.520 M 301.384 180.640 V 158.980 M 301.384 155.860 V 134.200 M 302.944 137.320 V 177.520 M 304.504 180.640 V 158.980 M 304.504 155.860 V 134.200 M 306.064 137.320 V 177.520 M 307.624 180.640 V 158.980 M 307.624 155.860 V 134.200 M 309.184 137.320 V 177.520 M 310.744 180.640 V 158.980 M 310.744 155.860 V 134.200 M 312.304 137.320 V 177.520 M 313.864 180.640 V 158.980 M 313.864 155.860 V 134.200 M 315.424 137.320 V 177.520 M 316.984 180.640 V 158.980 M 316.984 155.860 V 134.200 M 318.544 137.320 V 177.520 M 320.104 180.640 V 158.980 M 320.104 155.860 V 134.200 M 321.664 137.320 V 177.520 M 323.224 180.640 V 158.980 M 323.224 155.860 V 134.200 M 324.784 137.320 V 177.520 M 326.344 180.640 V 158.980 M 326.344 155.860 V 134.200 M 327.904 137.320 V 177.520 M 329.464 180.640 V 158.980 M 329.464 155.860 V 134.200 M 331.024 137.320 V 177.520 M 332.584 180.640 V 158.980 M 332.584 155.860 V 134.200 M 334.144 137.320 V 177.520 M 335.704 180.640 V 158.980 M 335.704 155.860 V 134.200 M 337.264 137.320 V 177.520 M 338.824 180.640 V 158.980 M 338.824 155.860 V 134.200 M 340.384 137.320 V 177.520 M 341.944 180.640 V 158.980 M 341.944 155.860 V 134.200 M 343.504 137.320 V 177.520" stroke="rgb(0,0,0)" stroke-width="0.20" />
</g>
<g id="p-2" style="fill:none;stroke-linecap:round;stroke-linejoin:round;">
  <text alignment-baseline="hanging" font-size="4px" style="font-family: sans-serif ; font-weight: normal; font-style: normal; fill: rgb(255,0,0)" text-anchor="middle" transform="matrix( 1.000 0.000 0.000 1.000 72.440 67.420 )" /><path d="M 13.220 128.640 H 17.240 C 17.340 128.640 17.240 128.540 17.240 128.640 V 131.660 C 17.240 131.715 17.285 131.760 17.340 131.760 H 20.460 C 20.515 131.760 20.560 131.715 20.560 131.660 V 128.640 C 20.560 128.540 20.460 128.640 20.560 128.640 H 23.480 C 23.580 128.640 23.480 128.540 23.480 128.640 V 131.660 C 23.480 131.715 23.525 131.760 23.580 131.760 H 26.700 C 26.755 131.760 26.800 131.715 26.800 131.660 V 128.640 C 26.800 128.540 26.700 128.640 26.800 128.640 H 29.720 C 29.820 128.640 29.720 128.540 29.720 128.640 V 131.660 C 29.720 131.715 29.765 131.760 29.820 131.760 H 32.940 C 32.995 131.760 33.040 131.715 33.040 131.660 V 128.640 C 33.040 128.540 32.940 128.640 33.040 128.640 H 35.960 C 36.060 128.640 35.960 128.540 35.960 128.640 V 131.660 C 35.960 131.715 36.005 131.760 36.060 131.760 H 39.180 C 39.235 131.760 39.280 131.715 39.280 131.660 V 128.640 C 39.280 128.540 39.180 128.640 39.280 128.640 H 42.200 C 42.300 128.640 42.200 128.540 42.200 128.640 V 131.660 C 42.200 131.715 42.245 131.760 42.300 131.760 H 45.420 C 45.475 131.760 45.520 131.715 45.520 131.660 V 128.640 C 45.520 128.540 45.420 128.640 45.520 128.640 H 48.440 C 48.540 128.640 48.440 128.540 48.440 128.640 V 131.660 C 48.440 131.715 48.485 131.760 48.540 131.760 H 51.660 C 51.715 131.760 51.760 131.715 51.760 131.660 V 128.640 C 51.760 128.540 51.660 128.640 51.760 128.640 H 54.680 C 54.780 128.640 54.680 128.540 54.680 128.640 V 131.660 C 54.680 131.715 54.725 131.760 54.780 131.760 H 57.900 C 57.955 131.760 58.000 131.715 58.000 131.660 V 128.640 C 58.000 128.540 57.900 128.640 58.000 128.640 H 60.920 C 61.020 128.640 60.920 128.540 60.920 128.640 V 131.660 C 60.920 131.715 60.965 131.760 61.020 131.760 H 64.140 C 64.195 131.760 64.240 131.715 64.240 131.660 V 128.640 C 64.240 128.540 64.140 128.640 64.240 128.640 H 67.160 C 67.260 128.640 67.160 128.540 67.160 128.640 V 131.660 C 67.160 131.715 67.205 131.760 67.260 131.760 H 70.380 C 70.435 131.760 70.480 131.715 70.480 131.660 V 128.640 C 70.480 128.540 70.380 128.640 70.480 128.640 H 73.400 C 73.500 128.640 73.400 128.540 73.400 128.640 V 131.660 C 73.400 131.715 73.445 131.760 73.500 131.760 H 76.620 C 76.675 131.760 76.720 131.715 76.720 131.660 V 128.640 C 76.720 128.540 76.620 128.640 76.720 128.640 H 79.640 C 79.740 128.640 79.640 128.540 79.640 128.640 V 131.660 C 79.640 131.715 79.685 131.760 79.740 131.760 H 82.860 C 82.915 131.760 82.960 131.715 82.960 131.660 V 128.640 C 82.960 128.540 82.860 128.640 82.960 128.640 H 85.880 C 85.980 128.640 85.880 128.540 85.880 128.640 V 131.660 C 85.880 131.715 85.925 131.760 85.980 131.760 H 89.100 C 89.155 131.760 89.200 131.715 89.200 131.660 V 128.640 C 89.200 128.540 89.100 128.640 89.200 128.640 H 93.220 C 99.985 128.640 106.631 126.859 112.490 123.477 C 118.349 120.094 123.214 115.229 126.597 109.370 C 129.979 103.511 131.760 96.865 131.760 90.100 C 131.760 83.335 129.979 76.689 126.597 70.830 C 123.214 64.971 118.349 60.106 112.490 56.723 C 106.631 53.341 99.985 51.560 93.220 51.560 H 90.200 C 90.100 51.560 90.200 51.660 90.200 51.560 V 48.540 C 90.200 41.775 88.419 35.129 85.037 29.270 C 81.654 23.411 76.789 18.546 70.930 15.163 C 65.071 11.781 58.425 10.000 51.660 10.000 C 44.895 10.000 38.249 11.781 32.390 15.163 C 26.531 18.546 21.666 23.411 18.283 29.270 C 14.901 35.129 13.120 41.775 13.120 48.540 V 52.560 C 13.120 52.660 13.220 52.560 13.120 52.560 H 10.100 C 10.045 52.560 10.000 52.605 10.000 52.660 V 55.780 C 10.000 55.835 10.045 55.880 10.100 55.880 H 13.120 C 13.220 55.880 13.120 55.780 13.120 55.880 V 58.800 C 13.120 58.900 13.220 58.800 13.120 58.800 H 10.100 C 10.045 58.800 10.000 58.845 10.000 58.900 V 62.020 C 10.000 62.075 10.045 62.120 10.100 62.120 H 13.120 C 13.220 62.120 13.120 62.020 13.120 62.120 V 65.040 C 13.120 65.140 13.220 65.040 13.120 65.040 H 10.100 C 10.045 65.040 10.000 65.085 10.000 65.140 V 68.260 C 10.000 68.315 10.045 68.360 10.100 68.360 H 13.120 C 13.220 68.360 13.120 68.260 13.120 68.360 V 71.280 C 13.120 71.380 13.220 71.280 13.120 71.280 H 10.100 C 10.045 71.280 10.000 71.325 10.000 71.380 V 74.500 C 10.000 74.555 10.045 74.600 10.100 74.600 H 13.120 C 13.220 74.600 13.120 74.500 13.120 74.600 V 77.520 C 13.120 77.620 13.220 77.520 13.120 77.520 H 10.100 C 10.045 77.520 10.000 77.565 10.000 77.620 V 80.740 C 10.000 80.795 10.045 80.840 10.100 80.840 H 13.120 C 13.220 80.840 13.120 80.740 13.120 80.840 V 83.760 C 13.120 83.860 13.220 83.760 13.120 83.760 H 10.100 C 10.045 83.760 10.000 83.805 10.000 83.860 V 86.980 C 10.000 87.035 10.045 87.080 10.100 87.080 H 13.120 C 13.220 87.080 13.120 86.980 13.120 87.080 V 90.000 C 13.120 90.100 13.220 90.000 13.120 90.000 H 10.100 C 10.045 90.000 10.000 90.045 10.000 90.100 V 93.220 C 10.000 93.275 10.045 93.320 10.100 93.320 H 13.120 C 13.220 93.320 13.120 93.220 13.120 93.320 V 96.240 C 13.120 96.340 13.220 96.240 13.120 96.240 H 10.100 C 10.045 96.240 10.000 96.285 10.000 96.340 V 99.460 C 10.000 99.515 10.045 99.560 10.100 99.560 H 13.120 C 13.220 99.560 13.120 99.460 13.120 99.560 V 102.480 C 13.120 102.580 13.220 102.480 13.120 102.480 H 10.100 C 10.045 102.480 10.000 102.525 10.000 102.580 V 105.700 C 10.000 105.755 10.045 105.800 10.100 105.800 H 13.120 C 13.220 105.800 13.120 105.700 13.120 105.800 V 108.720 C 13.120 108.820 13.220 108.720 13.120 108.720 H 10.100 C 10.045 108.720 10.000 108.765 10.000 108.820 V 111.940 C 10.000 111.995 10.045 112.040 10.100 112.040 H 13.120 C 13.220 112.040 13.120 111.940 13.120 112.040 V 114.960 C 13.120 115.060 13.220 114.960 13.120 114.960 H 10.100 C 10.045 114.960 10.000 115.005 10.000 115.060 V 118.180 C 10.000 118.235 10.045 118.280 10.100 118.280 H 13.120 C 13.220 118.280 13.120 118.180 13.120 118.280 V 121.200 C 13.120 121.300 13.220 121.200 13.120 121.200 H 10.100 C 10.045 121.200 10.000 121.245 10.000 121.300 V 124.420 C 10.000 124.475 10.045 124.520 10.100 124.520 H 13.120 C 13.220 124.520 13.120 124.420 13.120 124.520 V 128.540 C 13.120 128.595 13.165 128.640 13.220 128.640" stroke="rgb(0,0,0)" stroke-width="0.20" />
</g>
<g id="p-3" style="fill:none;stroke-linecap:round;stroke-linejoin:round;">
  <text alignment-baseline="hanging" font-size="4px" style="font-family: sans-serif ; font-weight: normal; font-style: normal; fill: rgb(255,0,0)" text-anchor="middle" transform="matrix( 1.000 0.000 0.000 1.000 192.640 67.420 )" /><path d="M 251.860 128.640 H 247.840 C 247.740 128.640 247.840 128.540 247.840 128.640 V 131.660 C 247.840 131.715 247.795 131.760 247.740 131.760 H 244.620 C 244.565 131.760 244.520 131.715 244.520 131.660 V 128.640 C 244.520 128.540 244.620 128.640 244.520 128.640 H 241.600 C 241.500 128.640 241.600 128.540 241.600 128.640 V 131.660 C 241.600 131.715 241.555 131.760 241.500 131.760 H 238.380 C 238.325 131.760 238.280 131.715 238.280 131.660 V 128.640 C 238.280 128.540 238.380 128.640 238.280 128.640 H 235.360 C 235.260 128.640 235.360 128.540 235.360 128.640 V 131.660 C 235.360 131.715 235.315 131.760 235.260 131.760 H 232.140 C 232.085 131.760 232.040 131.715 232.040 131.660 V 128.640 C 232.040 128.540 232.140 128.640 232.040 128.640 H 229.120 C 229.020 128.640 229.120 128.540 229.120 128.640 V 131.660 C 229.120 131.715 229.075 131.760 229.020 131.760 H 225.900 C 225.845 131.760 225.800 131.715 225.800 131.660 V 128.640 C 225.800 128.540 225.900 128.640 225.800 128.640 H 222.880 C 222.780 128.640 222.880 128.540 222.880 128.640 V 131.660 C 222.880 131.715 222.835 131.760 222.780 131.760 H 219.660 C 219.605 131.760 219.560 131.715 219.560 131.660 V 128.640 C 219.560 128.540 219.660 128.640 219.560 128.640 H 216.640 C 216.540 128.640 216.640 128.540 216.640 128.640 V 131.660 C 216.640 131.715 216.595 131.760 216.540 131.760 H 213.420 C 213.365 131.760 213.320 131.715 213.320 131.660 V 128.640 C 213.320 128.540 213.420 128.640 213.320 128.640 H 210.400 C 210.300 128.640 210.400 128.540 210.400 128.640 V 131.660 C 210.400 131.715 210.355 131.760 210.300 131.760 H 207.180 C 207.125 131.760 207.080 131.715 207.080 131.660 V 128.640 C 207.080 128.540 207.180 128.640 207.080 128.640 H 204.160 C 204.060 128.640 204.160 128.540 204.160 128.640 V 131.660 C 204.160 131.715 204.115 131.760 204.060 131.760 H 200.940 C 200.885 131.760 200.840 131.715 200.840 131.660 V 128.640 C 200.840 128.540 200.940 128.640 200.840 128.640 H 197.920 C 197.820 128.640 197.920 128.540 197.920 128.640 V 131.660 C 197.920 131.715 197.875 131.760 197.820 131.760 H 194.700 C 194.645 131.760 194.600 131.715 194.600 131.660 V 128.640 C 194.600 128.540 194.700 128.640 194.600 128.640 H 191.680 C 191.580 128.640 191.680 128.540 191.680 128.640 V 131.660 C 191.680 131.715 191.635 131.760 191.580 131.760 H 188.460 C 188.405 131.760 188.360 131.715 188.360 131.660 V 128.640 C 188.360 128.540 188.460 128.640 188.360 128.640 H 185.440 C 185.340 128.640 185.440 128.540 185.440 128.640 V 131.660 C 185.440 131.715 185.395 131.760 185.340 131.760 H 182.220 C 182.165 131.760 182.120 131.715 182.120 131.660 V 128.640 C 182.120 128.540 182.220 128.640 182.120 128.640 H 179.200 C 179.100 128.640 179.200 128.540 179.200 128.640 V 131.660 C 179.200 131.715 179.155 131.760 179.100 131.760 H 175.980 C 175.925 131.760 175.880 131.715 175.880 131.660 V 128.640 C 175.880 128.540 175.980 128.640 175.880 128.640 H 171.860 C 165.095 128.640 158.449 126.859 152.590 123.477 C 146.731 120.094 141.866 115.229 138.483 109.370 C 135.101 103.511 133.320 96.865 133.320 90.100 C 133.320 83.335 135.101 76.689 138.483 70.830 C 141.866 64.971 146.731 60.106 152.590 56.723 C 158.449 53.341 165.095 51.560 171.860 51.560 H 174.880 C 174.980 51.560 174.880 51.660 174.880 51.560 V 48.540 C 174.880 41.775 176.661 35.129 180.043 29.270 C 183.426 23.411 188.291 18.546 194.150 15.163 C 200.009 11.781 206.655 10.000 213.420 10.000 C 220.185 10.000 226.831 11.781 232.690 15.163 C 238.549 18.546 243.414 23.411 246.797 29.270 C 250.179 35.129 251.960 41.775 251.960 48.540 V 52.560 C 251.960 52.660 251.860 52.560 251.960 52.560 H 254.980 C 255.035 52.560 255.080 52.605 255.080 52.660 V 55.780 C 255.080 55.835 255.035 55.880 254.980 55.880 H 251.960 C 251.860 55.880 251.960 55.780 251.960 55.880 V 58.800 C 251.960 58.900 251.860 58.800 251.960 58.800 H 254.980 C 255.035 58.800 255.080 58.845 255.080 58.900 V 62.020 C 255.080 62.075 255.035 62.120 254.980 62.120 H 251.960 C 251.860 62.120 251.960 62.020 251.960 62.120 V 65.040 C 251.960 65.140 251.860 65.040 251.960 65.040 H 254.980 C 255.035 65.040 255.080 65.085 255.080 65.140 V 68.260 C 255.080 68.315 255.035 68.360 254.980 68.360 H 251.960 C 251.860 68.360 251.960 68.260 251.960 68.360 V 71.280 C 251.960 71.380 251.860 71.280 251.960 71.280 H 254.980 C 255.035 71.280 255.080 71.325 255.080 71.380 V 74.500 C 255.080 74.555 255.035 74.600 254.980 74.600 H 251.960 C 251.860 74.600 251.960 74.500 251.960 74.600 V 77.520 C 251.960 77.620 251.860 77.520 251.960 77.520 H 254.980 C 255.035 77.520 255.080 77.565 255.080 77.620 V 80.740 C 255.080 80.795 255.035 80.840 254.980 80.840 H 251.960 C 251.860 80.840 251.960 80.740 251.960 80.840 V 83.760 C 251.960 83.860 251.860 83.760 251.960 83.760 H 254.980 C 255.035 83.760 255.080 83.805 255.080 83.860 V 86.980 C 255.080 87.035 255.035 87.080 254.980 87.080 H 251.960 C 251.860 87.080 251.960 86.980 251.960 87.080 V 90.000 C 251.960 90.100 251.860 90.000 251.960 90.000 H 254.980 C 255.035 90.000 255.080 90.045 255.080 90.100 V 93.220 C 255.080 93.275 255.035 93.320 254.980 93.320 H 251.960 C 251.860 93.320 251.960 93.220 251.960 93.320 V 96.240 C 251.960 96.340 251.860 96.240 251.960 96.240 H 254.980 C 255.035 96.240 255.080 96.285 255.080 96.340 V 99.460 C 255.080 99.515 255.035 99.560 254.980 99.560 H 251.960 C 251.860 99.560 251.960 99.460 251.960 99.560 V 102.480 C 251.960 102.580 251.860 102.480 251.960 102.480 H 254.980 C 255.035 102.480 255.080 102.525 255.080 102.580 V 105.700 C 255.080 105.755 255.035 105.800 254.980 105.800 H 251.960 C 251.860 105.800 251.960 105.700 251.960 105.800 V 108.720 C 251.960 108.820 251.860 108.720 251.960 108.720 H 254.980 C 255.035 108.720 255.080 108.765 255.080 108.820 V 111.940 C 255.080 111.995 255.035 112.040 254.980 112.040 H 251.960 C 251.860 112.040 251.960 111.940 251.960 112.040 V 114.960 C 251.960 115.060 251.860 114.960 251.960 114.960 H 254.980 C 255.035 114.960 255.080 115.005 255.080 115.060 V 118.180 C 255.080 118.235 255.035 118.280 254.980 118.280 H 251.960 C 251.860 118.280 251.960 118.180 251.960 118.280 V 121.200 C 251.960 121.300 251.860 121.200 251.960 121.200 H 254.980 C 255.035 121.200 255.080 121.245 255.080 121.300 V 124.420 C 255.080 124.475 255.035 124.520 254.980 124.520 H 251.960 C 251.860 124.520 251.960 124.420 251.960 124.520 V 128.540 C 251.960 128.595 251.915 128.640 251.860 128.640" stroke="rgb(0,0,0)" stroke-width="0.20" />
</g>
</svg>