<?xml version="1.0" encoding="utf-8"?>
<!-- Generator: Adobe Illustrator 25.4.1, SVG Export Plug-In . SVG Version: 6.00 Build 0)  -->
<svg version="1.1" xmlns="http://www.w3.org/2000/svg" xmlns:xlink="http://www.w3.org/1999/xlink" x="0px" y="0px"
	 viewBox="0 0 962.57 668.08" style="enable-background:new 0 0 962.57 668.08;" xml:space="preserve">
<style type="text/css">
	
		.st0{fill-rule:evenodd;clip-rule:evenodd;fill:none;stroke:#000000;stroke-width:5;stroke-linecap:round;stroke-linejoin:round;stroke-miterlimit:10;}
	.st1{fill-rule:evenodd;clip-rule:evenodd;}
	.st2{fill-rule:evenodd;clip-rule:evenodd;fill:#7F7C77;}
	.st3{fill:#7F7C77;}
</style>
<g id="DXF_x5F_objects">
</g>
<g id="_x30_">
	<polygon class="st0" points="860.22,602.66 104.22,602.66 68.22,566.66 68.22,98.66 104.22,62.66 860.22,62.66 896.22,98.66 
		896.22,566.66 	"/>
	<circle class="st1" cx="723.64" cy="224.66" r="108"/>
	<polygon class="st2" points="490.89,127.76 149.03,127.76 139.96,136.83 139.96,154.69 149.03,163.76 490.89,163.76 499.96,154.69 
		499.96,136.83 	"/>
	<polygon class="st2" points="437.17,255.85 203.32,255.85 194.25,264.92 194.25,293.58 203.32,302.65 437.17,302.65 446.25,293.58 
		446.25,264.92 	"/>
	<polygon class="st2" points="509.5,397.48 127.9,397.48 102.7,422.68 102.7,516.28 127.9,541.48 509.5,541.48 534.7,516.28 
		534.7,422.68 	"/>
	<circle class="st2" cx="651.64" cy="429.24" r="36"/>
	<circle class="st2" cx="795.64" cy="429.24" r="36"/>
	<g>
		<path class="st3" d="M614.65,515.56c3.61,0,5.66,0.13,6.14,0.38c0.48,0.25,3.71,8.47,9.68,24.66s10.02,26.62,12.13,31.3h4.22
			c0.38,0.88,0.58,1.74,0.58,2.56c0,0.74-0.16,1.25-0.48,1.54c-0.32,0.29-0.88,0.44-1.68,0.44h-19.89c-0.42-1-0.62-1.93-0.62-2.78
			c0-0.62,0.17-1.07,0.5-1.35c0.34-0.28,0.89-0.42,1.65-0.42h2.59c-0.61-2.62-2.14-7.65-4.6-15.09h-21.62
			c-2.24,7.38-3.58,12.41-4.03,15.09h4.46c0.38,0.88,0.58,1.74,0.58,2.56c0,0.74-0.16,1.25-0.48,1.54
			c-0.32,0.29-0.88,0.44-1.68,0.44h-17.64c-0.38-1-0.58-1.93-0.58-2.78c0-0.62,0.17-1.07,0.5-1.35c0.33-0.28,0.89-0.42,1.65-0.42
			h2.78c2.11-5.35,5.61-15.02,10.5-29.01s7.91-22.04,9.06-24.15C609.53,516.61,611.62,515.56,614.65,515.56z M604.92,551.11H623
			c-5.82-17.03-8.94-25.54-9.37-25.54S610.29,534.08,604.92,551.11z"/>
		<path class="st3" d="M680.9,516.22h19.7c1.53,5.12,3.67,11.62,6.42,19.5c2.75,7.88,4.89,14.31,6.42,19.3
			c1.53,4.99,2.41,7.48,2.64,7.48s2.36-6.34,6.42-19.01c4.06-12.68,6.77-21.76,8.15-27.26h19.41c0.38,0.88,0.58,1.74,0.58,2.56
			c0,0.74-0.16,1.25-0.48,1.54c-0.32,0.29-0.88,0.44-1.68,0.44h-3.16c-0.13,5.41-0.03,14.26,0.29,26.56
			c0.32,12.29,0.64,20.48,0.96,24.57h4.65c0.42,0.88,0.62,1.74,0.62,2.56c0,0.74-0.16,1.25-0.48,1.54
			c-0.32,0.29-0.89,0.44-1.73,0.44h-18.79c-0.42-1-0.62-1.93-0.62-2.78c0-0.62,0.17-1.07,0.5-1.35c0.33-0.28,0.89-0.42,1.65-0.42
			h2.83c0.26-5.12,0.14-20.67-0.33-46.67c-2.49,8.82-5.37,17.81-8.63,26.95c-3.26,9.15-5.42,14.56-6.47,16.23
			c-1.05,1.68-2.76,2.51-5.13,2.51c-3.39,0-5.28-0.12-5.68-0.35c-0.4-0.24-2.54-5.38-6.42-15.42c-3.88-10.04-7.29-20.09-10.23-30.15
			c-0.1,26.15-0.03,41.78,0.19,46.89h4.46c0.38,0.88,0.58,1.74,0.58,2.56c0,0.74-0.16,1.25-0.48,1.54
			c-0.32,0.29-0.88,0.44-1.68,0.44h-17.64c-0.38-1-0.58-1.93-0.58-2.78c0-0.62,0.17-1.07,0.5-1.35c0.34-0.28,0.89-0.42,1.65-0.42
			h3.5c0.35-4.09,0.68-12.28,0.98-24.57c0.3-12.29,0.42-21.15,0.36-26.56h-4.84c-0.38-1-0.58-1.93-0.58-2.78
			c0-0.62,0.17-1.07,0.5-1.35S680.13,516.22,680.9,516.22z"/>
		<path class="st3" d="M810.81,515.33c6.93,0,11.74,0.38,14.43,1.12s4.03,2.2,4.03,4.35c0,1.97-0.86,3.72-2.59,5.25
			c-6.71-2.82-12.94-4.23-18.69-4.23c-4.06,0-6.93,0.74-8.6,2.23c-1.68,1.49-2.52,3.54-2.52,6.15c0,2.74,1,4.91,3,6.53
			s5.79,3.24,11.38,4.85c6.62,1.82,11.62,3.92,15.03,6.29s5.2,6.2,5.39,11.49c0,5.91-2.2,10.38-6.59,13.41
			c-4.39,3.03-11.11,4.54-20.16,4.54c-6.3,0-11.07-0.41-14.33-1.23c-3.26-0.82-4.89-2.35-4.89-4.59c0-2.03,0.93-3.82,2.78-5.38
			c6.33,3.18,12.91,4.76,19.75,4.76c4.7,0,8.04-0.71,10.02-2.12c1.98-1.41,2.97-3.59,2.97-6.53c0-3.53-1.43-6.18-4.29-7.94
			s-7.42-3.56-13.68-5.38c-6.07-1.71-10.39-3.85-12.97-6.42c-2.57-2.57-3.86-5.95-3.86-10.12c0-5.21,2.1-9.34,6.3-12.42
			S802.94,515.33,810.81,515.33z"/>
	</g>
	<rect x="612.82" y="746.52" style="fill-rule:evenodd;clip-rule:evenodd;fill:none;" width="2.29" height="0"/>
	<g>
		
			<ellipse transform="matrix(0.344 -0.939 0.939 0.344 81.1192 1129.0387)" class="st3" cx="848.54" cy="506.47" rx="13.98" ry="1.6"/>
		
			<ellipse transform="matrix(0.6049 -0.7963 0.7963 0.6049 -62.0744 866.1222)" class="st3" cx="841.74" cy="495.61" rx="3.98" ry="11.25"/>
		
			<ellipse transform="matrix(0.1249 -0.9922 0.9922 0.1249 254.0029 1293.3745)" class="st3" cx="860.23" cy="502.69" rx="3.99" ry="11.21"/>
		
			<ellipse transform="matrix(0.344 -0.939 0.939 0.344 80.6256 1117.1798)" class="st3" cx="839.81" cy="500.89" rx="2.92" ry="10.98"/>
		
			<ellipse transform="matrix(0.344 -0.939 0.939 0.344 86.5368 1137.9402)" class="st3" cx="857.62" cy="507.04" rx="2.92" ry="10.98"/>
	</g>
</g>
<g id="MasterLayer_1">
</g>
</svg>
