<?xml version="1.0" encoding="utf-8"?>
<!-- Generator: Adobe Illustrator 25.4.1, SVG Export Plug-In . SVG Version: 6.00 Build 0)  -->
<svg version="1.1"
	 id="Layer_1" xmlns:cc="http://creativecommons.org/ns#" xmlns:dc="http://purl.org/dc/elements/1.1/" xmlns:inkscape="http://www.inkscape.org/namespaces/inkscape" xmlns:rdf="http://www.w3.org/1999/02/22-rdf-syntax-ns#" xmlns:svg="http://www.w3.org/2000/svg"
	 xmlns="http://www.w3.org/2000/svg" xmlns:xlink="http://www.w3.org/1999/xlink" x="0px" y="0px" viewBox="0 0 1423.3 571.2"
	 style="enable-background:new 0 0 1423.3 571.2;" xml:space="preserve">
<style type="text/css">
	.st0{fill:none;stroke:#000000;stroke-width:0.5669;stroke-linecap:round;stroke-linejoin:round;stroke-miterlimit:11.3386;}
</style>
<g id="p-1">
	<path class="st0" d="M40,512.1h11.7c0.2,0,0.3-0.1,0.3-0.3v-8.6c0-0.3-0.3,0,0,0h8.3c0.3,0,0-0.3,0,0v8.6c0,0.2,0.1,0.3,0.3,0.3
		h8.8c0.2,0,0.3-0.1,0.3-0.3v-8.6c0-0.3-0.3,0,0,0h8.3c0.3,0,0-0.3,0,0v8.6c0,0.2,0.1,0.3,0.3,0.3H87c0.2,0,0.3-0.1,0.3-0.3v-8.6
		c0-0.3-0.3,0,0,0h8.3c0.3,0,0-0.3,0,0v8.6c0,0.2,0.1,0.3,0.3,0.3h8.8c0.2,0,0.3-0.1,0.3-0.3v-8.6c0-0.3-0.3,0,0,0h8.3
		c0.3,0,0-0.3,0,0v8.6c0,0.2,0.1,0.3,0.3,0.3h8.8c0.2,0,0.3-0.1,0.3-0.3v-8.6c0-0.3-0.3,0,0,0h8.3c0.3,0,0-0.3,0,0v8.6
		c0,0.2,0.1,0.3,0.3,0.3h8.8c0.2,0,0.3-0.1,0.3-0.3v-8.6c0-0.3-0.3,0,0,0h8.3c0.3,0,0-0.3,0,0v8.6c0,0.2,0.1,0.3,0.3,0.3h8.8
		c0.2,0,0.3-0.1,0.3-0.3v-8.6c0-0.3-0.3,0,0,0h8.3c0.3,0,0-0.3,0,0v8.6c0,0.2,0.1,0.3,0.3,0.3h8.8c0.2,0,0.3-0.1,0.3-0.3v-8.6
		c0-0.3-0.3,0,0,0h8.3c0.3,0,0-0.3,0,0v8.6c0,0.2,0.1,0.3,0.3,0.3h8.8c0.2,0,0.3-0.1,0.3-0.3v-8.6c0-0.3-0.3,0,0,0h8.3
		c0.3,0,0-0.3,0,0v8.6c0,0.2,0.1,0.3,0.3,0.3h8.8c0.2,0,0.3-0.1,0.3-0.3v-8.6c0-0.3-0.3,0,0,0h8.3c0.3,0,0-0.3,0,0v8.6
		c0,0.2,0.1,0.3,0.3,0.3h8.8c0.2,0,0.3-0.1,0.3-0.3v-8.6c0-0.3-0.3,0,0,0h8.3c0.3,0,0-0.3,0,0v8.6c0,0.2,0.1,0.3,0.3,0.3h8.8
		c0.2,0,0.3-0.1,0.3-0.3v-8.6c0-0.3-0.3,0,0,0h8.3c0.3,0,0-0.3,0,0v8.6c0,0.2,0.1,0.3,0.3,0.3h11.7h342.3h8.8c0.2,0,0.3-0.1,0.3-0.3
		v-8.8V486c0-0.2-0.1-0.3-0.3-0.3h-8.6c-0.3,0,0,0.3,0,0v-8.3c0-0.3-0.3,0,0,0h8.6c0.2,0,0.3-0.1,0.3-0.3v-8.8
		c0-0.2-0.1-0.3-0.3-0.3h-8.6c-0.3,0,0,0.3,0,0v-8.3c0-0.3-0.3,0,0,0h8.6c0.2,0,0.3-0.1,0.3-0.3v-8.8c0-0.2-0.1-0.3-0.3-0.3h-8.6
		c-0.3,0,0,0.3,0,0v-8.3c0-0.3-0.3,0,0,0h8.6c0.2,0,0.3-0.1,0.3-0.3V433c0-0.2-0.1-0.3-0.3-0.3h-8.6c-0.3,0,0,0.3,0,0v-8.3
		c0-0.3-0.3,0,0,0h8.6c0.2,0,0.3-0.1,0.3-0.3v-8.8c0-0.2-0.1-0.3-0.3-0.3h-8.6c-0.3,0,0,0.3,0,0v-8.3c0-0.3-0.3,0,0,0h8.6
		c0.2,0,0.3-0.1,0.3-0.3v-16.9v-8.8c0-0.2-0.1-0.3-0.3-0.3h-8.8H266.7h-11.7c-0.2,0-0.3,0.1-0.3,0.3v8.6c0,0.3,0.3,0,0,0h-8.3
		c-0.3,0,0,0.3,0,0v-8.6c0-0.2-0.1-0.3-0.3-0.3h-8.8c-0.2,0-0.3,0.1-0.3,0.3v8.6c0,0.3,0.3,0,0,0h-8.3c-0.3,0,0,0.3,0,0v-8.6
		c0-0.2-0.1-0.3-0.3-0.3h-8.8c-0.2,0-0.3,0.1-0.3,0.3v8.6c0,0.3,0.3,0,0,0h-8.3c-0.3,0,0,0.3,0,0v-8.6c0-0.2-0.1-0.3-0.3-0.3H202
		c-0.2,0-0.3,0.1-0.3,0.3v8.6c0,0.3,0.3,0,0,0h-8.3c-0.3,0,0,0.3,0,0v-8.6c0-0.2-0.1-0.3-0.3-0.3h-8.8c-0.2,0-0.3,0.1-0.3,0.3v8.6
		c0,0.3,0.3,0,0,0h-8.3c-0.3,0,0,0.3,0,0v-8.6c0-0.2-0.1-0.3-0.3-0.3h-8.8c-0.2,0-0.3,0.1-0.3,0.3v8.6c0,0.3,0.3,0,0,0h-8.3
		c-0.3,0,0,0.3,0,0v-8.6c0-0.2-0.1-0.3-0.3-0.3h-8.8c-0.2,0-0.3,0.1-0.3,0.3v8.6c0,0.3,0.3,0,0,0h-8.3c-0.3,0,0,0.3,0,0v-8.6
		c0-0.2-0.1-0.3-0.3-0.3h-8.8c-0.2,0-0.3,0.1-0.3,0.3v8.6c0,0.3,0.3,0,0,0h-8.3c-0.3,0,0,0.3,0,0v-8.6c0-0.2-0.1-0.3-0.3-0.3h-8.8
		c-0.2,0-0.3,0.1-0.3,0.3v8.6c0,0.3,0.3,0,0,0H105c-0.3,0,0,0.3,0,0v-8.6c0-0.2-0.1-0.3-0.3-0.3h-8.8c-0.2,0-0.3,0.1-0.3,0.3v8.6
		c0,0.3,0.3,0,0,0h-8.3c-0.3,0,0,0.3,0,0v-8.6c0-0.2-0.1-0.3-0.3-0.3h-8.8c-0.2,0-0.3,0.1-0.3,0.3v8.6c0,0.3,0.3,0,0,0h-8.3
		c-0.3,0,0,0.3,0,0v-8.6c0-0.2-0.1-0.3-0.3-0.3h-8.8c-0.2,0-0.3,0.1-0.3,0.3v8.6c0,0.3,0.3,0,0,0h-8.3c-0.3,0,0,0.3,0,0v-8.6
		c0-0.2-0.1-0.3-0.3-0.3H40h-8.8c-0.2,0-0.3,0.1-0.3,0.3v8.8v16.9c0,0.2,0.1,0.3,0.3,0.3h8.6c0.3,0,0-0.3,0,0v8.3c0,0.3,0.3,0,0,0
		h-8.6c-0.2,0-0.3,0.1-0.3,0.3v8.8c0,0.2,0.1,0.3,0.3,0.3h8.6c0.3,0,0-0.3,0,0v8.3c0,0.3,0.3,0,0,0h-8.6c-0.2,0-0.3,0.1-0.3,0.3v8.8
		c0,0.2,0.1,0.3,0.3,0.3h8.6c0.3,0,0-0.3,0,0v8.3c0,0.3,0.3,0,0,0h-8.6c-0.2,0-0.3,0.1-0.3,0.3v8.8c0,0.2,0.1,0.3,0.3,0.3h8.6
		c0.3,0,0-0.3,0,0v8.3c0,0.3,0.3,0,0,0h-8.6c-0.2,0-0.3,0.1-0.3,0.3v8.8c0,0.2,0.1,0.3,0.3,0.3h8.6c0.3,0,0-0.3,0,0v8.3
		c0,0.3,0.3,0,0,0h-8.6c-0.2,0-0.3,0.1-0.3,0.3v16.9v8.8c0,0.2,0.1,0.3,0.3,0.3H40z"/>
	<path class="st0" d="M272.1,512.1v-61.4 M272.1,441.8v-61.4 M276.5,389.3v114 M280.9,512.1v-61.4 M280.9,441.8v-61.4 M285.3,389.3
		v114 M289.8,512.1v-61.4 M289.8,441.8v-61.4 M294.2,389.3v114 M298.6,512.1v-61.4 M298.6,441.8v-61.4 M303,389.3v114 M307.4,512.1
		v-61.4 M307.4,441.8v-61.4 M311.9,389.3v114 M316.3,512.1v-61.4 M316.3,441.8v-61.4 M320.7,389.3v114 M325.1,512.1v-61.4
		 M325.1,441.8v-61.4 M329.6,389.3v114 M334,512.1v-61.4 M334,441.8v-61.4 M338.4,389.3v114 M342.8,512.1v-61.4 M342.8,441.8v-61.4
		 M347.2,389.3v114 M351.7,512.1v-61.4 M351.7,441.8v-61.4 M356.1,389.3v114 M360.5,512.1v-61.4 M360.5,441.8v-61.4 M364.9,389.3
		v114 M369.4,512.1v-61.4 M369.4,441.8v-61.4 M373.8,389.3v114 M378.2,512.1v-61.4 M378.2,441.8v-61.4 M382.6,389.3v114 M387,512.1
		v-61.4 M387,441.8v-61.4 M391.5,389.3v114 M395.9,512.1v-61.4 M395.9,441.8v-61.4 M400.3,389.3v114 M404.7,512.1v-61.4
		 M404.7,441.8v-61.4 M409.2,389.3v114 M413.6,512.1v-61.4 M413.6,441.8v-61.4 M418,389.3v114 M422.4,512.1v-61.4 M422.4,441.8
		v-61.4 M426.8,389.3v114 M431.3,512.1v-61.4 M431.3,441.8v-61.4 M435.7,389.3v114 M440.1,512.1v-61.4 M440.1,441.8v-61.4
		 M444.5,389.3v114 M449,512.1v-61.4 M449,441.8v-61.4 M453.4,389.3v114 M457.8,512.1v-61.4 M457.8,441.8v-61.4 M462.2,389.3v114
		 M466.6,512.1v-61.4 M466.6,441.8v-61.4 M471.1,389.3v114 M475.5,512.1v-61.4 M475.5,441.8v-61.4 M479.9,389.3v114 M484.3,512.1
		v-61.4 M484.3,441.8v-61.4 M488.8,389.3v114 M493.2,512.1v-61.4 M493.2,441.8v-61.4 M497.6,389.3v114 M502,512.1v-61.4 M502,441.8
		v-61.4 M506.4,389.3v114 M510.9,512.1v-61.4 M510.9,441.8v-61.4 M515.3,389.3v114 M519.7,512.1v-61.4 M519.7,441.8v-61.4
		 M524.1,389.3v114 M528.6,512.1v-61.4 M528.6,441.8v-61.4 M533,389.3v114 M537.4,512.1v-61.4 M537.4,441.8v-61.4 M541.8,389.3v114
		 M546.2,512.1v-61.4 M546.2,441.8v-61.4 M550.7,389.3v114 M555.1,512.1v-61.4 M555.1,441.8v-61.4 M559.5,389.3v114 M563.9,512.1
		v-61.4 M563.9,441.8v-61.4 M568.3,389.3v114 M572.8,512.1v-61.4 M572.8,441.8v-61.4 M577.2,389.3v114 M581.6,512.1v-61.4
		 M581.6,441.8v-61.4 M586,389.3v114 M590.5,512.1v-61.4 M590.5,441.8v-61.4 M594.9,389.3v114 M599.3,512.1v-61.4 M599.3,441.8
		v-61.4 M603.7,389.3v114"/>
	<path class="st0" d="M636.7,512.1H979h11.7c0.2,0,0.3-0.1,0.3-0.3v-8.6c0-0.3-0.3,0,0,0h8.3c0.3,0,0-0.3,0,0v8.6
		c0,0.2,0.1,0.3,0.3,0.3h8.8c0.2,0,0.3-0.1,0.3-0.3v-8.6c0-0.3-0.3,0,0,0h8.3c0.3,0,0-0.3,0,0v8.6c0,0.2,0.1,0.3,0.3,0.3h8.8
		c0.2,0,0.3-0.1,0.3-0.3v-8.6c0-0.3-0.3,0,0,0h8.3c0.3,0,0-0.3,0,0v8.6c0,0.2,0.1,0.3,0.3,0.3h8.8c0.2,0,0.3-0.1,0.3-0.3v-8.6
		c0-0.3-0.3,0,0,0h8.3c0.3,0,0-0.3,0,0v8.6c0,0.2,0.1,0.3,0.3,0.3h8.8c0.2,0,0.3-0.1,0.3-0.3v-8.6c0-0.3-0.3,0,0,0h8.3
		c0.3,0,0-0.3,0,0v8.6c0,0.2,0.1,0.3,0.3,0.3h8.8c0.2,0,0.3-0.1,0.3-0.3v-8.6c0-0.3-0.3,0,0,0h8.3c0.3,0,0-0.3,0,0v8.6
		c0,0.2,0.1,0.3,0.3,0.3h8.8c0.2,0,0.3-0.1,0.3-0.3v-8.6c0-0.3-0.3,0,0,0h8.3c0.3,0,0-0.3,0,0v8.6c0,0.2,0.1,0.3,0.3,0.3h8.8
		c0.2,0,0.3-0.1,0.3-0.3v-8.6c0-0.3-0.3,0,0,0h8.3c0.3,0,0-0.3,0,0v8.6c0,0.2,0.1,0.3,0.3,0.3h8.8c0.2,0,0.3-0.1,0.3-0.3v-8.6
		c0-0.3-0.3,0,0,0h8.3c0.3,0,0-0.3,0,0v8.6c0,0.2,0.1,0.3,0.3,0.3h8.8c0.2,0,0.3-0.1,0.3-0.3v-8.6c0-0.3-0.3,0,0,0h8.3
		c0.3,0,0-0.3,0,0v8.6c0,0.2,0.1,0.3,0.3,0.3h8.8c0.2,0,0.3-0.1,0.3-0.3v-8.6c0-0.3-0.3,0,0,0h8.3c0.3,0,0-0.3,0,0v8.6
		c0,0.2,0.1,0.3,0.3,0.3h8.8c0.2,0,0.3-0.1,0.3-0.3v-8.6c0-0.3-0.3,0,0,0h8.3c0.3,0,0-0.3,0,0v8.6c0,0.2,0.1,0.3,0.3,0.3h11.7
		c0.2,0,0.3-0.1,0.3-0.3v-8.8v-16.6c0-0.3-0.3,0,0,0h8.6c0.2,0,0.3-0.1,0.3-0.3v-8.8c0-0.2-0.1-0.3-0.3-0.3h-8.6c-0.3,0,0,0.3,0,0
		v-8.3c0-0.3-0.3,0,0,0h8.6c0.2,0,0.3-0.1,0.3-0.3v-8.8c0-0.2-0.1-0.3-0.3-0.3h-8.6c-0.3,0,0,0.3,0,0v-8.3c0-0.3-0.3,0,0,0h8.6
		c0.2,0,0.3-0.1,0.3-0.3v-8.8c0-0.2-0.1-0.3-0.3-0.3h-8.6c-0.3,0,0,0.3,0,0v-8.3c0-0.3-0.3,0,0,0h8.6c0.2,0,0.3-0.1,0.3-0.3v-8.8
		c0-0.2-0.1-0.3-0.3-0.3h-8.6c-0.3,0,0,0.3,0,0v-8.3c0-0.3-0.3,0,0,0h8.6c0.2,0,0.3-0.1,0.3-0.3v-8.8c0-0.2-0.1-0.3-0.3-0.3h-8.6
		c-0.3,0,0,0.3,0,0v-16.6v-8.8c0-0.2-0.1-0.3-0.3-0.3h-11.7c-0.2,0-0.3,0.1-0.3,0.3v8.6c0,0.3,0.3,0,0,0h-8.3c-0.3,0,0,0.3,0,0v-8.6
		c0-0.2-0.1-0.3-0.3-0.3h-8.8c-0.2,0-0.3,0.1-0.3,0.3v8.6c0,0.3,0.3,0,0,0h-8.3c-0.3,0,0,0.3,0,0v-8.6c0-0.2-0.1-0.3-0.3-0.3h-8.8
		c-0.2,0-0.3,0.1-0.3,0.3v8.6c0,0.3,0.3,0,0,0h-8.3c-0.3,0,0,0.3,0,0v-8.6c0-0.2-0.1-0.3-0.3-0.3h-8.8c-0.2,0-0.3,0.1-0.3,0.3v8.6
		c0,0.3,0.3,0,0,0h-8.3c-0.3,0,0,0.3,0,0v-8.6c0-0.2-0.1-0.3-0.3-0.3h-8.8c-0.2,0-0.3,0.1-0.3,0.3v8.6c0,0.3,0.3,0,0,0h-8.3
		c-0.3,0,0,0.3,0,0v-8.6c0-0.2-0.1-0.3-0.3-0.3h-8.8c-0.2,0-0.3,0.1-0.3,0.3v8.6c0,0.3,0.3,0,0,0h-8.3c-0.3,0,0,0.3,0,0v-8.6
		c0-0.2-0.1-0.3-0.3-0.3h-8.8c-0.2,0-0.3,0.1-0.3,0.3v8.6c0,0.3,0.3,0,0,0h-8.3c-0.3,0,0,0.3,0,0v-8.6c0-0.2-0.1-0.3-0.3-0.3h-8.8
		c-0.2,0-0.3,0.1-0.3,0.3v8.6c0,0.3,0.3,0,0,0h-8.3c-0.3,0,0,0.3,0,0v-8.6c0-0.2-0.1-0.3-0.3-0.3h-8.8c-0.2,0-0.3,0.1-0.3,0.3v8.6
		c0,0.3,0.3,0,0,0h-8.3c-0.3,0,0,0.3,0,0v-8.6c0-0.2-0.1-0.3-0.3-0.3h-8.8c-0.2,0-0.3,0.1-0.3,0.3v8.6c0,0.3,0.3,0,0,0h-8.3
		c-0.3,0,0,0.3,0,0v-8.6c0-0.2-0.1-0.3-0.3-0.3h-8.8c-0.2,0-0.3,0.1-0.3,0.3v8.6c0,0.3,0.3,0,0,0h-8.3c-0.3,0,0,0.3,0,0v-8.6
		c0-0.2-0.1-0.3-0.3-0.3h-8.8c-0.2,0-0.3,0.1-0.3,0.3v8.6c0,0.3,0.3,0,0,0H991c-0.3,0,0,0.3,0,0v-8.6c0-0.2-0.1-0.3-0.3-0.3H979
		H636.7c-0.2,0-0.3,0.1-0.3,0.3v8.8v16.6c0,0.3,0.3,0,0,0h-8.6c-0.2,0-0.3,0.1-0.3,0.3v8.8c0,0.2,0.1,0.3,0.3,0.3h8.6
		c0.3,0,0-0.3,0,0v8.3c0,0.3,0.3,0,0,0h-8.6c-0.2,0-0.3,0.1-0.3,0.3v8.8c0,0.2,0.1,0.3,0.3,0.3h8.6c0.3,0,0-0.3,0,0v8.3
		c0,0.3,0.3,0,0,0h-8.6c-0.2,0-0.3,0.1-0.3,0.3v8.8c0,0.2,0.1,0.3,0.3,0.3h8.6c0.3,0,0-0.3,0,0v8.3c0,0.3,0.3,0,0,0h-8.6
		c-0.2,0-0.3,0.1-0.3,0.3v8.8c0,0.2,0.1,0.3,0.3,0.3h8.6c0.3,0,0-0.3,0,0v8.3c0,0.3,0.3,0,0,0h-8.6c-0.2,0-0.3,0.1-0.3,0.3v8.8
		c0,0.2,0.1,0.3,0.3,0.3h8.6c0.3,0,0-0.3,0,0v16.6v8.8C636.4,511.9,636.6,512.1,636.7,512.1z"/>
	<path class="st0" d="M642.1,512.1v-61.4 M642.1,441.8v-61.4 M646.5,389.3v114 M650.9,512.1v-61.4 M650.9,441.8v-61.4 M655.3,389.3
		v114 M659.7,512.1v-61.4 M659.7,441.8v-61.4 M664.2,389.3v114 M668.6,512.1v-61.4 M668.6,441.8v-61.4 M673,389.3v114 M677.4,512.1
		v-61.4 M677.4,441.8v-61.4 M681.9,389.3v114 M686.3,512.1v-61.4 M686.3,441.8v-61.4 M690.7,389.3v114 M695.1,512.1v-61.4
		 M695.1,441.8v-61.4 M699.5,389.3v114 M704,512.1v-61.4 M704,441.8v-61.4 M708.4,389.3v114 M712.8,512.1v-61.4 M712.8,441.8v-61.4
		 M717.2,389.3v114 M721.7,512.1v-61.4 M721.7,441.8v-61.4 M726.1,389.3v114 M730.5,512.1v-61.4 M730.5,441.8v-61.4 M734.9,389.3
		v114 M739.3,512.1v-61.4 M739.3,441.8v-61.4 M743.8,389.3v114 M748.2,512.1v-61.4 M748.2,441.8v-61.4 M752.6,389.3v114 M757,512.1
		v-61.4 M757,441.8v-61.4 M761.5,389.3v114 M765.9,512.1v-61.4 M765.9,441.8v-61.4 M770.3,389.3v114 M774.7,512.1v-61.4
		 M774.7,441.8v-61.4 M779.1,389.3v114 M783.6,512.1v-61.4 M783.6,441.8v-61.4 M788,389.3v114 M792.4,512.1v-61.4 M792.4,441.8
		v-61.4 M796.8,389.3v114 M801.3,512.1v-61.4 M801.3,441.8v-61.4 M805.7,389.3v114 M810.1,512.1v-61.4 M810.1,441.8v-61.4
		 M814.5,389.3v114 M818.9,512.1v-61.4 M818.9,441.8v-61.4 M823.4,389.3v114 M827.8,512.1v-61.4 M827.8,441.8v-61.4 M832.2,389.3
		v114 M836.6,512.1v-61.4 M836.6,441.8v-61.4 M841.1,389.3v114 M845.5,512.1v-61.4 M845.5,441.8v-61.4 M849.9,389.3v114
		 M854.3,512.1v-61.4 M854.3,441.8v-61.4 M858.7,389.3v114 M863.2,512.1v-61.4 M863.2,441.8v-61.4 M867.6,389.3v114 M872,512.1
		v-61.4 M872,441.8v-61.4 M876.4,389.3v114 M880.8,512.1v-61.4 M880.8,441.8v-61.4 M885.3,389.3v114 M889.7,512.1v-61.4
		 M889.7,441.8v-61.4 M894.1,389.3v114 M898.5,512.1v-61.4 M898.5,441.8v-61.4 M903,389.3v114 M907.4,512.1v-61.4 M907.4,441.8
		v-61.4 M911.8,389.3v114 M916.2,512.1v-61.4 M916.2,441.8v-61.4 M920.6,389.3v114 M925.1,512.1v-61.4 M925.1,441.8v-61.4
		 M929.5,389.3v114 M933.9,512.1v-61.4 M933.9,441.8v-61.4 M938.3,389.3v114 M942.8,512.1v-61.4 M942.8,441.8v-61.4 M947.2,389.3
		v114 M951.6,512.1v-61.4 M951.6,441.8v-61.4 M956,389.3v114 M960.4,512.1v-61.4 M960.4,441.8v-61.4 M964.9,389.3v114 M969.3,512.1
		v-61.4 M969.3,441.8v-61.4 M973.7,389.3v114"/>
</g>
<g id="p-2">
	<path class="st0" d="M37.5,364.6h11.4c0.3,0,0-0.3,0,0v8.6c0,0.2,0.1,0.3,0.3,0.3H58c0.2,0,0.3-0.1,0.3-0.3v-8.6c0-0.3-0.3,0,0,0
		h8.3c0.3,0,0-0.3,0,0v8.6c0,0.2,0.1,0.3,0.3,0.3h8.8c0.2,0,0.3-0.1,0.3-0.3v-8.6c0-0.3-0.3,0,0,0h8.3c0.3,0,0-0.3,0,0v8.6
		c0,0.2,0.1,0.3,0.3,0.3h8.8c0.2,0,0.3-0.1,0.3-0.3v-8.6c0-0.3-0.3,0,0,0h8.3c0.3,0,0-0.3,0,0v8.6c0,0.2,0.1,0.3,0.3,0.3h8.8
		c0.2,0,0.3-0.1,0.3-0.3v-8.6c0-0.3-0.3,0,0,0h8.3c0.3,0,0-0.3,0,0v8.6c0,0.2,0.1,0.3,0.3,0.3h8.8c0.2,0,0.3-0.1,0.3-0.3v-8.6
		c0-0.3-0.3,0,0,0h8.3c0.3,0,0-0.3,0,0v8.6c0,0.2,0.1,0.3,0.3,0.3h8.8c0.2,0,0.3-0.1,0.3-0.3v-8.6c0-0.3-0.3,0,0,0h8.3
		c0.3,0,0-0.3,0,0v8.6c0,0.2,0.1,0.3,0.3,0.3h8.8c0.2,0,0.3-0.1,0.3-0.3v-8.6c0-0.3-0.3,0,0,0h8.3c0.3,0,0-0.3,0,0v8.6
		c0,0.2,0.1,0.3,0.3,0.3h8.8c0.2,0,0.3-0.1,0.3-0.3v-8.6c0-0.3-0.3,0,0,0h8.3c0.3,0,0-0.3,0,0v8.6c0,0.2,0.1,0.3,0.3,0.3h8.8
		c0.2,0,0.3-0.1,0.3-0.3v-8.6c0-0.3-0.3,0,0,0h8.3c0.3,0,0-0.3,0,0v8.6c0,0.2,0.1,0.3,0.3,0.3h8.8c0.2,0,0.3-0.1,0.3-0.3v-8.6
		c0-0.3-0.3,0,0,0h8.3c0.3,0,0-0.3,0,0v8.6c0,0.2,0.1,0.3,0.3,0.3h8.8c0.2,0,0.3-0.1,0.3-0.3v-8.6c0-0.3-0.3,0,0,0h8.3
		c0.3,0,0-0.3,0,0v8.6c0,0.2,0.1,0.3,0.3,0.3h8.8c0.2,0,0.3-0.1,0.3-0.3v-8.6c0-0.3-0.3,0,0,0h11.4c19.2,0,38-5,54.6-14.6
		c16.6-9.6,30.4-23.4,40-40c9.6-16.6,14.6-35.4,14.6-54.6s-5-38-14.6-54.6c-9.6-16.6-23.4-30.4-40-40c-16.6-9.6-35.4-14.6-54.6-14.6
		h-8.6c-0.3,0,0,0.3,0,0v-8.6c0-19.2-5-38-14.6-54.6c-9.6-16.6-23.4-30.4-40-40c-16.6-9.6-35.4-14.6-54.6-14.6s-38,5-54.6,14.6
		c-16.6,9.6-30.4,23.4-40,40c-9.6,16.6-14.6,35.4-14.6,54.6V149c0,0.3,0.3,0,0,0h-8.6c-0.2,0-0.3,0.1-0.3,0.3v8.8
		c0,0.2,0.1,0.3,0.3,0.3h8.6c0.3,0,0-0.3,0,0v8.3c0,0.3,0.3,0,0,0h-8.6c-0.2,0-0.3,0.1-0.3,0.3v8.8c0,0.2,0.1,0.3,0.3,0.3h8.6
		c0.3,0,0-0.3,0,0v8.3c0,0.3,0.3,0,0,0h-8.6c-0.2,0-0.3,0.1-0.3,0.3v8.8c0,0.2,0.1,0.3,0.3,0.3h8.6c0.3,0,0-0.3,0,0v8.3
		c0,0.3,0.3,0,0,0h-8.6c-0.2,0-0.3,0.1-0.3,0.3v8.8c0,0.2,0.1,0.3,0.3,0.3h8.6c0.3,0,0-0.3,0,0v8.3c0,0.3,0.3,0,0,0h-8.6
		c-0.2,0-0.3,0.1-0.3,0.3v8.8c0,0.2,0.1,0.3,0.3,0.3h8.6c0.3,0,0-0.3,0,0v8.3c0,0.3,0.3,0,0,0h-8.6c-0.2,0-0.3,0.1-0.3,0.3v8.8
		c0,0.2,0.1,0.3,0.3,0.3h8.6c0.3,0,0-0.3,0,0v8.3c0,0.3,0.3,0,0,0h-8.6c-0.2,0-0.3,0.1-0.3,0.3v8.8c0,0.2,0.1,0.3,0.3,0.3h8.6
		c0.3,0,0-0.3,0,0v8.3c0,0.3,0.3,0,0,0h-8.6c-0.2,0-0.3,0.1-0.3,0.3v8.8c0,0.2,0.1,0.3,0.3,0.3h8.6c0.3,0,0-0.3,0,0v8.3
		c0,0.3,0.3,0,0,0h-8.6c-0.2,0-0.3,0.1-0.3,0.3v8.8c0,0.2,0.1,0.3,0.3,0.3h8.6c0.3,0,0-0.3,0,0v8.3c0,0.3,0.3,0,0,0h-8.6
		c-0.2,0-0.3,0.1-0.3,0.3v8.8c0,0.2,0.1,0.3,0.3,0.3h8.6c0.3,0,0-0.3,0,0v8.3c0,0.3,0.3,0,0,0h-8.6c-0.2,0-0.3,0.1-0.3,0.3v8.8
		c0,0.2,0.1,0.3,0.3,0.3h8.6c0.3,0,0-0.3,0,0v8.3c0,0.3,0.3,0,0,0h-8.6c-0.2,0-0.3,0.1-0.3,0.3v8.8c0,0.2,0.1,0.3,0.3,0.3h8.6
		c0.3,0,0-0.3,0,0v11.4C37.2,364.5,37.3,364.6,37.5,364.6"/>
</g>
<g id="p-3">
	<path class="st0" d="M713.9,364.6h-11.4c-0.3,0,0-0.3,0,0v8.6c0,0.2-0.1,0.3-0.3,0.3h-8.8c-0.2,0-0.3-0.1-0.3-0.3v-8.6
		c0-0.3,0.3,0,0,0h-8.3c-0.3,0,0-0.3,0,0v8.6c0,0.2-0.1,0.3-0.3,0.3h-8.8c-0.2,0-0.3-0.1-0.3-0.3v-8.6c0-0.3,0.3,0,0,0h-8.3
		c-0.3,0,0-0.3,0,0v8.6c0,0.2-0.1,0.3-0.3,0.3H658c-0.2,0-0.3-0.1-0.3-0.3v-8.6c0-0.3,0.3,0,0,0h-8.3c-0.3,0,0-0.3,0,0v8.6
		c0,0.2-0.1,0.3-0.3,0.3h-8.8c-0.2,0-0.3-0.1-0.3-0.3v-8.6c0-0.3,0.3,0,0,0h-8.3c-0.3,0,0-0.3,0,0v8.6c0,0.2-0.1,0.3-0.3,0.3h-8.8
		c-0.2,0-0.3-0.1-0.3-0.3v-8.6c0-0.3,0.3,0,0,0h-8.3c-0.3,0,0-0.3,0,0v8.6c0,0.2-0.1,0.3-0.3,0.3H605c-0.2,0-0.3-0.1-0.3-0.3v-8.6
		c0-0.3,0.3,0,0,0h-8.3c-0.3,0,0-0.3,0,0v8.6c0,0.2-0.1,0.3-0.3,0.3h-8.8c-0.2,0-0.3-0.1-0.3-0.3v-8.6c0-0.3,0.3,0,0,0h-8.3
		c-0.3,0,0-0.3,0,0v8.6c0,0.2-0.1,0.3-0.3,0.3h-8.8c-0.2,0-0.3-0.1-0.3-0.3v-8.6c0-0.3,0.3,0,0,0H561c-0.3,0,0-0.3,0,0v8.6
		c0,0.2-0.1,0.3-0.3,0.3h-8.8c-0.2,0-0.3-0.1-0.3-0.3v-8.6c0-0.3,0.3,0,0,0h-8.3c-0.3,0,0-0.3,0,0v8.6c0,0.2-0.1,0.3-0.3,0.3h-8.8
		c-0.2,0-0.3-0.1-0.3-0.3v-8.6c0-0.3,0.3,0,0,0h-8.3c-0.3,0,0-0.3,0,0v8.6c0,0.2-0.1,0.3-0.3,0.3h-8.8c-0.2,0-0.3-0.1-0.3-0.3v-8.6
		c0-0.3,0.3,0,0,0H508c-0.3,0,0-0.3,0,0v8.6c0,0.2-0.1,0.3-0.3,0.3h-8.8c-0.2,0-0.3-0.1-0.3-0.3v-8.6c0-0.3,0.3,0,0,0h-11.4
		c-19.2,0-38-5-54.6-14.6c-16.6-9.6-30.4-23.4-40-40c-9.6-16.6-14.6-35.4-14.6-54.6s5-38,14.6-54.6c9.6-16.6,23.4-30.4,40-40
		c16.6-9.6,35.4-14.6,54.6-14.6h8.6c0.3,0,0,0.3,0,0v-8.6c0-19.2,5-38,14.6-54.6c9.6-16.6,23.4-30.4,40-40
		c16.6-9.6,35.4-14.6,54.6-14.6s38,5,54.6,14.6c16.6,9.6,30.4,23.4,40,40c9.6,16.6,14.6,35.4,14.6,54.6V149c0,0.3-0.3,0,0,0h8.6
		c0.2,0,0.3,0.1,0.3,0.3v8.8c0,0.2-0.1,0.3-0.3,0.3h-8.6c-0.3,0,0-0.3,0,0v8.3c0,0.3-0.3,0,0,0h8.6c0.2,0,0.3,0.1,0.3,0.3v8.8
		c0,0.2-0.1,0.3-0.3,0.3h-8.6c-0.3,0,0-0.3,0,0v8.3c0,0.3-0.3,0,0,0h8.6c0.2,0,0.3,0.1,0.3,0.3v8.8c0,0.2-0.1,0.3-0.3,0.3h-8.6
		c-0.3,0,0-0.3,0,0v8.3c0,0.3-0.3,0,0,0h8.6c0.2,0,0.3,0.1,0.3,0.3v8.8c0,0.2-0.1,0.3-0.3,0.3h-8.6c-0.3,0,0-0.3,0,0v8.3
		c0,0.3-0.3,0,0,0h8.6c0.2,0,0.3,0.1,0.3,0.3v8.8c0,0.2-0.1,0.3-0.3,0.3h-8.6c-0.3,0,0-0.3,0,0v8.3c0,0.3-0.3,0,0,0h8.6
		c0.2,0,0.3,0.1,0.3,0.3v8.8c0,0.2-0.1,0.3-0.3,0.3h-8.6c-0.3,0,0-0.3,0,0v8.3c0,0.3-0.3,0,0,0h8.6c0.2,0,0.3,0.1,0.3,0.3v8.8
		c0,0.2-0.1,0.3-0.3,0.3h-8.6c-0.3,0,0-0.3,0,0v8.3c0,0.3-0.3,0,0,0h8.6c0.2,0,0.3,0.1,0.3,0.3v8.8c0,0.2-0.1,0.3-0.3,0.3h-8.6
		c-0.3,0,0-0.3,0,0v8.3c0,0.3-0.3,0,0,0h8.6c0.2,0,0.3,0.1,0.3,0.3v8.8c0,0.2-0.1,0.3-0.3,0.3h-8.6c-0.3,0,0-0.3,0,0v8.3
		c0,0.3-0.3,0,0,0h8.6c0.2,0,0.3,0.1,0.3,0.3v8.8c0,0.2-0.1,0.3-0.3,0.3h-8.6c-0.3,0,0-0.3,0,0v8.3c0,0.3-0.3,0,0,0h8.6
		c0.2,0,0.3,0.1,0.3,0.3v8.8c0,0.2-0.1,0.3-0.3,0.3h-8.6c-0.3,0,0-0.3,0,0v8.3c0,0.3-0.3,0,0,0h8.6c0.2,0,0.3,0.1,0.3,0.3v8.8
		c0,0.2-0.1,0.3-0.3,0.3h-8.6c-0.3,0,0-0.3,0,0v11.4C714.2,364.5,714.1,364.6,713.9,364.6"/>
</g>
<g>
	<path d="M154.5,154.5c2.3,2.3,3.5,3.7,3.6,4.1c0.1,0.5-3.3,8-10.3,22.5c-7,14.5-11.3,24-13.1,28.4l2.7,2.7
		c-0.3,0.8-0.8,1.5-1.3,2.1c-0.5,0.5-0.9,0.7-1.3,0.7c-0.4,0-0.8-0.3-1.4-0.8l-12.6-12.6c0.4-0.9,0.9-1.7,1.5-2.2
		c0.4-0.4,0.8-0.6,1.2-0.6c0.4,0,0.8,0.3,1.3,0.8l1.6,1.6c1.4-2.1,3.7-6.4,7.1-12.9L120,174.6c-6.3,3.5-10.5,6-12.6,7.4l2.8,2.8
		c-0.3,0.8-0.8,1.5-1.3,2.1c-0.5,0.5-0.9,0.7-1.3,0.7c-0.4,0-0.8-0.3-1.4-0.8l-11.1-11.2c0.4-0.9,0.9-1.6,1.5-2.2
		c0.4-0.4,0.8-0.6,1.2-0.6c0.4,0,0.8,0.3,1.3,0.8l1.8,1.8c4.9-2.2,13.5-6.4,25.9-12.6c12.4-6.2,19.6-9.6,21.7-10.3
		C150.6,151.9,152.6,152.6,154.5,154.5z M124.8,171.9l11.4,11.4c7.6-15,11.3-22.6,11-22.8C147,160.2,139.5,164,124.8,171.9z"/>
	<path d="M180,180.9l12.4,12.5c-2.4,4.4-5.4,10-8.9,17c-3.5,7-6.4,12.6-8.8,16.8c-2.3,4.3-3.4,6.5-3.3,6.6c0.1,0.1,5.7-2.7,16.7-8.5
		c11-5.8,18.7-10.1,23.2-12.9l12.3,12.3c-0.3,0.8-0.8,1.5-1.3,2.1c-0.5,0.5-0.9,0.7-1.3,0.7c-0.4,0-0.8-0.3-1.4-0.8l-2-2
		c-3.7,3.5-9.5,9.4-17.4,17.8c-8,8.3-13.2,14-15.7,16.9l2.9,2.9c-0.3,0.8-0.8,1.5-1.3,2.1c-0.5,0.5-0.9,0.7-1.3,0.7
		c-0.4,0-0.9-0.3-1.4-0.8l-11.9-11.9c0.4-0.9,0.9-1.7,1.5-2.2c0.4-0.4,0.8-0.6,1.2-0.6c0.4,0,0.8,0.3,1.3,0.8l1.8,1.8
		c3.6-3.2,13.8-13.6,30.8-31.1c-7.4,4.3-15.2,8.4-23.3,12.4c-8.1,4-13.1,6.2-14.9,6.7c-1.8,0.4-3.4-0.1-4.9-1.6
		c-2.1-2.1-3.3-3.4-3.4-3.8c-0.1-0.4,2-5.2,6.2-14.3c4.2-9.1,8.7-17.9,13.6-26.4c-17.4,17.3-27.7,27.7-31,31.2l2.8,2.8
		c-0.3,0.8-0.8,1.5-1.3,2.1c-0.5,0.5-0.9,0.7-1.3,0.7c-0.4,0-0.8-0.3-1.4-0.8l-11.1-11.2c0.4-0.9,0.9-1.6,1.5-2.2
		c0.4-0.4,0.8-0.6,1.2-0.6c0.4,0,0.8,0.3,1.3,0.8l2.2,2.2c2.9-2.5,8.6-7.7,16.9-15.7c8.4-8,14.3-13.7,17.9-17.4l-3.1-3.1
		c0.4-0.9,0.9-1.6,1.5-2.2c0.4-0.4,0.8-0.6,1.2-0.6C179.1,180.2,179.5,180.4,180,180.9z"/>
	<path d="M246.7,246.6c4.4,4.4,7.2,7.7,8.4,9.9c1.2,2.2,1.1,4-0.3,5.4c-1.3,1.3-3,1.9-5.1,1.8c-2.4-6.1-5.4-11-9-14.6
		c-2.6-2.6-4.9-3.9-6.9-4c-2-0.1-3.9,0.8-5.7,2.5c-1.8,1.8-2.6,3.9-2.4,6.2c0.2,2.3,1.5,5.8,4,10.4c3,5.4,4.7,9.9,5.3,13.7
		c0.6,3.7-0.8,7.4-4.2,11c-3.9,3.9-8.3,5.5-13.1,4.7c-4.8-0.8-10-4-15.7-9.7c-4-4-6.7-7.3-8.2-9.9c-1.5-2.6-1.5-4.7,0-6.1
		c1.3-1.3,3.1-1.9,5.3-1.8c1.9,6.1,5,11.3,9.3,15.6c3,3,5.5,4.6,7.7,4.9c2.2,0.3,4.3-0.5,6.2-2.4c2.3-2.3,3.2-5,2.6-8
		c-0.6-3-2.3-7.1-5.1-12.2c-2.7-5-4-9.1-3.9-12.5c0.1-3.3,1.5-6.4,4.3-9.1c3.5-3.4,7.5-4.9,12.2-4.2
		C236.9,238.8,241.8,241.6,246.7,246.6z"/>
	<g>
		<ellipse transform="matrix(0.9826 -0.1856 0.1856 0.9826 -45.2007 55.2815)" cx="272.7" cy="269.1" rx="15.2" ry="1.8"/>
		
			<ellipse transform="matrix(6.176865e-02 -0.9981 0.9981 6.176865e-02 5.4693 518.4054)" cx="278.5" cy="256.3" rx="12.5" ry="4.4"/>
		<ellipse transform="matrix(0.9054 -0.4246 0.4246 0.9054 -91.2778 146.5173)" cx="283.1" cy="278.1" rx="4.3" ry="12.7"/>
		<ellipse transform="matrix(0.9751 -0.2217 0.2217 0.9751 -50.2937 66.8202)" cx="272.5" cy="257.5" rx="3.2" ry="12.4"/>
		<ellipse transform="matrix(0.9751 -0.2217 0.2217 0.9751 -54.75 68.4508)" cx="277.6" cy="278.1" rx="3.2" ry="12.4"/>
	</g>
</g>
</svg>
