<?xml version="1.0" encoding="utf-8"?>
<!-- Generator: Adobe Illustrator 25.4.1, SVG Export Plug-In . SVG Version: 6.00 Build 0)  -->
<svg version="1.1" id="Layer_1" xmlns="http://www.w3.org/2000/svg" xmlns:xlink="http://www.w3.org/1999/xlink" x="0px" y="0px"
	 viewBox="0 0 1728 864" style="enable-background:new 0 0 1728 864;" xml:space="preserve">
<style type="text/css">
	.st0{fill:#FFFFFF;stroke:#000000;stroke-miterlimit:10;}
	.st1{stroke:#000000;stroke-miterlimit:10;}
	.st2{fill:none;stroke:#000000;stroke-miterlimit:10;}
	.st3{fill:#FFFFFF;}
	.st4{font-family:'AmericanTypewriter';}
	.st5{font-size:26px;}
	.st6{enable-background:new    ;}
	.st7{fill:none;stroke:#000000;stroke-width:0.75;stroke-miterlimit:10;}
</style>
<g>
	<g id="Example_1">
		<path class="st0" d="M875.8,610.4"/>
	</g>
	<circle class="st1" cx="758.4" cy="559.6" r="18.3"/>
	<path class="st2" d="M576.2,106.2h364.5c13.6,0,24.7,11,24.7,24.7v480.8H551.5V130.8C551.5,117.2,562.6,106.2,576.2,106.2z"/>
	<rect x="614.4" y="146.1" class="st2" width="288" height="288"/>
	<g>
		<g>
			<path class="st3" d="M616.6,408.5c0-24.7,0-49.4,0-74.1c94.6,0,189.1,0,283.7,0c0,31.3,0,62.5,0,93.8c-94.6,0-189.1,0-283.7,0
				c0-6.2,0-12.5,0-18.8c0.8,0.1,1.6,0.5,2.3,0.3c5-1,10-1.7,15.2-1.4c0.4,0,0.9,0.3,1.3,0.6c0.8,0.7,1.4,1.5,2.3,2.4
				c-0.4,1.2,0.4,2.2,1.3,3.2c0.8,1,1.7,2,2,3.1c0.7,2.8,3.1,3.6,5,4.8c3.1-2.9,1.3-5.4-0.4-7.7c1.4-0.6,2.8-1.2,4.4-2
				c0,1.3,0.1,2.2,0,3.2c-0.1,1.7-0.3,3.4-0.5,5.1c-0.1,0.7-0.2,1.4,0.8,1.7c0.4,0.1,0.6,0.6,0.8,0.9c1.3-0.9,2.3-0.1,3.1,0.7
				c0.4-0.2,0.8-0.3,1.3-0.6c0-0.1,0-0.6,0.2-0.9c1.1-1.3,0.7-2.5,0.1-3.8c-0.4-0.9-0.7-1.8-1-2.7c-0.1-0.2-0.2-0.6-0.1-0.7
				c1-0.6,0.4-1.2,0.1-1.7c-0.6-1.1-0.7-1.9,0.3-2.8c0.8-0.7,1.6-1.5,2.4-2.3c0.1-0.1,0.5,0,0.7,0.2c2.1,1.1,4.2,2.2,6.3,3.3
				c0.3,0.2,0.7,0.7,0.7,1c0.1,2.1,0,4.3,0,6.4c0,1.4,0.5,2.2,1.9,2.5c0.7,0.1,1.2,0.6,2,1.1c0.1-0.1,0.3-0.3,0.5-0.6
				c0.1,0.3,0.3,0.5,0.4,0.9c0.5-0.9,0.9-1.7,1.4-2.5c0.4,0.3,0.7,0.5,1,0.7c-0.1-1.1-0.3-2.1-0.8-3c-1.4-2.5-2-5-1.7-7.8
				c0.2-2.3,0.4-4.5,0.8-6.7c0.7-3.3,1.7-6.4,2.2-9.7c0.5-2.9,1.2-5.7,2.4-8.4c0.6-1.3,1.1-2.9,1.1-4.3c0.3-6.2-0.7-12.2-3.9-17.8
				c-0.6-1.1-0.9-2.7-0.6-3.9c1.1-4.2,1.5-8.4,1.8-12.7c0-0.6,0.4-1.4,0.9-1.8c2.8-1.9,3.7-4.7,4.2-7.8c0.2-1.5-0.3-2.1-1.9-2.3
				c-1.1-0.1-2.3-0.3-3.4-0.5c-2.6-0.5-4.3,0.2-5.5,2.6c-0.5,1-1.1,1-2.1,1c-1.6-0.1-3.2-0.2-4.8,0c-1.3,0.2-1.9-0.1-2.5-1.3
				c-1.1-2.4-3.3-3.3-5.4-2.8c-0.9,0.2-1.8,0.3-2.6,0.3c-1.3,0-1.9,0.6-1.8,1.8c0.1,1.6,0.3,3.1,0.4,4.7c0,0.1,0.1,0.3,0.1,0.4
				c0.3-0.1,0.5-0.3,0.6-0.3c0.7,1,1.3,2,1.9,2.9c0.5,0.8,1.2,1.7,1.2,2.6c0,4.7,0.9,9.2,2.2,13.7c0.1,0.5,0.3,1.1,0.1,1.5
				c-1.7,3.5-2.5,7.5-5.3,10.4c-3.6,3.7-6.1,8.1-7.9,12.9c-1.8,4.7-3.5,9.5-5.2,14.3c-0.4,1.1-1.1,2.1-1.3,3.2
				c-0.2,1.4-1,1.5-2.2,1.7c-4.5,0.4-9,0.9-13.5,1.4C618.3,406.5,617.2,407.2,616.6,408.5z M776.4,421.1c1.4-0.2,2.4-0.4,3.4-0.6
				c1-0.1,2.1,0.1,2.6-1.1c0.5-1.3-0.5-1.9-1.3-2.6c-0.3-0.3-0.7-0.4-0.9-0.8c-0.3-0.5-0.6-1.2-0.4-1.6c0.8-2.6,1.7-5.3,2.7-7.8
				c0.6-1.4,1.6-2.6,2.4-3.8c0.2,0.1,0.3,0.1,0.5,0.2c2.1,5.4,4.1,10.8,6.2,16.2c0.3,0.8,0.7,1.9,1.4,2.2c1.8,0.7,2.4,2.3,3.3,3.7
				c0.6,0.9,1.6,2.1,2.6,2.3c1.7,0.3,3.6,0.1,5.4-0.2c0.6-0.1,1.7-0.9,1.6-1.2c-0.3-1.1-0.8-2.7-1.5-3c-4.1-1.4-6.1-4.5-7.1-8.4
				c-1.3-5-2.5-10-3.6-15c-0.5-2.2-0.9-4.6-0.5-6.7c0.8-4,0.6-7.9-0.5-11.8c-1.7-6.1-2.3-12.3-0.6-18.5c0.1-0.5,0.5-1.2,0.9-1.4
				c2.7-1.5,3.9-4.1,5.1-6.7c0.7-1.6,0.3-2.8-1.3-3.7c-1.3-0.8-2.6-1.8-4-2.4c-2.2-0.9-4.4-2.1-6.6-2.3c-3.7-0.3-7.5,0-11.2,0.5
				c-4.1,0.6-6.8,3.4-8.2,7.1c-1.2,3.2,1,5.6,2.6,8.4c0.4-0.6,0.7-1,0.9-1.4c-0.2,4.4-1.1,8.4-3.8,11.7c-2.7,3.4-5.5,6.7-8.2,10.1
				c-0.7,0.9-1.5,1.8-2,2.8c-2.5,5.4-5,10.9-7.4,16.4c-2.1,4.6-4.3,9.3-3.8,14.6c0.1,0.9,0.4,2,1,2.6c1.7,2,3.5,4,5.5,5.8
				c1.2,1.1,2.8,2.2,4.4,2.4c5,0.9,10.1,1.5,15.1-0.4c0.6-0.2,1.4,0,2.1,0.1c2,0.3,4,0.8,6.1,0.9c0.7,0,1.9-0.7,2.1-1.3
				c0.2-0.6-0.5-1.7-1.1-2.2C779.3,423.1,778,422.3,776.4,421.1z M880.6,389.3c1.3-0.6,2.5-1.4,2.4-2.7c-0.2-1.5,0.4-2.5,1.1-3.6
				c1.2-1.9,0.9-3.5-0.6-5c-0.6-0.6-1.2-1.2-1.7-1.9c-6.6-8.1-16.4-8.7-23.6-1.2c-1.9,2-3.2,4.7-4.7,7.1c-1.6,2.5-1.5,3.8,0.6,5.8
				c0.7,0.6,0.8,1.2,0.1,1.8c-1.3,1.2-2.7,2.4-4.2,3.4c-2,1.3-4.2,1.9-6.6,1.5c-3.1-0.5-6.2,0.6-9.3-0.8c-0.5-0.2-1.3,0-1.9,0.3
				c-1.3,0.6-2.7,1.3-3.7,2.2c-4.3,3.7-7,8.3-8.1,13.8c-0.4,1.9-1.1,3.5-2.5,4.9c-0.9,0.9-1.7,2-2.2,3.2c-0.3,0.6,0,2,0.4,2.2
				c2.3,1.3,4.6,2.5,7.4,1.9c0.8-0.2,1.5-0.7,2.7-1.2c1.1-0.1,2.6-0.4,4.2-0.3c3.4,0.2,6.8,0.7,10.2,1.1c2.4,0.3,4.9,0.2,7.2,0.7
				c3.5,0.8,6.9,2,10.4,3c0.5,0.2,1.2,0.3,1.5,0.6c1.3,1.7,3.2,1.4,5,1.5c1.6,0,3.2,0,4.8-0.2c0.8-0.1,1.2-0.7,1-1.5
				c-0.5-1.4-1-2.8-1.6-4.6c1.9-0.5,4-1.3,6.2-1.6c1.2-0.2,3,0.2,3.5,1c1.2,1.8,2.9,2.3,4.8,2.7c1.2,0.3,2.7-0.1,3.2,1.7
				c0,0.1,0.3,0.2,0.5,0.3c2.9,0.4,5.8,0.9,8.8,1.1c1.6,0.1,3.2-0.3,4.1-1.9c-0.9-2.4-2.5-4.1-5.2-4.6c-1-0.2-2.1-0.3-3.1-0.7
				c-0.8-0.3-1.7-0.7-2.1-1.3c-1.4-2.4-2.6-5-3.8-7.5c-0.1-0.2-0.1-0.6-0.1-0.9c-0.5-6-0.6-12.2-3.8-17.7
				C881.4,391.1,881.1,390.2,880.6,389.3z M704.9,359.9c1.1,2,1.5,3.9,1.1,5.8c-0.5,2.2-1.2,4.3-1.9,6.5c-1.6,4.9-3.6,9.7-2.8,15.1
				c0.3,1.7-0.4,3.3-1.2,4.9c-4,7.3-3.8,15.2-2.5,23.1c0.3,1.6,0.7,3.1,0.1,4.7c-0.5,1.3,0.1,2.2,1.1,3c2,1.5,4.3,1.8,6.7,1.5
				c2.2-0.3,2.2-0.2,2.3-2.4c0-0.7,0.1-1.3,1-1.3c2.6,0,5.3,0,7.9,0c0.4,0,1,0.4,1.1,0.7c0.4,2.1,1.9,2.7,3.8,2.6c1,0,1.9,0,2.9,0
				c1.8,0,2.5-1.2,3.1-2.6c0.6-1.4-0.2-2.2-1.1-3c-0.4-0.4-0.7-0.7-1.2-0.9c-1.4-0.6-1.4-1.5-1.1-2.8c1.2-4,1.6-8,0.7-12.1
				c-1.5-6.3-1.6-12.6-1-19.1c0.5-5.9-0.4-11.6-3.6-16.8c-0.3-0.4-0.3-1.1-0.2-1.6c0.4-1.9,1-3.7,1.6-6c0.9,2.4,1.6,4.4,2.3,6.4
				c0.2,0,0.4,0,0.6,0c1.4-2.1,2.9-4.1,4.2-6.2c0.8-1.4,0.4-3-0.9-4.1c-3.1-2.7-6.4-5-10.6-5.9c-5.6-1.1-10.7-0.6-15,3.6
				c-0.5,0.5-1.1,0.8-1.7,1.2c-2.1,1.3-2.3,2.3-1.2,4.5c0.8,1.6,1.4,3.3,2.1,5c0.2,0.6,0.5,1.2,0.8,2
				C703.3,363.9,704.1,362,704.9,359.9z"/>
			<path d="M616.6,408.5c0.6-1.3,1.6-2,3-2.1c4.5-0.5,9-1,13.5-1.4c1.2-0.1,1.9-0.3,2.2-1.7c0.2-1.1,0.9-2.1,1.3-3.2
				c1.7-4.8,3.4-9.6,5.2-14.3c1.8-4.8,4.4-9.2,7.9-12.9c2.8-2.9,3.6-6.9,5.3-10.4c0.2-0.4,0.1-1-0.1-1.5c-1.3-4.5-2.2-9-2.2-13.7
				c0-0.9-0.7-1.8-1.2-2.6c-0.6-1-1.2-1.9-1.9-2.9c-0.1,0-0.3,0.2-0.6,0.3c0-0.1-0.1-0.3-0.1-0.4c-0.1-1.6-0.3-3.1-0.4-4.7
				c-0.1-1.3,0.5-1.8,1.8-1.8c0.9,0,1.8-0.1,2.6-0.3c2.2-0.6,4.3,0.4,5.4,2.8c0.6,1.2,1.2,1.4,2.5,1.3c1.6-0.2,3.2-0.1,4.8,0
				c1,0.1,1.6,0,2.1-1c1.2-2.3,3-3.1,5.5-2.6c1.1,0.2,2.3,0.4,3.4,0.5c1.6,0.2,2.1,0.7,1.9,2.3c-0.4,3.1-1.4,5.9-4.2,7.8
				c-0.5,0.3-0.9,1.2-0.9,1.8c-0.3,4.3-0.7,8.5-1.8,12.7c-0.3,1.2,0,2.8,0.6,3.9c3.1,5.6,4.1,11.5,3.9,17.8c-0.1,1.5-0.5,3-1.1,4.3
				c-1.2,2.7-2,5.4-2.4,8.4c-0.5,3.3-1.6,6.4-2.2,9.7c-0.4,2.2-0.6,4.5-0.8,6.7c-0.3,2.8,0.4,5.4,1.7,7.8c0.5,0.9,0.7,1.9,0.8,3
				c-0.3-0.2-0.6-0.4-1-0.7c-0.4,0.8-0.9,1.6-1.4,2.5c-0.2-0.4-0.3-0.6-0.4-0.9c-0.2,0.3-0.5,0.5-0.5,0.6c-0.7-0.4-1.3-0.9-2-1.1
				c-1.4-0.3-1.9-1.2-1.9-2.5c0-2.1,0.1-4.3,0-6.4c0-0.4-0.4-0.8-0.7-1c-2.1-1.1-4.2-2.2-6.3-3.3c-0.2-0.1-0.6-0.2-0.7-0.2
				c-0.8,0.7-1.6,1.5-2.4,2.3c-1,0.9-0.9,1.8-0.3,2.8c0.3,0.5,1,1.2-0.1,1.7c-0.1,0,0,0.5,0.1,0.7c0.3,0.9,0.6,1.8,1,2.7
				c0.6,1.3,1,2.5-0.1,3.8c-0.2,0.3-0.2,0.8-0.2,0.9c-0.5,0.2-0.9,0.4-1.3,0.6c-0.9-0.8-1.8-1.6-3.1-0.7c-0.3-0.3-0.5-0.8-0.8-0.9
				c-1-0.3-0.9-1-0.8-1.7c0.2-1.7,0.4-3.4,0.5-5.1c0.1-0.9,0-1.9,0-3.2c-1.6,0.7-3,1.3-4.4,2c1.7,2.3,3.5,4.8,0.4,7.7
				c-1.9-1.2-4.2-2-5-4.8c-0.3-1.1-1.2-2.2-2-3.1c-0.9-1.1-1.7-2-1.3-3.2c-0.8-0.9-1.5-1.7-2.3-2.4c-0.3-0.3-0.8-0.5-1.3-0.6
				c-5.1-0.3-10.2,0.4-15.2,1.4c-0.7,0.1-1.6-0.2-2.3-0.3C616.6,409.1,616.6,408.8,616.6,408.5z M666.9,394
				c-1.8,1.2-3.5,2.4-5.3,3.6c0.3,0.4,0.8,1,1.2,1.6c1.4,2,1.3,3.2-0.4,4.9c-0.7,0.7-1.3,1.5-2.2,2.6c2.1,0.8,3.8,1.5,6.2,2.4
				C666.6,403.7,666.7,398.8,666.9,394z"/>
			<path d="M776.4,421.1c1.6,1.2,2.8,1.9,3.9,2.9c0.6,0.6,1.2,1.6,1.1,2.2c-0.2,0.6-1.4,1.4-2.1,1.3c-2-0.1-4.1-0.6-6.1-0.9
				c-0.7-0.1-1.5-0.4-2.1-0.1c-5,1.9-10.1,1.3-15.1,0.4c-1.6-0.3-3.2-1.4-4.4-2.4c-2-1.8-3.8-3.8-5.5-5.8c-0.6-0.7-0.9-1.7-1-2.6
				c-0.5-5.3,1.7-9.9,3.8-14.6c2.4-5.5,4.9-10.9,7.4-16.4c0.5-1,1.3-1.9,2-2.8c2.7-3.4,5.5-6.7,8.2-10.1c2.7-3.4,3.6-7.4,3.8-11.7
				c-0.3,0.4-0.5,0.8-0.9,1.4c-1.6-2.8-3.7-5.2-2.6-8.4c1.4-3.8,4.1-6.5,8.2-7.1c3.7-0.5,7.5-0.8,11.2-0.5c2.3,0.2,4.5,1.4,6.6,2.3
				c1.4,0.6,2.7,1.6,4,2.4c1.5,0.9,2,2.1,1.3,3.7c-1.2,2.6-2.4,5.2-5.1,6.7c-0.4,0.2-0.7,0.9-0.9,1.4c-1.6,6.2-1.1,12.4,0.6,18.5
				c1.1,3.9,1.3,7.8,0.5,11.8c-0.4,2.1,0.1,4.5,0.5,6.7c1.1,5,2.3,10,3.6,15c1,3.9,2.9,7,7.1,8.4c0.8,0.3,1.2,1.9,1.5,3
				c0.1,0.2-1,1.1-1.6,1.2c-1.8,0.2-3.7,0.5-5.4,0.2c-1-0.2-1.9-1.3-2.6-2.3c-0.9-1.4-1.4-3-3.3-3.7c-0.7-0.3-1.1-1.4-1.4-2.2
				c-2.1-5.4-4.1-10.8-6.2-16.2c-0.2-0.1-0.3-0.1-0.5-0.2c-0.8,1.3-1.9,2.4-2.4,3.8c-1.1,2.5-1.9,5.2-2.7,7.8
				c-0.1,0.5,0.2,1.1,0.4,1.6c0.2,0.3,0.6,0.5,0.9,0.8c0.7,0.7,1.8,1.3,1.3,2.6c-0.5,1.2-1.6,1-2.6,1.1
				C778.8,420.7,777.8,420.9,776.4,421.1z"/>
			<path d="M880.6,389.3c0.5,1,0.8,1.9,1.3,2.7c3.2,5.5,3.3,11.6,3.8,17.7c0,0.3,0,0.6,0.1,0.9c1.2,2.5,2.4,5.1,3.8,7.5
				c0.4,0.6,1.3,1,2.1,1.3c1,0.4,2.1,0.5,3.1,0.7c2.6,0.5,4.2,2.2,5.2,4.6c-0.9,1.6-2.5,2.1-4.1,1.9c-2.9-0.2-5.8-0.7-8.8-1.1
				c-0.2,0-0.5-0.1-0.5-0.3c-0.4-1.8-2-1.4-3.2-1.7c-1.9-0.4-3.6-0.9-4.8-2.7c-0.5-0.8-2.4-1.2-3.5-1c-2.2,0.3-4.3,1.1-6.2,1.6
				c0.6,1.7,1.1,3.1,1.6,4.6c0.3,0.9-0.1,1.5-1,1.5c-1.6,0.1-3.2,0.2-4.8,0.2c-1.8-0.1-3.7,0.2-5-1.5c-0.3-0.4-1-0.5-1.5-0.6
				c-3.5-1-6.9-2.2-10.4-3c-2.3-0.5-4.8-0.5-7.2-0.7c-3.4-0.4-6.8-0.8-10.2-1.1c-1.5-0.1-3.1,0.2-4.2,0.3c-1.1,0.5-1.9,1.1-2.7,1.2
				c-2.7,0.6-5.1-0.7-7.4-1.9c-0.4-0.2-0.7-1.6-0.4-2.2c0.5-1.2,1.3-2.3,2.2-3.2c1.4-1.4,2.1-3,2.5-4.9c1.1-5.5,3.8-10.1,8.1-13.8
				c1.1-0.9,2.4-1.6,3.7-2.2c0.5-0.3,1.4-0.5,1.9-0.3c3,1.4,6.2,0.3,9.3,0.8c2.4,0.4,4.6-0.2,6.6-1.5c1.5-1,2.8-2.2,4.2-3.4
				c0.6-0.6,0.5-1.1-0.1-1.8c-2.1-2-2.2-3.3-0.6-5.8c1.6-2.4,2.8-5.1,4.7-7.1c7.2-7.5,17-6.9,23.6,1.2c0.5,0.7,1.1,1.3,1.7,1.9
				c1.5,1.5,1.8,3.2,0.6,5c-0.7,1.1-1.3,2.1-1.1,3.6C883.1,387.9,882,388.7,880.6,389.3z"/>
			<path d="M704.9,359.9c-0.8,2.1-1.6,3.9-2.5,6.1c-0.3-0.8-0.5-1.5-0.8-2c-0.7-1.7-1.3-3.4-2.1-5c-1.1-2.2-0.9-3.2,1.2-4.5
				c0.6-0.4,1.2-0.7,1.7-1.2c4.3-4.2,9.4-4.7,15-3.6c4.2,0.8,7.5,3.2,10.6,5.9c1.3,1.1,1.7,2.7,0.9,4.1c-1.3,2.1-2.8,4.1-4.2,6.2
				c-0.2,0-0.4,0-0.6,0c-0.7-2-1.4-4-2.3-6.4c-0.6,2.2-1.2,4.1-1.6,6c-0.1,0.5,0,1.2,0.2,1.6c3.2,5.2,4.1,10.9,3.6,16.8
				c-0.6,6.4-0.5,12.7,1,19.1c0.9,4.1,0.5,8.1-0.7,12.1c-0.4,1.3-0.3,2.2,1.1,2.8c0.4,0.2,0.8,0.6,1.2,0.9c0.8,0.8,1.7,1.6,1.1,3
				c-0.6,1.4-1.3,2.7-3.1,2.6c-1,0-1.9,0-2.9,0c-1.9,0.1-3.4-0.5-3.8-2.6c-0.1-0.3-0.7-0.7-1.1-0.7c-2.6-0.1-5.3,0-7.9,0
				c-1,0-1,0.5-1,1.3c-0.1,2.2-0.1,2.1-2.3,2.4c-2.5,0.3-4.7,0-6.7-1.5c-1-0.8-1.5-1.7-1.1-3c0.5-1.6,0.1-3.1-0.1-4.7
				c-1.3-7.9-1.5-15.8,2.5-23.1c0.9-1.6,1.5-3.2,1.2-4.9c-0.9-5.4,1.1-10.2,2.8-15.1c0.7-2.1,1.5-4.3,1.9-6.5
				C706.5,363.8,706,361.9,704.9,359.9z"/>
			<path class="st3" d="M666.9,394c-0.2,4.9-0.4,9.8-0.6,15.1c-2.3-0.9-4.1-1.6-6.2-2.4c0.9-1.1,1.5-1.9,2.2-2.6
				c1.7-1.7,1.8-2.9,0.4-4.9c-0.4-0.6-0.9-1.2-1.2-1.6C663.4,396.4,665.2,395.2,666.9,394z"/>
		</g>
	</g>
	<text transform="matrix(-1 0 0 1 902.4482 471.2822)" class="st4 st5">for my dogs</text>
	<g class="st6">
		<path class="st7" d="M893.4,456.7c-0.2,0.2-0.5,0.3-0.9,0.3c-0.4,0-0.7-0.1-0.9-0.4c-0.2-0.2-0.4-0.5-0.4-0.9c0-0.7,0.3-1.3,1-1.8
			c0.7-0.4,1.5-0.7,2.6-0.7c1.3,0,2.4,0.4,3.1,1.1s1.1,1.8,1.1,3.1v0.5c0,0.2,0.1,0.3,0.3,0.3h1.5c0.6,0,0.9,0.3,0.9,0.9
			c0,0.6-0.3,1-0.9,1h-1.3c-0.3,0-0.5,0.2-0.5,0.5v5.5c0,1.6,0.1,2.6,0.2,3c0.1,0.4,0.3,0.6,0.6,0.6c0.2,0,0.4,0,0.6-0.1
			c0.2-0.1,0.4-0.1,0.6-0.1c0.2,0,0.5,0.1,0.6,0.3c0.2,0.2,0.3,0.4,0.3,0.6c0,0.6-0.4,0.9-1.1,0.9c-0.2,0-0.6,0-1.3-0.1
			c-0.4-0.1-0.9-0.1-1.4-0.1c-0.3,0-0.7,0-1.3,0.1c-0.6,0.1-1,0.1-1.3,0.1c-0.7,0-1.1-0.3-1.1-0.9c0-0.6,0.3-0.9,0.9-0.9
			c0.1,0,0.3,0,0.5,0.1c0.3,0.1,0.6,0.1,0.7,0.1c0.3,0,0.6-0.2,0.7-0.7c0-0.1,0-0.5,0-1.1v-7.3c0-0.3-0.1-0.5-0.4-0.5h-1.9
			c-0.6,0-0.9-0.3-0.9-0.9s0.3-0.9,0.9-0.9h2c0.2,0,0.3-0.1,0.3-0.3v-0.5c0-0.8-0.2-1.5-0.6-2s-1-0.7-1.8-0.7c-0.6,0-1,0.1-1.3,0.4
			c0.2,0.2,0.3,0.4,0.3,0.6C893.7,456.2,893.6,456.5,893.4,456.7z"/>
		<path class="st7" d="M882.6,469.8c-1.1-1.3-1.7-3-1.7-5.1c0-2.1,0.5-3.8,1.6-5c1.1-1.2,2.6-1.8,4.5-1.8c1.9,0,3.3,0.6,4.4,1.9
			s1.7,2.9,1.7,5.1c0,2.1-0.5,3.8-1.6,5.1c-1.1,1.3-2.5,1.9-4.4,1.9C885.2,471.7,883.7,471.1,882.6,469.8z M883,464.8
			c0,1.6,0.4,2.9,1.1,3.9c0.7,0.9,1.7,1.4,3,1.4c1.2,0,2.2-0.5,2.9-1.4c0.7-0.9,1-2.2,1-3.8v-0.3c-0.1-1.6-0.5-2.8-1.1-3.6
			c-0.7-0.8-1.6-1.3-2.9-1.3C884.3,459.6,883,461.3,883,464.8z"/>
		<path class="st7" d="M875.6,458.3c0.2,0,0.4,0,0.5,0.1c0.3,0,0.5,0.1,0.7,0.1c0.2,0,0.4,0,0.8-0.1c0.3,0,0.6-0.1,0.8-0.1
			c0.7,0,1.1,0.3,1.1,0.9c0,0.6-0.3,0.8-0.9,0.8c-0.1,0-0.3,0-0.6-0.1s-0.4-0.1-0.6-0.1c-0.5,0-0.7,0.5-0.8,1.5l-0.1,5.9v1.3
			c0,0.8,0.3,1.2,0.7,1.2c0.1,0,0.2,0,0.4-0.1l0.4-0.1c0.1,0,0.2,0,0.4,0c0.7,0,1,0.3,1,0.8c0,0.6-0.4,0.9-1.1,0.9l-1.5-0.1
			c-0.4,0-0.9-0.1-1.6-0.1c-0.3,0-0.7,0-1.2,0.1c-0.5,0.1-0.9,0.1-1.2,0.1h-0.1c-0.7,0-1.1-0.3-1.1-0.9c0-0.5,0.3-0.8,0.8-0.8
			c0.1,0,0.3,0,0.5,0.1c0.2,0.1,0.5,0.1,0.7,0.1c0.5,0,0.7-0.5,0.8-1.5c0-0.1,0-0.8,0-1.9v-1.7c0-1.5-0.1-2.6-0.4-3.4
			c-0.5-1.2-1.4-1.8-2.7-1.8c-0.7,0-1.2,0.2-1.7,0.5c-0.4,0.3-0.7,0.8-0.7,1.3c0,0.2,0.1,0.4,0.2,0.6c0.2-0.1,0.3-0.1,0.3-0.1
			c0.3,0,0.5,0.1,0.7,0.3c0.2,0.2,0.3,0.5,0.3,0.7c0,0.3-0.1,0.6-0.4,0.9c-0.3,0.2-0.6,0.4-1,0.4c-0.6,0-1.1-0.2-1.5-0.7
			c-0.4-0.5-0.6-1.1-0.6-1.9c0-1.1,0.4-2,1.1-2.6s1.7-1,3-1c1.5,0,2.7,0.6,3.6,1.9V459C874.9,458.5,875.1,458.3,875.6,458.3z"/>
		<path class="st7" d="M856.3,458.3L856.3,458.3l0.7,0.1c0,0,0.1,0,0.2,0s0.2,0,0.3,0c0.2,0,0.5,0,0.9-0.1c0.3,0,0.6-0.1,0.8-0.1
			c0.7,0,1.1,0.3,1.1,0.9c0,0.6-0.3,0.8-1,0.8c-0.1,0-0.2,0-0.4-0.1c-0.4-0.1-0.7-0.1-0.7-0.1c-0.3,0-0.6,0.2-0.6,0.5
			c-0.1,0.4-0.1,1.3-0.1,2.8v4v1.5c0,0.8,0.3,1.3,0.8,1.3c0.1,0,0.1,0,0.1,0l0.7-0.1c0,0,0.1,0,0.2,0c0.1,0,0.1,0,0.2,0
			c0.7,0,1,0.3,1,0.8c0,0.6-0.3,0.9-1,0.9c-0.2,0-0.6,0-1.4-0.1c-0.6-0.1-0.9-0.1-1.1-0.1c-0.4,0-0.9,0-1.5,0.1
			c-0.4,0.1-0.8,0.1-1.1,0.1c-0.8,0-1.2-0.3-1.2-0.8c0-0.6,0.3-0.9,1-0.9c0.1,0,0.1,0,0.2,0c0.1,0,0.1,0,0.2,0
			c0.3,0.1,0.5,0.1,0.5,0.1c0.3,0,0.5-0.3,0.6-0.9c0-0.1,0-0.5,0-1.2v-3.5c0-1.7-0.3-2.9-0.8-3.6c-0.6-0.8-1.5-1.3-2.6-1.3
			c-1,0-1.8,0.3-2.2,0.9c-0.4,0.6-0.6,1.6-0.6,3.2v2.2c0,0,0,0.2,0,0.5c0,0.4,0,0.7,0,1.1l0.1,1.2c0,0.9,0.2,1.3,0.7,1.3
			c0.1,0,0.3,0,0.5-0.1c0.1,0,0.3-0.1,0.4-0.1c0.5,0,0.8,0.3,0.8,0.8c0,0.6-0.4,0.9-1.1,0.9c-0.3,0-0.7,0-1.1-0.1
			c-0.4-0.1-0.8-0.1-1.2-0.1c-0.3,0-0.6,0-1.2,0.1s-0.9,0.1-1.2,0.1c-0.8,0-1.2-0.3-1.2-0.8c0-0.2,0.1-0.4,0.2-0.6
			c0.2-0.2,0.4-0.2,0.6-0.2c0.1,0,0.3,0,0.5,0.1c0.2,0,0.4,0.1,0.5,0.1c0.3,0,0.5-0.2,0.6-0.6s0.1-1.4,0.1-3.1v-1.8
			c0-1.7-0.2-2.9-0.6-3.5c-0.5-0.8-1.3-1.3-2.6-1.3c-0.6,0-1.2,0.2-1.7,0.5c-0.5,0.3-0.8,0.7-1,1.3c-0.2,0.5-0.3,1.4-0.3,2.6v1.7
			v1.6c0,1.2,0.1,1.9,0.1,2.2s0.3,0.4,0.6,0.4c0.2,0,0.3,0,0.4-0.1c0.3,0,0.5-0.1,0.5-0.1c0.6,0,0.8,0.3,0.8,0.8
			c0,0.6-0.4,0.9-1.1,0.9c-0.3,0-0.7,0-1.3-0.1c-0.6-0.1-1-0.1-1.3-0.1c-0.3,0-0.7,0-1.2,0.1c-0.5,0.1-0.9,0.1-1.2,0.1
			c-0.7,0-1-0.3-1-0.9c0-0.5,0.3-0.8,0.9-0.8c0.1,0,0.3,0,0.5,0.1c0.2,0.1,0.4,0.1,0.5,0.1c0.4,0,0.6-0.3,0.7-0.9c0-0.2,0-0.6,0-1.3
			v-2v-2.5c0-1.2,0.1-2.1,0.3-2.7c0.3-0.9,0.9-1.5,1.8-2c0.8-0.4,1.7-0.6,2.7-0.6c1,0,1.7,0.1,2.3,0.4c0.6,0.3,1.2,0.8,1.8,1.5
			c0.8-1.3,2-2,3.7-2c0.8,0,1.5,0.1,2.1,0.4c0.6,0.3,1.1,0.8,1.8,1.5v-0.8C855.7,458.6,855.9,458.3,856.3,458.3z"/>
		<path class="st7" d="M832,460.3c0-0.2-0.1-0.4-0.4-0.4c-0.1,0-0.3,0-0.5,0.1c-0.2,0-0.4,0.1-0.5,0.1c-0.7,0-1-0.3-1-0.9
			c0-0.6,0.4-0.9,1.1-0.9c0.2,0,0.5,0,1.1,0.1c0.7,0.1,1.4,0.1,2,0.1c0.1,0,0.2,0,0.3,0c0.1,0,0.2,0,0.2,0l1-0.2c0.1,0,0.3,0,0.6,0
			c0.8,0,1.2,0.3,1.2,0.9c0,0.6-0.3,0.8-0.9,0.8c-0.1,0-0.3,0-0.5-0.1s-0.5-0.1-0.6-0.1c-0.4,0-0.7,0.4-1,1.2l-0.3,0.8l-2.9,7.2
			c-0.5,1.2-0.7,2-0.7,2.4c0,0.8,0.4,1.6,1.1,2.3c0.7,0.7,1.6,1,2.5,1c0.7,0,1.2-0.2,1.5-0.6c-0.5-0.2-0.8-0.5-0.8-1.1
			c0-0.3,0.1-0.6,0.4-0.9c0.3-0.2,0.6-0.4,1-0.4c0.5,0,0.9,0.2,1.2,0.5c0.3,0.3,0.5,0.8,0.5,1.3c0,0.8-0.4,1.4-1.1,1.9
			s-1.6,0.8-2.7,0.8c-1.8,0-3.2-0.8-4.4-2.3c-0.7-0.9-1.4-2.3-2.2-4.3l-3.5-8.8c-0.3-0.9-0.7-1.3-1-1.3c-0.1,0-0.2,0-0.5,0.1
			c-0.1,0-0.2,0.1-0.4,0.1c-0.6,0-0.9-0.3-0.9-0.8c0-0.6,0.4-0.9,1.1-0.9c0.3,0,0.7,0,1.3,0.1s1,0.1,1.3,0.1c0.3,0,0.5,0,0.8-0.1
			l0.9-0.1c0.2,0,0.4-0.1,0.5-0.1c0.7,0,1.1,0.3,1.1,0.9c0,0.6-0.3,0.8-0.9,0.8c-0.1,0-0.3,0-0.5-0.1c-0.1,0-0.3-0.1-0.5-0.1
			c-0.4,0-0.6,0.1-0.6,0.4c0,0.1,0,0.3,0.1,0.6l3.2,8.7l3-8.8C832,460.6,832,460.4,832,460.3z"/>
		<path class="st7" d="M812.3,459.7c1.1,1.3,1.6,2.9,1.6,5c0,2.1-0.5,3.8-1.6,5c-1.1,1.3-2.5,1.9-4.3,1.9c-1.7,0-3.1-0.6-4-1.8v0.4
			v0.1c0,0.6-0.2,0.9-0.7,0.9c-0.2,0-0.3,0-0.5-0.1c-0.3,0-0.5-0.1-0.6-0.1c-0.2,0-0.4,0-0.8,0.1s-0.6,0.1-0.8,0.1
			c-0.8,0-1.2-0.3-1.2-0.9c0-0.6,0.3-0.9,1-0.9c0.1,0,0.3,0,0.6,0.1c0.1,0,0.3,0.1,0.5,0.1c0.3,0,0.5-0.1,0.6-0.4
			c0.1-0.3,0.1-1,0.2-2.1v-4.3v-2.6c0-0.5,0-1.1-0.1-2c-0.1-1.2-0.1-1.9-0.1-2c0-0.9,0-1.3-0.1-1.4v-0.3c0-0.7,0.2-1,0.7-1
			c0.2,0,0.4,0,0.7,0.1c0.3,0,0.5,0.1,0.7,0.1c0,0,0.3,0,0.9-0.1c0.4,0,0.6-0.1,0.8-0.1c0.9,0,1.3,0.3,1.3,0.9c0,0.6-0.3,0.8-1,0.8
			c-0.1,0-0.3,0-0.6-0.1c-0.3-0.1-0.4-0.1-0.6-0.1c-0.4,0-0.6,0.3-0.7,0.8c0,0.2-0.1,0.6-0.1,1.3v2.6c0.8-1.3,2.1-2,3.8-2
			C809.8,457.8,811.2,458.5,812.3,459.7z M805.4,469.2c0.6,0.5,1.4,0.8,2.4,0.8c1.2,0,2.2-0.5,2.9-1.4c0.7-0.9,1.1-2.2,1.1-3.9
			c0-1.6-0.3-2.9-1-3.8c-0.7-0.9-1.6-1.4-2.9-1.4c-0.9,0-1.7,0.3-2.4,0.9c-0.6,0.5-1,1.2-1.1,2c-0.1,0.4-0.1,1.2-0.1,2.4
			c0,0.9,0,1.6,0.1,2.2C804.4,467.9,804.8,468.6,805.4,469.2z"/>
		<path class="st7" d="M787.8,469.8c-1.1-1.3-1.7-3-1.7-5.1c0-2.1,0.5-3.8,1.6-5c1.1-1.2,2.6-1.8,4.5-1.8c1.9,0,3.3,0.6,4.4,1.9
			c1.1,1.3,1.7,2.9,1.7,5.1c0,2.1-0.5,3.8-1.6,5.1c-1.1,1.3-2.5,1.9-4.4,1.9C790.4,471.7,788.9,471.1,787.8,469.8z M788.2,464.8
			c0,1.6,0.4,2.9,1.1,3.9c0.7,0.9,1.7,1.4,3,1.4c1.2,0,2.2-0.5,2.9-1.4c0.7-0.9,1-2.2,1-3.8v-0.3c-0.1-1.6-0.5-2.8-1.1-3.6
			c-0.7-0.8-1.6-1.3-2.9-1.3C789.5,459.6,788.2,461.3,788.2,464.8z"/>
		<path class="st7" d="M781.3,459c0.9,0.8,1.4,1.8,1.4,2.9c0,0.8-0.2,1.5-0.7,2.1c1.4,0.5,2.1,1.3,2.1,2.5c0,1.1-0.7,1.9-2.1,2.5
			c1.6,0.6,2.4,1.6,2.4,3c0,1.2-0.6,2.2-1.7,2.9s-2.7,1-4.7,1s-3.6-0.4-4.7-1.1c-1.2-0.7-1.8-1.7-1.8-3c0-0.8,0.3-1.5,0.8-2.1
			c0.6-0.6,1.3-1.1,2.3-1.4c1-0.3,2.4-0.5,4-0.5c0,0,0.1,0,0.3,0c0.2,0,0.3,0,0.5,0h0.2c1.8,0,2.7-0.5,2.7-1.4
			c0-0.3-0.1-0.5-0.3-0.8c-0.2-0.2-0.4-0.3-0.7-0.3c-0.2,0-0.4,0.1-0.7,0.2c-1,0.5-2,0.7-3,0.7c-1.4,0-2.5-0.4-3.4-1.2
			c-0.9-0.8-1.4-1.8-1.4-3c0-1.5,0.7-2.7,2-3.6c0-1.1-0.5-1.7-1.4-1.7c-0.4,0-0.8,0.2-1.1,0.5c0.4,0.3,0.6,0.6,0.6,0.9
			c0,0.3-0.1,0.5-0.3,0.7c-0.2,0.2-0.5,0.3-0.7,0.3c-0.4,0-0.7-0.1-0.9-0.4c-0.3-0.3-0.4-0.7-0.4-1.1c0-0.6,0.3-1.2,0.8-1.6
			c0.5-0.4,1.2-0.6,2-0.6c1.9,0,2.9,0.8,3,2.5c0.6-0.1,1.1-0.2,1.5-0.2C779.3,457.8,780.4,458.2,781.3,459z M774.6,470.3
			c-0.8,0.4-1.1,1-1.1,1.7c0,0.7,0.4,1.2,1.2,1.7c0.8,0.4,1.9,0.6,3.3,0.6c1.3,0,2.4-0.2,3.1-0.6c0.8-0.4,1.2-1,1.2-1.7
			c0-0.7-0.4-1.3-1.2-1.7c-0.8-0.4-1.9-0.6-3.3-0.6C776.4,469.6,775.4,469.8,774.6,470.3z M775.8,460.3c-0.6,0.5-0.8,1.1-0.8,1.8
			c0,0.7,0.3,1.3,0.8,1.8c0.5,0.5,1.3,0.7,2.1,0.7c0.8,0,1.5-0.2,2-0.7c0.5-0.5,0.8-1.1,0.8-1.8v-0.2c-0.1-0.7-0.3-1.2-0.9-1.7
			s-1.2-0.7-2-0.7C777,459.6,776.3,459.8,775.8,460.3z"/>
		<path class="st7" d="M768,459c0.9,0.8,1.4,1.7,1.4,3c0,1.3-0.5,2.2-1.4,2.7c-0.9,0.5-2.3,0.9-4.1,1.1c-1.9,0.2-2.8,0.9-2.8,2.1
			c0,0.7,0.3,1.2,0.8,1.6s1.3,0.6,2.1,0.6c1.2,0,2.1-0.2,2.9-0.7c0.8-0.5,1.2-1.1,1.2-1.8c0-0.7,0.1-1.2,0.2-1.4s0.3-0.3,0.7-0.3
			c0.6,0,0.8,0.3,0.8,0.9c0,0.2,0,0.5-0.1,0.9c-0.1,0.4-0.1,0.8-0.1,1.2c0,0.2,0,0.5,0.1,0.7c0.1,1,0.2,1.5,0.2,1.4
			c0,0.7-0.3,1.1-1,1.1c-0.6,0-0.9-0.3-0.9-0.9c0-0.2,0-0.3,0-0.5c-1.1,0.8-2.3,1.2-3.7,1.2c-1.5,0-2.8-0.4-3.7-1.2
			c-1-0.8-1.4-1.8-1.4-3c0-2,1.5-3.3,4.4-3.7l1.5-0.2c1.5-0.2,2.3-0.9,2.3-2c0-0.6-0.3-1.1-0.8-1.5c-0.5-0.4-1.2-0.6-2-0.6
			c-0.8,0-1.5,0.2-2,0.6c-0.6,0.4-0.9,0.8-0.9,1.3v0.9c0,0.6-0.3,0.8-0.8,0.8c-0.6,0-0.8-0.3-0.8-1c0-0.2,0-0.5,0.1-0.9
			c0-0.4,0.1-0.7,0.1-0.9c0-0.3,0-0.7-0.1-1c0-0.4,0-0.7,0-0.8c0-0.6,0.3-0.8,0.9-0.8c0.6,0,0.8,0.3,0.8,1v0.1
			c0.8-0.6,1.7-0.9,2.9-0.9C765.9,457.8,767.1,458.2,768,459z"/>
	</g>
	<g class="st6">
		<path d="M900.5,487.2c0.6,0.5,0.9,1.2,0.9,2c0,0.5-0.1,0.9-0.4,1.3c-0.2,0.4-0.6,0.7-1,0.8c-0.4,0.2-1.1,0.3-1.8,0.5l-0.8,0.1
			c-1.1,0.2-1.7,0.7-1.7,1.6c0,0.6,0.2,1,0.6,1.4s1,0.5,1.7,0.5c0.8,0,1.4-0.2,1.8-0.6c0.4-0.4,0.7-1,0.7-1.7c0-0.1,0-0.2,0-0.3
			v-0.3c0-0.4,0.2-0.6,0.5-0.6c0.4,0,0.5,0.2,0.5,0.6c0,0.2,0,0.5-0.1,0.8c-0.1,0.4-0.1,0.7-0.1,0.8c0,0.1,0,0.3,0,0.7l0.1,0.7
			c0,0,0,0.1,0,0.1c0,0.4-0.2,0.6-0.6,0.6c-0.3,0-0.5-0.2-0.5-0.5c0,0,0-0.1,0.1-0.3c0,0,0,0,0-0.1c0,0,0-0.1,0-0.1
			c-0.7,0.7-1.6,1-2.6,1c-1,0-1.8-0.3-2.4-0.8c-0.6-0.6-0.9-1.3-0.9-2.1c0-0.8,0.3-1.5,0.9-1.9c0.4-0.3,1.2-0.5,2.3-0.7
			c0.7-0.1,1.3-0.3,1.6-0.4c0.5-0.3,0.8-0.7,0.8-1.3c0-0.5-0.2-0.9-0.5-1.2s-0.8-0.4-1.4-0.4c-0.7,0-1.2,0.2-1.6,0.5
			c-0.4,0.3-0.6,0.8-0.6,1.3c0,0.1,0,0.2,0,0.3l0,0.4v0.1c0,0.4-0.2,0.6-0.5,0.6c-0.3,0-0.5-0.2-0.5-0.7c0-0.1,0-0.1,0-0.2l0-0.6
			c0-0.3,0-0.4,0-0.4c0-0.4,0-0.7,0-0.9c0-0.3,0-0.4,0-0.4v-0.1c0-0.4,0.2-0.6,0.5-0.6c0.3,0,0.4,0.2,0.4,0.5v0.2
			c0.6-0.6,1.3-0.9,2.2-0.9C899.1,486.4,899.9,486.7,900.5,487.2z"/>
		<path d="M885.8,494.9v-0.8V494c0-0.4,0.2-0.7,0.5-0.7c0.3,0,0.4,0.1,0.4,0.4v0.7c0,0.6,0.2,0.9,0.5,0.9c0.3,0,0.4-0.2,0.5-0.5
			c0-0.1,0-0.3,0-0.8v-2.8c0-1.6,0.8-2.4,2.5-2.4c0.7,0,1.4,0.2,1.9,0.6c0.5,0.4,0.8,0.8,0.8,1.3c0,0.2-0.1,0.4-0.2,0.6
			c-0.2,0.2-0.4,0.3-0.6,0.3c-0.2,0-0.4-0.1-0.5-0.2c-0.1-0.1-0.2-0.3-0.2-0.5c0-0.2,0.1-0.4,0.2-0.5c0.1-0.1,0.1-0.1,0.1-0.1
			c0-0.1-0.1-0.2-0.2-0.3c-0.4-0.2-0.8-0.4-1.2-0.4c-0.5,0-0.8,0.1-1.1,0.3c-0.3,0.2-0.4,0.5-0.4,0.9c0,0.4,0.1,0.7,0.4,0.8
			c0.2,0.1,0.7,0.3,1.5,0.3c0.6,0.1,0.9,0.1,1.1,0.2c0.2,0,0.4,0.1,0.7,0.3c0.7,0.4,1,0.9,1,1.7c0,0.6-0.2,1.1-0.7,1.5
			s-1.1,0.6-1.8,0.6c-1,0-1.8-0.4-2.2-1c-0.2,0.7-0.6,1-1.4,1C886.3,496.2,885.8,495.8,885.8,494.9z M889.3,494.8
			c0.4,0.3,0.9,0.5,1.5,0.5c0.4,0,0.8-0.1,1-0.3s0.4-0.5,0.4-0.8c0-0.7-0.5-1.1-1.6-1.2c-0.6-0.1-1-0.1-1.2-0.2
			c-0.2-0.1-0.4-0.2-0.6-0.4v1C888.8,494,889,494.5,889.3,494.8z"/>
		<path d="M884.5,489.8c0.6,0.7,0.9,1.6,0.9,2.7c0,1.1-0.3,2-0.9,2.7s-1.3,1-2.3,1c-0.9,0-1.7-0.3-2.2-1v0.2v0.1
			c0,0.3-0.1,0.5-0.4,0.5c-0.1,0-0.2,0-0.3,0c-0.2,0-0.3,0-0.3,0c-0.1,0-0.2,0-0.4,0c-0.2,0-0.3,0-0.4,0c-0.4,0-0.6-0.2-0.6-0.5
			c0-0.3,0.2-0.5,0.5-0.5c0.1,0,0.2,0,0.3,0c0.1,0,0.2,0,0.3,0c0.2,0,0.3-0.1,0.3-0.2c0-0.2,0.1-0.5,0.1-1.2v-2.3v-1.4
			c0-0.2,0-0.6,0-1.1c0-0.7,0-1,0-1.1c0-0.5,0-0.7,0-0.7v-0.2c0-0.4,0.1-0.6,0.4-0.6c0.1,0,0.2,0,0.4,0c0.2,0,0.3,0,0.4,0
			c0,0,0.2,0,0.5,0c0.2,0,0.3,0,0.4,0c0.5,0,0.7,0.2,0.7,0.5c0,0.3-0.2,0.4-0.5,0.4c-0.1,0-0.2,0-0.3,0c-0.1,0-0.2,0-0.3,0
			c-0.2,0-0.3,0.1-0.4,0.4c0,0.1,0,0.3,0,0.7v1.4c0.5-0.7,1.1-1.1,2.1-1.1C883.2,488.8,883.9,489.1,884.5,489.8z M880.8,494.9
			c0.3,0.3,0.8,0.4,1.3,0.4c0.7,0,1.2-0.3,1.6-0.8c0.4-0.5,0.6-1.2,0.6-2.1c0-0.9-0.2-1.5-0.6-2c-0.4-0.5-0.9-0.7-1.5-0.7
			c-0.5,0-0.9,0.2-1.3,0.5c-0.3,0.3-0.5,0.6-0.6,1.1c0,0.2-0.1,0.6-0.1,1.3c0,0.5,0,0.9,0.1,1.2
			C880.2,494.2,880.4,494.6,880.8,494.9z"/>
		<path d="M874.7,490.8c0-0.5,0-0.8,0-0.9c0,0,0-0.1,0-0.2c0-0.1,0-0.1,0-0.2c0-0.4,0.1-0.5,0.4-0.5c0.1,0,0.2,0,0.3,0
			c0.2,0,0.3,0,0.3,0c0.1,0,0.3,0,0.6-0.1c0.1,0,0.2,0,0.4,0c0.4,0,0.6,0.2,0.6,0.5c0,0.3-0.2,0.4-0.5,0.4c-0.1,0-0.2,0-0.3,0
			c-0.1,0-0.2,0-0.3,0c-0.2,0-0.4,0.3-0.4,0.9c0,0,0,0.4,0,1.2v1.1c0,0.8,0,1.2,0,1.2c0,0.6,0.2,0.9,0.4,0.9c0.1,0,0.2,0,0.3,0
			c0.1,0,0.3,0,0.3,0c0.3,0,0.5,0.2,0.5,0.5c0,0.3-0.2,0.5-0.6,0.5c-0.1,0-0.4,0-0.7-0.1c-0.3,0-0.6-0.1-0.8-0.1
			c-0.2,0-0.4,0-0.7,0.1s-0.5,0.1-0.7,0.1c-0.2,0-0.3,0-0.4-0.1s-0.2-0.2-0.2-0.3c0-0.3,0.2-0.5,0.5-0.5c0.1,0,0.2,0,0.2,0
			c0.2,0,0.3,0.1,0.3,0.1c0.2,0,0.3-0.2,0.4-0.6c0-0.1,0-0.4,0-0.8V492C874.7,491.6,874.7,491.2,874.7,490.8z M874.8,488.1
			c-0.2-0.2-0.2-0.3-0.2-0.6s0.1-0.4,0.2-0.5s0.3-0.2,0.6-0.2s0.4,0.1,0.6,0.2c0.2,0.1,0.2,0.3,0.2,0.5s-0.1,0.4-0.2,0.6
			c-0.2,0.2-0.3,0.2-0.6,0.2S875,488.2,874.8,488.1z"/>
		<path d="M867.1,489.7c0.6-0.6,1.3-0.9,2.2-0.9c1,0,1.8,0.4,2.4,1.1s0.9,1.6,0.9,2.8c0,1.1-0.3,2-0.9,2.7c-0.6,0.7-1.4,1-2.3,1
			c-0.8,0-1.5-0.2-2.1-0.7c-0.6-0.5-0.9-1-0.9-1.6c0-0.4,0.2-0.5,0.5-0.5c0.2,0,0.4,0.1,0.5,0.3l0.1,0.4c0.1,0.3,0.3,0.6,0.7,0.9
			c0.3,0.2,0.7,0.3,1.1,0.3c0.6,0,1.1-0.2,1.6-0.7s0.6-1,0.6-1.8c0-0.1,0-0.1-0.1-0.2c0,0-0.1,0-0.2,0h-4.5c-0.2,0-0.4,0-0.4-0.1
			s-0.1-0.3-0.1-0.7C866.2,491,866.5,490.3,867.1,489.7z M870.7,490.3c-0.4-0.4-0.9-0.6-1.4-0.6c-0.5,0-0.9,0.2-1.3,0.5
			c-0.4,0.4-0.6,0.8-0.6,1.3c0,0.1,0.1,0.2,0.3,0.2h3.3c0.2,0,0.3-0.1,0.3-0.2C871.3,491.1,871.1,490.7,870.7,490.3z"/>
		<path d="M864.4,498.1c0.1,0.1,0.1,0.2,0.1,0.3c0,0.2-0.1,0.3-0.3,0.3c-0.2,0-0.4-0.2-0.6-0.5c-0.6-0.8-0.8-1.5-0.8-2.2
			c0-0.4,0.1-0.8,0.3-1c0.2-0.3,0.5-0.4,0.8-0.4c0.3,0,0.5,0.1,0.7,0.3c0.2,0.2,0.3,0.4,0.3,0.7c0,0.2-0.1,0.4-0.2,0.6
			s-0.3,0.2-0.5,0.2h-0.3c-0.2,0-0.2,0.1-0.2,0.2C863.7,496.9,863.9,497.4,864.4,498.1z"/>
		<path d="M856.7,487.8c0.8,0.9,1.2,2.2,1.2,3.7c0,1.5-0.4,2.7-1.1,3.5c-0.8,0.9-1.8,1.3-3,1.3c-1.1,0-2-0.3-2.7-1
			c-0.7-0.6-1-1.5-1-2.5c0-0.4,0.2-0.6,0.6-0.6c0.4,0,0.5,0.2,0.5,0.6c0,0.5,0.1,0.8,0.2,1.1c0.2,0.4,0.5,0.7,0.9,1
			c0.4,0.3,0.9,0.4,1.4,0.4c1,0,1.7-0.4,2.2-1.1c0.5-0.7,0.8-1.7,0.8-3c0-1.2-0.3-2.2-0.8-2.9c-0.5-0.7-1.2-1.1-2.2-1.1
			c-0.7,0-1.3,0.2-1.7,0.6c-0.4,0.4-0.6,1-0.6,1.6v0.5c0,0.4-0.2,0.6-0.5,0.6c-0.3,0-0.5-0.2-0.5-0.6v-0.1l0.1-0.5
			c0-0.3,0-0.5,0-0.8c0-0.2,0-0.5-0.1-1c0-0.4,0-0.6,0-0.7c0-0.4,0.2-0.6,0.5-0.6c0.3,0,0.4,0.2,0.4,0.5c0,0,0,0.1,0,0.3
			c0,0,0,0,0,0.1c0,0.1,0,0.1,0,0.2v0.2c0.7-0.8,1.5-1.2,2.5-1.2C855,486.4,856,486.9,856.7,487.8z"/>
		<path d="M843.3,495.2c-0.6-0.7-0.9-1.6-0.9-2.7s0.3-2,0.9-2.7c0.6-0.7,1.4-1,2.4-1c1,0,1.8,0.3,2.4,1s0.9,1.6,0.9,2.7
			s-0.3,2-0.9,2.7c-0.6,0.7-1.4,1-2.4,1C844.7,496.3,843.9,495.9,843.3,495.2z M843.6,492.5c0,0.9,0.2,1.6,0.6,2.1
			c0.4,0.5,0.9,0.7,1.6,0.7c0.7,0,1.2-0.2,1.5-0.7c0.4-0.5,0.6-1.2,0.6-2.1v-0.2c0-0.8-0.2-1.5-0.6-1.9c-0.4-0.5-0.9-0.7-1.5-0.7
			C844.3,489.7,843.6,490.7,843.6,492.5z"/>
		<path d="M839,487.2c0,0,0-0.1,0-0.2c0-0.3,0.1-0.4,0.3-0.4c0.1,0,0.2,0,0.4,0s0.3,0,0.4,0c0.1,0,0.2,0,0.4,0l0.3,0
			c0.1,0,0.2,0,0.3,0c0.4,0,0.6,0.2,0.6,0.5c0,0.3-0.2,0.4-0.5,0.4c-0.1,0-0.1,0-0.3,0c-0.2,0-0.3-0.1-0.4-0.1
			c-0.2,0-0.3,0.1-0.4,0.3c0,0.1,0,0.3,0,0.6v2.5v2.2l0,1c0,0.6,0,1,0.1,1.1c0,0.1,0.1,0.2,0.3,0.2c0,0,0.2,0,0.4-0.1
			c0,0,0.1,0,0.1,0c0,0,0.1,0,0.1,0c0.3,0,0.5,0.1,0.5,0.4c0,0.3-0.2,0.5-0.6,0.5h-0.1c-0.1,0-0.4,0-0.7-0.1c-0.3,0-0.5-0.1-0.7-0.1
			c-0.2,0-0.4,0-0.8,0.1s-0.6,0.1-0.7,0.1c-0.4,0-0.6-0.2-0.6-0.5c0-0.3,0.2-0.5,0.5-0.5c0,0,0.1,0,0.2,0c0.2,0,0.3,0.1,0.4,0.1
			c0.2,0,0.4-0.2,0.4-0.7v-4.3C839.1,488.9,839.1,487.9,839,487.2z"/>
		<path d="M835.2,486.9c0-0.3,0.1-0.4,0.3-0.4c0.1,0,0.2,0,0.4,0c0.2,0,0.3,0,0.4,0c0.1,0,0.2,0,0.4,0l0.3,0c0.1,0,0.2,0,0.3,0
			c0.4,0,0.6,0.2,0.6,0.5c0,0.3-0.2,0.4-0.5,0.4c-0.1,0-0.2,0-0.3,0c-0.2,0-0.3-0.1-0.4-0.1c-0.1,0-0.3,0.1-0.3,0.2
			s-0.1,0.4-0.1,0.7v3.7v1.4l0.1,1.1c0,0.2,0,0.5,0,0.7c0,0.1,0,0.2,0,0.3c0,0.5-0.2,0.7-0.5,0.7c-0.3,0-0.5-0.2-0.5-0.5
			c0,0,0-0.2,0.1-0.4c-0.4,0.7-1.1,1.1-2.1,1.1c-1,0-1.8-0.4-2.4-1.1c-0.6-0.7-0.9-1.6-0.9-2.8c0-1.1,0.3-2,0.8-2.6s1.3-1,2.2-1
			c0.5,0,0.9,0.1,1.2,0.2c0.3,0.2,0.6,0.4,0.9,0.8c0-1.1-0.1-2-0.1-2.7V486.9z M834.5,490.1c-0.4-0.3-0.8-0.4-1.2-0.4
			c-0.6,0-1.1,0.2-1.5,0.7c-0.4,0.5-0.5,1.2-0.5,2.1c0,0.9,0.2,1.5,0.6,2.1c0.4,0.5,0.9,0.8,1.5,0.8c0.8,0,1.4-0.3,1.7-1
			c0.2-0.3,0.2-1,0.2-1.9c0-0.5,0-1-0.1-1.3C835.1,490.8,834.9,490.4,834.5,490.1z"/>
		<path d="M826.9,490.1c0-0.1-0.1-0.2-0.2-0.2c-0.1,0-0.1,0-0.3,0c-0.1,0-0.2,0-0.3,0c-0.4,0-0.5-0.2-0.5-0.5s0.2-0.5,0.6-0.5
			c0.1,0,0.3,0,0.6,0c0.4,0,0.7,0.1,1.1,0.1c0,0,0.1,0,0.2,0c0.1,0,0.1,0,0.1,0l0.6-0.1c0.1,0,0.2,0,0.3,0c0.4,0,0.6,0.2,0.6,0.5
			c0,0.3-0.2,0.4-0.5,0.4c0,0-0.1,0-0.3,0c-0.1,0-0.2,0-0.3,0c-0.2,0-0.4,0.2-0.5,0.6l-0.2,0.4l-1.5,3.9c-0.3,0.6-0.4,1.1-0.4,1.3
			c0,0.5,0.2,0.9,0.6,1.2c0.4,0.4,0.8,0.6,1.3,0.6c0.4,0,0.7-0.1,0.8-0.3c-0.3-0.1-0.4-0.3-0.4-0.6c0-0.2,0.1-0.3,0.2-0.5
			s0.3-0.2,0.5-0.2c0.3,0,0.5,0.1,0.7,0.3c0.2,0.2,0.3,0.4,0.3,0.7c0,0.4-0.2,0.8-0.6,1c-0.4,0.3-0.9,0.4-1.4,0.4
			c-1,0-1.7-0.4-2.4-1.2c-0.4-0.5-0.8-1.2-1.2-2.3l-1.9-4.8c-0.2-0.5-0.4-0.7-0.5-0.7c0,0-0.1,0-0.3,0c0,0-0.1,0-0.2,0
			c-0.3,0-0.5-0.2-0.5-0.5c0-0.3,0.2-0.5,0.6-0.5c0.2,0,0.4,0,0.7,0.1c0.3,0,0.5,0.1,0.7,0.1c0.1,0,0.3,0,0.4,0l0.5-0.1
			c0.1,0,0.2,0,0.3,0c0.4,0,0.6,0.2,0.6,0.5c0,0.3-0.2,0.4-0.5,0.4c0,0-0.1,0-0.3,0c-0.1,0-0.2,0-0.3,0c-0.2,0-0.3,0.1-0.3,0.2
			c0,0.1,0,0.2,0.1,0.3l1.7,4.7l1.6-4.7C826.9,490.3,826.9,490.2,826.9,490.1z"/>
		<path d="M821,498.1c0.1,0.1,0.1,0.2,0.1,0.3c0,0.2-0.1,0.3-0.3,0.3c-0.2,0-0.4-0.2-0.6-0.5c-0.6-0.8-0.8-1.5-0.8-2.2
			c0-0.4,0.1-0.8,0.3-1c0.2-0.3,0.5-0.4,0.8-0.4c0.3,0,0.5,0.1,0.7,0.3c0.2,0.2,0.3,0.4,0.3,0.7c0,0.2-0.1,0.4-0.2,0.6
			s-0.3,0.2-0.5,0.2h-0.3c-0.2,0-0.2,0.1-0.2,0.2C820.2,496.9,820.4,497.4,821,498.1z"/>
		<path d="M807.5,494.8c0,0.3,0.2,0.4,0.5,0.4c0.1,0,0.2,0,0.4,0s0.3,0,0.4,0c0.4,0,0.6,0.2,0.6,0.5s-0.2,0.5-0.6,0.5
			c-0.1,0-0.3,0-0.4,0c-0.8-0.1-1.3-0.1-1.7-0.1c-0.3,0-0.7,0-1.3,0.1c-0.2,0-0.3,0-0.4,0c-0.4,0-0.5-0.2-0.5-0.5
			c0-0.3,0.2-0.5,0.5-0.5l0.4,0c0,0,0.1,0,0.2,0c0.2,0,0.4-0.1,0.6-0.2c0.1-0.1,0.3-0.4,0.4-0.9l2.5-6.9c0.1-0.4,0.4-0.6,0.9-0.6
			c0.4,0,0.7,0.2,0.9,0.6l2.6,7.1c0.1,0.4,0.2,0.6,0.3,0.7c0.1,0.2,0.3,0.3,0.6,0.3h0.2c0,0,0.1-0.1,0.2-0.1c0.4,0,0.5,0.2,0.5,0.5
			c0,0.3-0.2,0.5-0.5,0.5c-0.1,0-0.3,0-0.6,0l-0.6-0.1c-0.1,0-0.4,0-0.7,0c-0.3,0-0.5,0-0.6,0l-0.7,0.1c-0.1,0-0.2,0-0.3,0
			c-0.4,0-0.6-0.2-0.6-0.5c0-0.3,0.2-0.5,0.6-0.5c0.1,0,0.2,0,0.4,0s0.3,0,0.4,0c0.4,0,0.5-0.1,0.5-0.4c0-0.1,0-0.2-0.1-0.3
			l-0.4-1.1c-0.1-0.3-0.2-0.5-0.3-0.5c-0.1-0.1-0.2-0.1-0.4-0.1h-2.5c-0.2,0-0.3,0-0.4,0.1c-0.1,0-0.1,0.1-0.2,0.3l-0.5,1.4
			C807.6,494.7,807.5,494.8,807.5,494.8z M808.6,491.7c0,0.1,0.1,0.1,0.2,0.1h2.2c0.1,0,0.2,0,0.2-0.1c0,0,0,0,0-0.1l-1.3-3.9
			l-1.3,3.9C808.6,491.7,808.6,491.7,808.6,491.7z"/>
		<path d="M803.3,489.8c0.6,0.7,0.9,1.6,0.9,2.7c0,1.1-0.3,2-0.9,2.7s-1.3,1-2.3,1c-0.9,0-1.7-0.3-2.2-1v0.2v0.1
			c0,0.3-0.1,0.5-0.4,0.5c-0.1,0-0.2,0-0.3,0c-0.2,0-0.3,0-0.3,0c-0.1,0-0.2,0-0.4,0c-0.2,0-0.3,0-0.4,0c-0.4,0-0.6-0.2-0.6-0.5
			c0-0.3,0.2-0.5,0.5-0.5c0.1,0,0.2,0,0.3,0c0.1,0,0.2,0,0.3,0c0.2,0,0.3-0.1,0.3-0.2c0-0.2,0.1-0.5,0.1-1.2v-2.3v-1.4
			c0-0.2,0-0.6,0-1.1c0-0.7,0-1,0-1.1c0-0.5,0-0.7,0-0.7v-0.2c0-0.4,0.1-0.6,0.4-0.6c0.1,0,0.2,0,0.4,0c0.2,0,0.3,0,0.4,0
			c0,0,0.2,0,0.5,0c0.2,0,0.3,0,0.4,0c0.5,0,0.7,0.2,0.7,0.5c0,0.3-0.2,0.4-0.5,0.4c-0.1,0-0.2,0-0.3,0c-0.1,0-0.2,0-0.3,0
			c-0.2,0-0.3,0.1-0.4,0.4c0,0.1,0,0.3,0,0.7v1.4c0.5-0.7,1.1-1.1,2.1-1.1C802,488.8,802.8,489.1,803.3,489.8z M799.6,494.9
			c0.3,0.3,0.8,0.4,1.3,0.4c0.7,0,1.2-0.3,1.6-0.8s0.6-1.2,0.6-2.1c0-0.9-0.2-1.5-0.6-2c-0.4-0.5-0.9-0.7-1.5-0.7
			c-0.5,0-0.9,0.2-1.3,0.5c-0.3,0.3-0.5,0.6-0.6,1.1c0,0.2-0.1,0.6-0.1,1.3c0,0.5,0,0.9,0.1,1.2
			C799.1,494.2,799.3,494.6,799.6,494.9z"/>
		<path d="M790.3,489.7c0.6-0.6,1.3-0.9,2.2-0.9c1,0,1.8,0.4,2.4,1.1c0.6,0.7,0.9,1.6,0.9,2.8c0,1.1-0.3,2-0.9,2.7s-1.4,1-2.3,1
			c-0.8,0-1.5-0.2-2.1-0.7c-0.6-0.5-0.9-1-0.9-1.6c0-0.4,0.2-0.5,0.5-0.5c0.2,0,0.4,0.1,0.5,0.3l0.1,0.4c0.1,0.3,0.3,0.6,0.7,0.9
			c0.3,0.2,0.7,0.3,1.1,0.3c0.6,0,1.1-0.2,1.6-0.7s0.6-1,0.6-1.8c0-0.1,0-0.1-0.1-0.2c0,0-0.1,0-0.2,0h-4.5c-0.2,0-0.4,0-0.4-0.1
			c0-0.1-0.1-0.3-0.1-0.7C789.4,491,789.7,490.3,790.3,489.7z M793.9,490.3c-0.4-0.4-0.9-0.6-1.4-0.6c-0.5,0-0.9,0.2-1.3,0.5
			c-0.4,0.4-0.6,0.8-0.6,1.3c0,0.1,0.1,0.2,0.3,0.2h3.3c0.2,0,0.3-0.1,0.3-0.2C794.5,491.1,794.3,490.7,793.9,490.3z"/>
		<path d="M786.1,487.2c0,0,0-0.1,0-0.2c0-0.3,0.1-0.4,0.3-0.4c0.1,0,0.2,0,0.4,0c0.2,0,0.3,0,0.4,0c0.1,0,0.2,0,0.4,0l0.3,0
			c0.1,0,0.2,0,0.3,0c0.4,0,0.6,0.2,0.6,0.5c0,0.3-0.2,0.4-0.5,0.4c-0.1,0-0.1,0-0.3,0c-0.2,0-0.3-0.1-0.4-0.1
			c-0.2,0-0.3,0.1-0.4,0.3c0,0.1,0,0.3,0,0.6v2.5v2.2l0,1c0,0.6,0,1,0.1,1.1c0,0.1,0.1,0.2,0.3,0.2c0,0,0.2,0,0.4-0.1
			c0,0,0.1,0,0.1,0c0,0,0.1,0,0.1,0c0.3,0,0.5,0.1,0.5,0.4c0,0.3-0.2,0.5-0.6,0.5h-0.1c-0.1,0-0.4,0-0.7-0.1c-0.3,0-0.5-0.1-0.7-0.1
			c-0.2,0-0.4,0-0.8,0.1s-0.6,0.1-0.7,0.1c-0.4,0-0.6-0.2-0.6-0.5c0-0.3,0.2-0.5,0.5-0.5c0,0,0.1,0,0.2,0c0.2,0,0.3,0.1,0.4,0.1
			c0.2,0,0.4-0.2,0.4-0.7v-4.3C786.2,488.9,786.2,487.9,786.1,487.2z"/>
		<path d="M781.8,487.2c0,0,0-0.1,0-0.2c0-0.3,0.1-0.4,0.3-0.4c0.1,0,0.2,0,0.4,0s0.3,0,0.4,0c0.1,0,0.2,0,0.4,0l0.3,0
			c0.1,0,0.2,0,0.3,0c0.4,0,0.6,0.2,0.6,0.5c0,0.3-0.2,0.4-0.5,0.4c-0.1,0-0.1,0-0.3,0c-0.2,0-0.3-0.1-0.4-0.1
			c-0.2,0-0.3,0.1-0.4,0.3c0,0.1,0,0.3,0,0.6v2.5v2.2l0,1c0,0.6,0,1,0.1,1.1c0,0.1,0.1,0.2,0.3,0.2c0,0,0.2,0,0.4-0.1
			c0,0,0.1,0,0.1,0c0,0,0.1,0,0.1,0c0.3,0,0.5,0.1,0.5,0.4c0,0.3-0.2,0.5-0.6,0.5h-0.1c-0.1,0-0.4,0-0.7-0.1s-0.5-0.1-0.7-0.1
			c-0.2,0-0.4,0-0.8,0.1c-0.3,0-0.6,0.1-0.7,0.1c-0.4,0-0.6-0.2-0.6-0.5c0-0.3,0.2-0.5,0.5-0.5c0,0,0.1,0,0.2,0
			c0.2,0,0.3,0.1,0.4,0.1c0.2,0,0.4-0.2,0.4-0.7v-4.3C781.9,488.9,781.8,487.9,781.8,487.2z"/>
		<path d="M772.3,494.9v-0.8V494c0-0.4,0.2-0.7,0.5-0.7c0.3,0,0.4,0.1,0.4,0.4v0.7c0,0.6,0.2,0.9,0.5,0.9c0.3,0,0.4-0.2,0.5-0.5
			c0-0.1,0-0.3,0-0.8v-2.8c0-1.6,0.8-2.4,2.5-2.4c0.7,0,1.4,0.2,1.9,0.6c0.5,0.4,0.8,0.8,0.8,1.3c0,0.2-0.1,0.4-0.2,0.6
			s-0.4,0.3-0.6,0.3c-0.2,0-0.4-0.1-0.5-0.2c-0.1-0.1-0.2-0.3-0.2-0.5c0-0.2,0.1-0.4,0.2-0.5c0.1-0.1,0.1-0.1,0.1-0.1
			c0-0.1-0.1-0.2-0.2-0.3c-0.4-0.2-0.8-0.4-1.2-0.4c-0.5,0-0.8,0.1-1.1,0.3c-0.3,0.2-0.4,0.5-0.4,0.9c0,0.4,0.1,0.7,0.4,0.8
			s0.7,0.3,1.5,0.3c0.6,0.1,0.9,0.1,1.1,0.2c0.2,0,0.4,0.1,0.7,0.3c0.7,0.4,1,0.9,1,1.7c0,0.6-0.2,1.1-0.7,1.5
			c-0.5,0.4-1.1,0.6-1.8,0.6c-1,0-1.8-0.4-2.2-1c-0.2,0.7-0.6,1-1.4,1C772.8,496.2,772.3,495.8,772.3,494.9z M775.8,494.8
			c0.4,0.3,0.9,0.5,1.5,0.5c0.4,0,0.8-0.1,1-0.3c0.3-0.2,0.4-0.5,0.4-0.8c0-0.7-0.5-1.1-1.6-1.2c-0.6-0.1-1-0.1-1.2-0.2
			c-0.2-0.1-0.4-0.2-0.6-0.4v1C775.3,494,775.5,494.5,775.8,494.8z"/>
		<path d="M771.1,498.1c0.1,0.1,0.1,0.2,0.1,0.3c0,0.2-0.1,0.3-0.3,0.3c-0.2,0-0.4-0.2-0.6-0.5c-0.6-0.8-0.8-1.5-0.8-2.2
			c0-0.4,0.1-0.8,0.3-1c0.2-0.3,0.5-0.4,0.8-0.4c0.3,0,0.5,0.1,0.7,0.3c0.2,0.2,0.3,0.4,0.3,0.7c0,0.2-0.1,0.4-0.2,0.6
			c-0.1,0.2-0.3,0.2-0.5,0.2h-0.3c-0.2,0-0.2,0.1-0.2,0.2C770.3,496.9,770.6,497.4,771.1,498.1z"/>
		<path d="M757.1,494.9v-0.8V494c0-0.4,0.2-0.7,0.5-0.7c0.3,0,0.4,0.1,0.4,0.4v0.7c0,0.6,0.2,0.9,0.5,0.9c0.3,0,0.4-0.2,0.5-0.5
			c0-0.1,0-0.3,0-0.8v-2.8c0-1.6,0.8-2.4,2.5-2.4c0.7,0,1.4,0.2,1.9,0.6c0.5,0.4,0.8,0.8,0.8,1.3c0,0.2-0.1,0.4-0.2,0.6
			s-0.4,0.3-0.6,0.3c-0.2,0-0.4-0.1-0.5-0.2c-0.1-0.1-0.2-0.3-0.2-0.5c0-0.2,0.1-0.4,0.2-0.5c0.1-0.1,0.1-0.1,0.1-0.1
			c0-0.1-0.1-0.2-0.2-0.3c-0.4-0.2-0.8-0.4-1.2-0.4c-0.5,0-0.8,0.1-1.1,0.3c-0.3,0.2-0.4,0.5-0.4,0.9c0,0.4,0.1,0.7,0.4,0.8
			s0.7,0.3,1.5,0.3c0.6,0.1,0.9,0.1,1.1,0.2c0.2,0,0.4,0.1,0.7,0.3c0.7,0.4,1,0.9,1,1.7c0,0.6-0.2,1.1-0.7,1.5
			c-0.5,0.4-1.1,0.6-1.8,0.6c-1,0-1.8-0.4-2.2-1c-0.2,0.7-0.6,1-1.4,1C757.6,496.2,757.1,495.8,757.1,494.9z M760.6,494.8
			c0.4,0.3,0.9,0.5,1.5,0.5c0.4,0,0.8-0.1,1-0.3c0.3-0.2,0.4-0.5,0.4-0.8c0-0.7-0.5-1.1-1.6-1.2c-0.6-0.1-1-0.1-1.2-0.2
			c-0.2-0.1-0.4-0.2-0.6-0.4v1C760.1,494,760.3,494.5,760.6,494.8z"/>
		<path d="M754.9,489c0,0,0.1,0,0.4,0c0.1,0,0.2,0,0.4,0l0.5-0.1c0,0,0.1,0,0.1,0c0.4,0,0.6,0.2,0.6,0.5c0,0.3-0.2,0.4-0.5,0.4
			c-0.1,0-0.2,0-0.3,0c-0.1,0-0.2,0-0.3,0c-0.2,0-0.3,0.1-0.3,0.2c-0.1,0.1-0.1,0.3-0.1,0.7v0.5v1.7v1.6c0,0.5,0.2,0.8,0.4,0.8
			c0.1,0,0.2,0,0.4,0c0.1,0,0.2,0,0.3,0c0.3,0,0.5,0.1,0.5,0.4c0,0.3-0.2,0.5-0.6,0.5c-0.1,0-0.3,0-0.7-0.1c-0.3,0-0.6-0.1-0.8-0.1
			c-0.3,0-0.5,0-0.7,0c-0.4,0.1-0.7,0.1-0.7,0.1c-0.4,0-0.6-0.2-0.6-0.5c0-0.3,0.1-0.5,0.4-0.5c0.1,0,0.2,0,0.3,0c0.1,0,0.2,0,0.3,0
			c0.1,0,0.3-0.1,0.3-0.2c0.1-0.1,0.1-0.4,0.1-0.8v-1.9c0-0.9-0.1-1.5-0.3-1.9c-0.3-0.5-0.9-0.8-1.6-0.8c-0.4,0-0.7,0.1-1,0.3
			c-0.3,0.2-0.5,0.5-0.5,0.8c0,0.2-0.1,0.5-0.1,1v1.1v0.9v0.7c0,0.5,0.1,0.8,0.4,0.8c0,0,0.2,0,0.3-0.1c0.1,0,0.2,0,0.3,0
			c0.3,0,0.5,0.1,0.5,0.4c0,0.3-0.2,0.5-0.6,0.5c0,0-0.3,0-0.7-0.1c-0.2,0-0.4,0-0.6,0c-0.3,0-0.5,0-0.8,0.1c-0.3,0-0.5,0.1-0.6,0.1
			c-0.2,0-0.3,0-0.4-0.1c-0.1-0.1-0.2-0.2-0.2-0.3c0-0.1,0-0.2,0.1-0.3s0.2-0.1,0.3-0.1c0.1,0,0.2,0,0.3,0s0.2,0,0.3,0
			c0.2,0,0.3-0.2,0.4-0.5c0-0.1,0-0.3,0-0.7v-2.7c0-0.5,0.1-0.9,0.2-1.2c0.2-0.4,0.5-0.7,0.9-1c0.4-0.3,0.9-0.4,1.4-0.4
			c0.9,0,1.7,0.4,2.2,1.1v-0.4C754.5,489.2,754.6,489,754.9,489z"/>
		<path d="M746.9,489.8c0.6,0.7,0.9,1.6,0.9,2.7c0,1.1-0.3,2-0.9,2.7s-1.3,1-2.3,1c-0.9,0-1.7-0.3-2.2-1v0.2v0.1
			c0,0.3-0.1,0.5-0.4,0.5c-0.1,0-0.2,0-0.3,0c-0.2,0-0.3,0-0.3,0c-0.1,0-0.2,0-0.4,0c-0.2,0-0.3,0-0.4,0c-0.4,0-0.6-0.2-0.6-0.5
			c0-0.3,0.2-0.5,0.5-0.5c0.1,0,0.2,0,0.3,0c0.1,0,0.2,0,0.3,0c0.2,0,0.3-0.1,0.3-0.2c0-0.2,0.1-0.5,0.1-1.2v-2.3v-1.4
			c0-0.2,0-0.6,0-1.1c0-0.7,0-1,0-1.1c0-0.5,0-0.7,0-0.7v-0.2c0-0.4,0.1-0.6,0.4-0.6c0.1,0,0.2,0,0.4,0c0.2,0,0.3,0,0.4,0
			c0,0,0.2,0,0.5,0c0.2,0,0.3,0,0.4,0c0.5,0,0.7,0.2,0.7,0.5c0,0.3-0.2,0.4-0.5,0.4c-0.1,0-0.2,0-0.3,0c-0.1,0-0.2,0-0.3,0
			c-0.2,0-0.3,0.1-0.4,0.4c0,0.1,0,0.3,0,0.7v1.4c0.5-0.7,1.1-1.1,2.1-1.1C745.5,488.8,746.3,489.1,746.9,489.8z M743.2,494.9
			c0.3,0.3,0.8,0.4,1.3,0.4c0.7,0,1.2-0.3,1.6-0.8c0.4-0.5,0.6-1.2,0.6-2.1c0-0.9-0.2-1.5-0.6-2c-0.4-0.5-0.9-0.7-1.5-0.7
			c-0.5,0-0.9,0.2-1.3,0.5c-0.3,0.3-0.5,0.6-0.6,1.1c0,0.2-0.1,0.6-0.1,1.3c0,0.5,0,0.9,0.1,1.2
			C742.6,494.2,742.8,494.6,743.2,494.9z"/>
		<path d="M731.4,489.4l-0.1-1c0-0.3-0.1-0.6-0.3-0.7s-0.4-0.2-0.7-0.2h-0.4c-0.7,0-1.1,0.3-1.1,1c0,0.2,0,0.4,0,0.8
			c0,0.3,0,0.6,0,0.8c0,0.5-0.2,0.7-0.5,0.7c-0.4,0-0.5-0.2-0.5-0.6c0-0.1,0-0.3,0.1-0.7c0-0.3,0-0.5,0-0.7v-0.2
			c0-0.3-0.1-0.6-0.1-0.8c0-0.3,0-0.4,0-0.5v0c0-0.4,0.2-0.6,0.7-0.6c0.2,0,0.5,0,0.9,0c0.4,0,0.7,0,0.9,0c0.8,0,1.3,0,1.5,0h1.6
			c0.7,0,1.1-0.1,1.1-0.1c0.5,0,0.8,0,0.9,0c0.4,0,0.5,0.2,0.5,0.6c0-0.1,0,0.1,0,0.6c0,0.3,0,0.5,0,0.7c0,0.1,0,0.4,0,0.9
			c0,0.3,0,0.5,0,0.6c0,0.4-0.2,0.6-0.5,0.6c-0.4,0-0.5-0.3-0.5-0.9c0-0.1,0-0.3,0-0.3l0.1-0.5c0-0.1,0-0.2,0-0.5c0-0.7-0.3-1-1-1
			h-0.4c-0.7,0-1,0.3-1,1v2.3v1.2v1.2v1c0,0.7,0.2,1,0.7,1c0.1,0,0.2,0,0.3,0s0.3,0,0.3,0c0.3,0,0.4,0.1,0.4,0.4
			c0,0.3-0.2,0.5-0.6,0.5c0,0-0.1,0-0.1,0c0,0-0.1,0-0.1,0l-0.7-0.1c-0.3,0-0.6-0.1-0.9-0.1c-0.3,0-0.6,0-0.9,0.1l-0.7,0.1
			c0,0-0.1,0-0.1,0c0,0-0.1,0-0.1,0c-0.4,0-0.6-0.2-0.6-0.5c0-0.1,0-0.2,0.1-0.3c0.1-0.1,0.2-0.1,0.3-0.1c0.1,0,0.2,0,0.3,0
			s0.3,0,0.3,0c0.5,0,0.7-0.4,0.7-1V489.4z"/>
		<path d="M721.6,489.7c0.6-0.6,1.3-0.9,2.2-0.9c1,0,1.8,0.4,2.4,1.1c0.6,0.7,0.9,1.6,0.9,2.8c0,1.1-0.3,2-0.9,2.7
			c-0.6,0.7-1.4,1-2.3,1c-0.8,0-1.5-0.2-2.1-0.7c-0.6-0.5-0.9-1-0.9-1.6c0-0.4,0.2-0.5,0.5-0.5c0.2,0,0.4,0.1,0.5,0.3l0.1,0.4
			c0.1,0.3,0.3,0.6,0.7,0.9c0.3,0.2,0.7,0.3,1.1,0.3c0.6,0,1.1-0.2,1.6-0.7c0.4-0.5,0.6-1,0.6-1.8c0-0.1,0-0.1-0.1-0.2
			c0,0-0.1,0-0.2,0h-4.5c-0.2,0-0.4,0-0.4-0.1s-0.1-0.3-0.1-0.7C720.8,491,721,490.3,721.6,489.7z M725.2,490.3
			c-0.4-0.4-0.9-0.6-1.4-0.6c-0.5,0-0.9,0.2-1.3,0.5c-0.4,0.4-0.6,0.8-0.6,1.3c0,0.1,0.1,0.2,0.3,0.2h3.3c0.2,0,0.3-0.1,0.3-0.2
			C725.8,491.1,725.6,490.7,725.2,490.3z"/>
		<path d="M718.9,489.8c0.6,0.7,0.9,1.6,0.9,2.7c0,1.1-0.3,2-0.9,2.7s-1.3,1-2.3,1c-0.9,0-1.7-0.3-2.2-1v0.2v0.1
			c0,0.3-0.1,0.5-0.4,0.5c-0.1,0-0.2,0-0.3,0c-0.2,0-0.3,0-0.3,0c-0.1,0-0.2,0-0.4,0c-0.2,0-0.3,0-0.4,0c-0.4,0-0.6-0.2-0.6-0.5
			c0-0.3,0.2-0.5,0.5-0.5c0.1,0,0.2,0,0.3,0c0.1,0,0.2,0,0.3,0c0.2,0,0.3-0.1,0.3-0.2c0-0.2,0.1-0.5,0.1-1.2v-2.3v-1.4
			c0-0.2,0-0.6,0-1.1c0-0.7,0-1,0-1.1c0-0.5,0-0.7,0-0.7v-0.2c0-0.4,0.1-0.6,0.4-0.6c0.1,0,0.2,0,0.4,0c0.2,0,0.3,0,0.4,0
			c0,0,0.2,0,0.5,0c0.2,0,0.3,0,0.4,0c0.5,0,0.7,0.2,0.7,0.5c0,0.3-0.2,0.4-0.5,0.4c-0.1,0-0.2,0-0.3,0c-0.1,0-0.2,0-0.3,0
			c-0.2,0-0.3,0.1-0.4,0.4c0,0.1,0,0.3,0,0.7v1.4c0.5-0.7,1.1-1.1,2.1-1.1C717.5,488.8,718.3,489.1,718.9,489.8z M715.2,494.9
			c0.3,0.3,0.8,0.4,1.3,0.4c0.7,0,1.2-0.3,1.6-0.8c0.4-0.5,0.6-1.2,0.6-2.1c0-0.9-0.2-1.5-0.6-2c-0.4-0.5-0.9-0.7-1.5-0.7
			c-0.5,0-0.9,0.2-1.3,0.5c-0.3,0.3-0.5,0.6-0.6,1.1c0,0.2-0.1,0.6-0.1,1.3c0,0.5,0,0.9,0.1,1.2
			C714.6,494.2,714.8,494.6,715.2,494.9z"/>
		<path d="M710.5,489.8c0.6,0.7,0.9,1.6,0.9,2.7c0,1.1-0.3,2-0.9,2.7s-1.3,1-2.3,1c-0.9,0-1.7-0.3-2.2-1v0.2v0.1
			c0,0.3-0.1,0.5-0.4,0.5c-0.1,0-0.2,0-0.3,0c-0.2,0-0.3,0-0.3,0c-0.1,0-0.2,0-0.4,0c-0.2,0-0.3,0-0.4,0c-0.4,0-0.6-0.2-0.6-0.5
			c0-0.3,0.2-0.5,0.5-0.5c0.1,0,0.2,0,0.3,0c0.1,0,0.2,0,0.3,0c0.2,0,0.3-0.1,0.3-0.2c0-0.2,0.1-0.5,0.1-1.2v-2.3v-1.4
			c0-0.2,0-0.6,0-1.1c0-0.7,0-1,0-1.1c0-0.5,0-0.7,0-0.7v-0.2c0-0.4,0.1-0.6,0.4-0.6c0.1,0,0.2,0,0.4,0c0.2,0,0.3,0,0.4,0
			c0,0,0.2,0,0.5,0c0.2,0,0.3,0,0.4,0c0.5,0,0.7,0.2,0.7,0.5c0,0.3-0.2,0.4-0.5,0.4c-0.1,0-0.2,0-0.3,0c-0.1,0-0.2,0-0.3,0
			c-0.2,0-0.3,0.1-0.4,0.4c0,0.1,0,0.3,0,0.7v1.4c0.5-0.7,1.1-1.1,2.1-1.1C709.1,488.8,709.9,489.1,710.5,489.8z M706.8,494.9
			c0.3,0.3,0.8,0.4,1.3,0.4c0.7,0,1.2-0.3,1.6-0.8s0.6-1.2,0.6-2.1c0-0.9-0.2-1.5-0.6-2c-0.4-0.5-0.9-0.7-1.5-0.7
			c-0.5,0-0.9,0.2-1.3,0.5c-0.3,0.3-0.5,0.6-0.6,1.1c0,0.2-0.1,0.6-0.1,1.3c0,0.5,0,0.9,0.1,1.2
			C706.2,494.2,706.4,494.6,706.8,494.9z"/>
		<path d="M700.8,490.1c0-0.1-0.1-0.2-0.2-0.2c-0.1,0-0.1,0-0.3,0c-0.1,0-0.2,0-0.3,0c-0.4,0-0.5-0.2-0.5-0.5s0.2-0.5,0.6-0.5
			c0.1,0,0.3,0,0.6,0c0.4,0,0.7,0.1,1.1,0.1c0,0,0.1,0,0.2,0c0.1,0,0.1,0,0.1,0l0.6-0.1c0.1,0,0.2,0,0.3,0c0.4,0,0.6,0.2,0.6,0.5
			c0,0.3-0.2,0.4-0.5,0.4c0,0-0.1,0-0.3,0c-0.1,0-0.2,0-0.3,0c-0.2,0-0.4,0.2-0.5,0.6l-0.2,0.4l-1.5,3.9c-0.3,0.6-0.4,1.1-0.4,1.3
			c0,0.5,0.2,0.9,0.6,1.2c0.4,0.4,0.8,0.6,1.3,0.6c0.4,0,0.7-0.1,0.8-0.3c-0.3-0.1-0.4-0.3-0.4-0.6c0-0.2,0.1-0.3,0.2-0.5
			s0.3-0.2,0.5-0.2c0.3,0,0.5,0.1,0.7,0.3c0.2,0.2,0.3,0.4,0.3,0.7c0,0.4-0.2,0.8-0.6,1c-0.4,0.3-0.9,0.4-1.4,0.4
			c-1,0-1.7-0.4-2.4-1.2c-0.4-0.5-0.8-1.2-1.2-2.3l-1.9-4.8c-0.2-0.5-0.4-0.7-0.5-0.7c0,0-0.1,0-0.3,0c0,0-0.1,0-0.2,0
			c-0.3,0-0.5-0.2-0.5-0.5c0-0.3,0.2-0.5,0.6-0.5c0.2,0,0.4,0,0.7,0.1c0.3,0,0.5,0.1,0.7,0.1c0.1,0,0.3,0,0.4,0l0.5-0.1
			c0.1,0,0.2,0,0.3,0c0.4,0,0.6,0.2,0.6,0.5c0,0.3-0.2,0.4-0.5,0.4c0,0-0.1,0-0.3,0c-0.1,0-0.2,0-0.3,0c-0.2,0-0.3,0.1-0.3,0.2
			c0,0.1,0,0.2,0.1,0.3l1.7,4.7l1.6-4.7C700.7,490.3,700.8,490.2,700.8,490.1z"/>
	</g>
	<path d="M617.3,526.6h282.3c1.6,0,2.8-1.3,2.8-2.8l0,0c0-1.6-1.3-2.8-2.8-2.8H617.2c-1.6,0-2.8,1.3-2.8,2.8l0,0
		C614.4,525.3,615.7,526.6,617.3,526.6z"/>
	<circle cx="758.4" cy="523.8" r="7.3"/>
	<polygon class="st0" points="745.2,559.6 765,548.1 765,571 	"/>
	<polygon class="st1" points="697.2,559.6 710.7,551.8 710.7,567.4 	"/>
	<path class="st1" d="M697.2,567.4h0.9c0.3,0,0.5-0.2,0.5-0.5v-14.6c0-0.3-0.2-0.5-0.5-0.5h-0.9c-0.3,0-0.5,0.2-0.5,0.5v14.6
		C696.7,567.2,696.9,567.4,697.2,567.4z"/>
	<polygon class="st1" points="821.4,559.6 807.8,567.4 807.8,551.8 	"/>
	<path class="st1" d="M821.4,551.8h-0.9c-0.3,0-0.5,0.2-0.5,0.5v14.6c0,0.3,0.2,0.5,0.5,0.5h0.9c0.3,0,0.5-0.2,0.5-0.5v-14.6
		C821.9,552,821.6,551.8,821.4,551.8z"/>
	<circle cx="860.2" cy="234.3" r="19.6"/>
	<g>
		<g>
			<path class="st3" d="M870.3,230.2c-3.3-1.6-7.2-1.9-10.8-1.4c-1.8,0.2-3.6,0.6-5.4,1.2c-1.6,0.5-3.2,0.9-4.5,2.1
				c-2.3,2.2-5.9-1.3-3.5-3.5c3.3-3.1,8.6-4.1,12.9-4.6c4.7-0.6,9.4,0,13.7,2c1.2,0.6,1.5,2.3,0.9,3.4
				C873,230.5,871.5,230.7,870.3,230.2L870.3,230.2z"/>
		</g>
	</g>
	<g>
		<g>
			<path class="st3" d="M870.3,236.4c-6.2-1.6-12.9-0.8-18.5,2.4c-2.8,1.6-5.3-2.7-2.5-4.3c6.8-3.8,14.9-4.9,22.4-2.9
				C874.7,232.4,873.4,237.2,870.3,236.4L870.3,236.4z"/>
		</g>
	</g>
	<g>
		<g>
			<path class="st3" d="M868.6,242.7c-2.6-0.6-5.1-1.1-7.8-0.8c-2.3,0.3-4.5,1.4-6.7,2.4c-1.2,0.6-2.7,0.3-3.4-0.9
				c-0.6-1.1-0.3-2.8,0.9-3.4c2.9-1.4,5.7-2.7,8.9-3c3.2-0.4,6.4,0.2,9.4,0.9c1.3,0.3,2.1,1.8,1.7,3.1
				C871.3,242.3,869.9,243,868.6,242.7L868.6,242.7z"/>
		</g>
	</g>
	<g>
		<g>
			<path d="M826.9,232.7c0,1.1,0,2.1,0,3.2c0,0.6-0.3,1.3-0.7,1.8c-0.2,0.2-0.5,0.4-0.8,0.5c-0.3,0.2-0.6,0.2-1,0.2
				c-0.6,0-1.3-0.2-1.8-0.7c-0.4-0.5-0.7-1.1-0.7-1.8c0-1.1,0-2.1,0-3.2c0-0.6,0.3-1.3,0.7-1.8c0.2-0.2,0.5-0.4,0.8-0.5
				c0.3-0.2,0.6-0.2,1-0.2c0.6,0,1.3,0.2,1.8,0.7C826.7,231.5,826.9,232.1,826.9,232.7L826.9,232.7z"/>
		</g>
	</g>
	<g>
		<g>
			<path d="M813.3,252.5c-0.1-12.2-0.2-24.3-0.3-36.5c0-3.2,5-3.2,5,0c0.1,12.2,0.2,24.3,0.3,36.5
				C818.4,255.8,813.4,255.8,813.3,252.5L813.3,252.5z"/>
		</g>
	</g>
	<g>
		<g>
			<path d="M810.2,228c-0.2,4.1-0.2,8.2-0.2,12.3c0,1.3-1.2,2.6-2.5,2.5c-1.4-0.1-2.5-1.1-2.5-2.5c0-4.1,0-8.2,0.2-12.3
				c0.1-1.3,1.1-2.6,2.5-2.5C809,225.6,810.3,226.6,810.2,228L810.2,228z"/>
		</g>
	</g>
	<g>
		<g>
			<path d="M801.6,230.4c0.1,2.6,0.1,5.3,0.2,7.9c0,1.3-1.2,2.6-2.5,2.5c-1.4-0.1-2.5-1.1-2.5-2.5c-0.1-2.6-0.1-5.3-0.2-7.9
				c0-1.3,1.2-2.6,2.5-2.5C800.5,228,801.5,229,801.6,230.4L801.6,230.4z"/>
		</g>
	</g>
	<g>
		<g>
			<path d="M788.5,249.6c-0.1-10.2-0.2-20.4-0.2-30.7c0-3.2,5-3.2,5,0c0.1,10.2,0.2,20.4,0.2,30.7
				C793.5,252.8,788.5,252.8,788.5,249.6L788.5,249.6z"/>
		</g>
	</g>
	<g>
		<g>
			<path d="M780.5,235.9c0-1,0-2.1,0-3.1c0-0.6,0.3-1.3,0.7-1.8c0.2-0.2,0.5-0.4,0.8-0.5c0.3-0.2,0.6-0.2,1-0.2
				c0.6,0,1.3,0.2,1.8,0.7c0.4,0.5,0.7,1.1,0.7,1.8c0,1,0,2.1,0,3.1c0,0.6-0.3,1.3-0.7,1.8c-0.2,0.2-0.5,0.4-0.8,0.5
				c-0.3,0.2-0.6,0.2-1,0.2c-0.6,0-1.3-0.2-1.8-0.7C780.8,237.2,780.5,236.6,780.5,235.9L780.5,235.9z"/>
		</g>
	</g>
	<g>
		<g>
			<path d="M772.5,240.3c-0.1-4-0.2-8.1-0.1-12.1c0-1.3,1.1-2.6,2.5-2.5c1.3,0.1,2.5,1.1,2.5,2.5c-0.1,4-0.1,8.1,0.1,12.1
				c0,1.3-1.2,2.6-2.5,2.5C773.6,242.7,772.6,241.7,772.5,240.3L772.5,240.3z"/>
		</g>
	</g>
	<g>
		<g>
			<path d="M763.8,238.3c0.1-2.4,0.1-4.9,0.2-7.3c0-1.3,1.1-2.6,2.5-2.5c1.3,0.1,2.5,1.1,2.5,2.5c-0.1,2.4-0.1,4.9-0.2,7.3
				c0,1.3-1.1,2.6-2.5,2.5C765,240.8,763.8,239.7,763.8,238.3L763.8,238.3z"/>
		</g>
	</g>
	<g>
		<g>
			<path d="M755.4,244.9c0.3-6.9,0.4-13.8,0.3-20.6c0-3.2,5-3.2,5,0c0.1,6.9,0,13.8-0.3,20.6c-0.1,1.3-1.1,2.5-2.5,2.5
				C756.6,247.4,755.3,246.3,755.4,244.9L755.4,244.9z"/>
		</g>
	</g>
	<g>
		<g>
			<path d="M747.3,236.1c0-1,0-2,0-3c0-0.6,0.3-1.3,0.7-1.8c0.2-0.2,0.5-0.4,0.8-0.5c0.3-0.2,0.6-0.2,1-0.2c0.6,0,1.3,0.2,1.8,0.7
				c0.4,0.5,0.7,1.1,0.7,1.8c0,1,0,2,0,3c0,0.6-0.3,1.3-0.7,1.8c-0.2,0.2-0.5,0.4-0.8,0.5c-0.3,0.2-0.6,0.2-1,0.2
				c-0.6,0-1.3-0.2-1.8-0.7C747.5,237.4,747.3,236.8,747.3,236.1L747.3,236.1z"/>
		</g>
	</g>
	<g>
		<g>
			<path d="M743.9,216.5c-0.1,11.8-0.1,23.5-0.2,35.3c0,3.2-5,3.2-5,0c0.1-11.8,0.1-23.5,0.2-35.3
				C738.9,213.3,743.9,213.3,743.9,216.5L743.9,216.5z"/>
		</g>
	</g>
	<g>
		<g>
			<path d="M735.6,216.9c-0.1,11.8-0.1,23.5-0.2,35.3c0,3.2-5,3.2-5,0c0.1-11.8,0.1-23.5,0.2-35.3
				C730.6,213.7,735.6,213.7,735.6,216.9L735.6,216.9z"/>
		</g>
	</g>
	<g>
		<g>
			<path d="M722.1,242.7c-0.1-5.5-0.2-11-0.3-16.5c0-1.3,1.2-2.6,2.5-2.5c1.4,0.1,2.5,1.1,2.5,2.5c0.1,5.5,0.2,11,0.3,16.5
				c0,1.3-1.2,2.6-2.5,2.5C723.3,245.1,722.2,244.1,722.1,242.7L722.1,242.7z"/>
		</g>
	</g>
	<g>
		<g>
			<path d="M713.9,240.7c0-4.1,0-8.3,0-12.4c0-1.3,1.1-2.6,2.5-2.5s2.5,1.1,2.5,2.5c0,4.1,0,8.3,0,12.4c0,1.3-1.1,2.6-2.5,2.5
				C715.1,243.2,713.9,242.1,713.9,240.7L713.9,240.7z"/>
		</g>
	</g>
	<g>
		<g>
			<path d="M705.5,247.3c0.1-8.6,0.2-17.3,0.3-25.9c0-3.2,5-3.2,5,0c-0.1,8.6-0.2,17.3-0.3,25.9
				C710.4,250.5,705.4,250.5,705.5,247.3L705.5,247.3z"/>
		</g>
	</g>
	<g>
		<g>
			<path d="M697.1,238.2c0.1-2.5,0.1-5,0.2-7.5c0-1.3,1.1-2.6,2.5-2.5c1.3,0.1,2.5,1.1,2.5,2.5c-0.1,2.5-0.1,5-0.2,7.5
				c0,1.3-1.1,2.6-2.5,2.5C698.3,240.6,697.1,239.6,697.1,238.2L697.1,238.2z"/>
		</g>
	</g>
	<g>
		<g>
			<path d="M689,249.6c-0.1-10.2-0.3-20.3-0.4-30.5c0-3.2,5-3.2,5,0c0.1,10.2,0.3,20.3,0.4,30.5C694.1,252.8,689.1,252.8,689,249.6
				L689,249.6z"/>
		</g>
	</g>
	<g>
		<g>
			<path d="M680.6,252.2c0.1-11.9,0.2-23.7,0.4-35.6c0-3.2,5-3.2,5,0c-0.1,11.9-0.2,23.7-0.4,35.6
				C685.6,255.5,680.6,255.5,680.6,252.2L680.6,252.2z"/>
		</g>
	</g>
	<g>
		<g>
			<path d="M672.5,247.6c0.4-8.8,0.5-17.6,0.3-26.5c-0.1-3.2,4.9-3.2,5,0c0.2,8.8,0.1,17.7-0.3,26.5
				C677.4,250.8,672.4,250.8,672.5,247.6L672.5,247.6z"/>
		</g>
	</g>
	<g>
		<g>
			<path d="M664,240.6c0.1-4.1,0.3-8.3,0.4-12.4c0-1.3,1.1-2.6,2.5-2.5c1.3,0.1,2.5,1.1,2.5,2.5c-0.1,4.1-0.3,8.3-0.4,12.4
				c0,1.3-1.1,2.6-2.5,2.5C665.2,243,663.9,242,664,240.6L664,240.6z"/>
		</g>
	</g>
	<g>
		<g>
			<path d="M655.6,238.6c0-2.6,0-5.2,0-7.8c0-1.3,1.1-2.6,2.5-2.5s2.5,1.1,2.5,2.5c0,2.6,0,5.2,0,7.8c0,1.3-1.1,2.6-2.5,2.5
				C656.7,241.1,655.6,240,655.6,238.6L655.6,238.6z"/>
		</g>
	</g>
	<g>
		<g>
			<path d="M647.3,242.7c0-5.4,0-10.9,0-16.3c0-1.3,1.1-2.6,2.5-2.5s2.5,1.1,2.5,2.5c0,5.4,0,10.9,0,16.3c0,1.3-1.1,2.6-2.5,2.5
				C648.4,245.1,647.3,244.1,647.3,242.7L647.3,242.7z"/>
		</g>
	</g>
	<g>
		<g>
			<path d="M639.2,236.2c0.1-1.1,0.1-2.2,0.2-3.3c0-0.3,0.1-0.7,0.2-1c0.1-0.3,0.3-0.6,0.5-0.8s0.5-0.4,0.8-0.5
				c0.3-0.2,0.6-0.2,1-0.2c0.6,0,1.3,0.2,1.8,0.7c0.4,0.5,0.8,1.1,0.7,1.8c-0.1,1.1-0.1,2.2-0.2,3.3c0,0.3-0.1,0.7-0.2,1
				c-0.1,0.3-0.3,0.6-0.5,0.8s-0.5,0.4-0.8,0.5c-0.3,0.2-0.6,0.2-1,0.2c-0.6,0-1.3-0.2-1.8-0.7C639.5,237.5,639.2,236.9,639.2,236.2
				L639.2,236.2z"/>
		</g>
	</g>
	<g id="Important_Component">
		<polygon class="st2" points="551.5,611.6 551.5,628.8 560,628.8 560,648.6 956.9,648.6 956.9,628.8 965.4,628.8 965.4,611.6 		"/>
	</g>
</g>
</svg>
