<?xml version="1.0" encoding="utf-8"?>
<!-- Generator: Adobe Illustrator 25.4.1, SVG Export Plug-In . SVG Version: 6.00 Build 0)  -->
<svg version="1.1" id="Layer_1" xmlns="http://www.w3.org/2000/svg" xmlns:xlink="http://www.w3.org/1999/xlink" x="0px" y="0px"
	 viewBox="0 0 720 720" style="enable-background:new 0 0 720 720;" xml:space="preserve">
<style type="text/css">
	.st0{fill:#FFFFFF;stroke:#ED1C24;stroke-miterlimit:10;}
	.st1{fill:#2E3192;stroke:#2E3192;stroke-width:0.25;stroke-miterlimit:10;}
	.st2{stroke:#FBB040;stroke-miterlimit:10;}
	.st3{fill:none;stroke:#FBB040;stroke-miterlimit:10;}
	.st4{fill:none;stroke:#FBB040;stroke-width:0.5;stroke-miterlimit:10;}
	.st5{fill:none;stroke:#FBB040;stroke-width:0.25;stroke-miterlimit:10;}
	.st6{fill:none;stroke:#2E3192;stroke-width:0.5;stroke-miterlimit:10;}
</style>
<rect x="313.2" y="187.2" transform="matrix(-1 -1.224647e-16 1.224647e-16 -1 720 720)" class="st0" width="93.6" height="345.6"/>
<g>
	<path class="st1" d="M393.7,320.4c-0.5,0-0.7,0.3-0.8,0.9v0.2c0,0.5,0.2,1.1,0.6,1.6c0.1,0.2,0.1,0.3,0.1,0.3
		c0-0.1-0.1-0.1-0.3-0.1c-0.5,0-1.1-0.3-1.7-0.8c-0.2-0.1-0.4-0.2-0.5-0.2c-0.3,0-0.5,0.2-0.5,0.4c0,0.1,0.2,0.4,0.5,0.8
		c0.4,0.6,0.7,1.6,0.9,3.1v0.1c-0.1,0.5-0.3,0.8-0.6,0.8h-0.1c-0.6,0-1.1-0.3-1.8-0.9c-0.7-0.9-1.3-1.9-1.7-3
		c-0.1-0.4-0.3-0.7-0.6-0.7H387c-0.2,0-0.3,0.1-0.3,0.4v0.1c0.3,0.9,0.8,1.8,1.4,2.9c0.7,1,1.4,1.6,2.2,1.9c0.3,0.1,0.7,0.1,1,0.1
		c0.7,0,1.2-0.4,1.5-1.1c0-0.2,0.1-0.4,0.1-0.6v-0.2c0-0.6-0.2-1.4-0.5-2.3V324l0,0h0c0.4,0.1,0.8,0.1,1,0.1c1,0,1.6-0.5,2-1.4
		l0-0.3c0-0.6-0.3-1.3-1-1.9C394.1,320.5,393.9,320.4,393.7,320.4z M394.5,322.5c0,0.1,0,0.2-0.1,0.2c-0.2,0-0.3-0.3-0.5-1
		c0-0.1,0-0.2,0-0.3l0-0.1c0.2,0,0.4,0.3,0.6,0.9C394.4,322.3,394.5,322.4,394.5,322.5z"/>
	<path class="st1" d="M384.1,320.6H384c-0.7,0.1-1,0.4-1,0.8c0.1,0.6,0.7,1.2,1.6,1.9c0.2,0.1,1,0.4,2.2,0.7c0,0,0,0,0,0.1v0
		c-0.2,0.7-0.5,1.1-0.9,1.4c-0.4,0.2-0.9,0.3-1.5,0.3h-0.3c-1.9,0-3.6-0.8-5.2-2.4c-0.2-0.4-0.5-0.6-0.7-0.6h0
		c-0.2,0-0.4,0.1-0.5,0.4c0.1,0.5,0.9,1.3,2.4,2.4c1.5,0.7,2.7,1,3.5,1c0.1,0,0.3,0,0.8,0.1c0.4,0,1-0.2,1.9-0.5
		c0.5-0.4,0.9-0.9,1.2-1.3c0.1,0,0.2-0.3,0.3-0.9c0-0.3-0.3-0.9-0.8-1.7c-0.8-0.8-1.5-1.2-2-1.3
		C384.8,320.7,384.4,320.6,384.1,320.6z M386.6,323.1C386.6,323.1,386.6,323.1,386.6,323.1L386.6,323.1c-0.2,0-0.7-0.2-1.5-0.5
		c-0.7-0.5-1.1-0.9-1.1-1.1c0,0,0,0,0.1,0h0.1c0.9,0.2,1.6,0.6,2.1,1.2C386.5,322.9,386.6,323.1,386.6,323.1z"/>
	<path class="st1" d="M375.6,320.9l-0.4,0c-0.6,0-1,0.3-1.2,0.7c-0.1,0.1-0.2,0.7-0.4,1.6c-0.4,0.8-1,1.2-1.9,1.2
		c-0.9,0-1.8-0.5-2.8-1.5c-0.2,0-0.3-0.1-0.4-0.1c-0.2,0.1-0.3,0.2-0.3,0.4c0,0.2,0.2,0.5,0.7,0.9c0.6,0.5,1.4,0.9,2.4,1.2
		c0.2,0,0.4,0,0.5,0h0.1c1.3,0,2.2-0.6,2.8-1.7l0.1,0c0,0,0.1,0.3,0.5,0.9c0.7,1,1.5,1.4,2.3,1.4h0c0.6,0,1.1-0.4,1.5-1.1
		c0.1-0.2,0.1-0.4,0.1-0.5c0-0.8-0.4-1.7-1.2-2.5C377.2,321.2,376.4,320.9,375.6,320.9z M378.1,324.2c0,0.5-0.2,0.8-0.6,0.9h-0.1
		c-0.7,0-1.4-0.7-2.1-2.2c-0.2-0.5-0.3-0.8-0.3-1v-0.2c0,0,0.1,0,0.4,0c1,0,1.8,0.5,2.3,1.5C378,323.6,378.1,323.9,378.1,324.2z"/>
	<path class="st1" d="M361.2,314c-0.6,0-0.9,0.3-0.9,0.9c0,0,0,0.1,0,0.2c0.1,1,0.1,1.7,0.2,2.1c0-0.1,0-0.2,0-0.2
		c0,0.9,0.6,3,1.7,6.2c0.4,0.8,0.6,1.3,0.6,1.4v0c-0.3,0.8-1,1.2-2.2,1.2h-0.3c-1.9,0-3.6-0.8-5.2-2.4c-0.2-0.4-0.5-0.6-0.7-0.6h0
		c-0.2,0-0.4,0.1-0.5,0.4c0.1,0.5,0.9,1.3,2.4,2.4c1.5,0.7,2.7,1,3.5,1c0.1,0,0.3,0,0.8,0.1c0.4,0,1-0.1,1.8-0.4
		c0.2-0.1,0.5-0.4,0.9-0.8c-0.1,0,0,0.1,0.1,0.3c0.7,0.9,1.6,1.5,2.7,1.8c0.3,0.1,0.6,0.2,1,0.1c1.4,0,2.3-0.6,2.7-1.9
		c0-0.1,0-0.2,0-0.3v-0.3c0-0.9-0.5-1.8-1.4-2.7c-0.6-0.5-1.4-0.8-2.5-0.9l-0.7,0c-0.3,0.1-0.8,0.2-1.4,0.4c0.5,0.4,0.6,0.4,0.6,0
		c0,0,0-0.1,0-0.3c0-1.4-0.3-2.8-0.9-4.3l-0.9-1.9c-0.3-0.7-0.7-1.1-1.1-1.5C361.4,314,361.3,314,361.2,314z M368.9,325.3
		c0,0.8-0.4,1.4-1.3,1.7c-0.2,0-0.3,0-0.4,0c-1.1-0.1-2.1-0.7-3-1.8c-0.1-0.3-0.2-0.5-0.2-0.6c0.2-0.5,0.3-1.1,0.4-1.9
		c0,0,0.2,0,0.5-0.1c0.2-0.1,0.4-0.2,0.7-0.2c1.5,0,2.6,0.7,3.2,2.2C368.9,325,368.9,325.2,368.9,325.3z M363.4,320.6
		c0-0.1,0-0.2,0-0.2c0,0.2,0,0.6,0.1,1.4c-0.1,1-0.2,1.6-0.2,1.6c0,0-0.1-0.1-0.2-0.4c-0.4-0.8-1-2.6-1.7-5.5l-0.1-2.4
		c0-0.1,0-0.1,0-0.1c0.2,0,0.6,0.9,1.3,2.5C363,318.5,363.3,319.6,363.4,320.6z"/>
	<path class="st1" d="M354.2,322.9L354.2,322.9c-0.3,0.1-0.5,0.2-0.5,0.5v0.2c0.2,0.7,0.5,1.2,0.7,1.4c0.3,0.5,0.4,1,0.4,1.5
		c0,0.2-0.2,0.3-0.5,0.3c-0.9,0-2.1-0.7-3.7-2.1c0-0.1-0.2-0.2-0.4-0.4c-0.4-0.3-0.8-0.8-1.2-1.2h-0.3c-0.3,0-0.4,0.2-0.4,0.4v0.1
		c0,0.2,0.2,0.5,0.7,0.9c0.2,0.3,0.5,0.6,0.9,0.9c1.7,1.6,3.2,2.4,4.4,2.4c0.9,0,1.4-0.4,1.4-1.3c0-0.4-0.1-0.9-0.4-1.6
		c-0.6-1.2-0.9-1.8-0.9-1.8C354.5,322.9,354.4,322.9,354.2,322.9z M352.3,319.5c-0.2,0-0.4,0.2-0.4,0.5c0,0.4,0.2,0.7,0.7,0.8
		c0.1,0,0.2,0.1,0.5,0.1c0.4-0.1,0.6-0.3,0.6-0.6c0-0.4-0.3-0.6-1-0.8C352.5,319.6,352.4,319.5,352.3,319.5z"/>
	<path class="st1" d="M337.8,322.9h-0.2c-0.2,0.1-0.3,0.3-0.3,0.4v0c0.2,0.9,0.8,1.9,1.8,3c0.8,0.7,1.4,1.2,1.8,1.2
		c0.7,0.2,1.2,0.3,1.6,0.3c1.2,0,2-0.6,2.4-1.7c0.4-1.3,0.7-2,0.7-2.1c0.1-0.1,0.2-0.1,0.3-0.2h0.1c0.4,0,0.9,0.3,1.3,0.9
		c0.3,0.3,1,1.3,2.2,3c0.2,0.2,0.3,0.3,0.4,0.3h0.1c0.3,0,0.4-0.2,0.5-0.5c-0.4-1.8-0.8-3.2-1.2-4.4c-0.2-0.2-0.3-0.3-0.5-0.3
		c-0.2,0.1-0.3,0.2-0.4,0.3v0.2c0.2,0.5,0.3,1.1,0.5,2v0.2c0-0.1,0-0.1,0.1-0.1h0c-0.1-0.1-0.5-0.6-1.1-1.4
		c-0.6-0.7-1.2-1.1-1.9-1.1h-0.1c-0.7,0-1.3,0.4-1.5,1.3c-0.4,1.5-0.8,2.2-1,2.3c-0.3,0.3-0.6,0.4-1.1,0.4h0c-0.9,0-1.8-0.4-2.7-1.3
		c-0.8-1-1.3-1.8-1.4-2.3C338.2,323.1,338,322.9,337.8,322.9z"/>
	<path class="st1" d="M335.4,321.5c-0.8,0-1.3,0.3-1.6,1c-0.5,1-1,1.8-1.3,2.4l-0.1,0.1c0,0-0.3-0.2-0.7-0.7
		c-0.8-0.7-1.6-1.2-2.5-1.4c-0.2,0-0.4-0.1-0.5-0.1c-0.3,0.1-0.4,0.2-0.4,0.5c0,0.2,0.5,0.5,1.4,0.7c0.4,0.1,1,0.6,1.8,1.3
		c0.3,0.3,0.4,0.5,0.4,0.5v0.1c0,0.1-0.2,0.5-0.5,1.1c0,0.1-0.4,0.9-1.2,2.5c-0.2,0.5-0.4,1.1-0.5,1.7c-0.3,0.8-0.4,1.7-0.4,2.6
		c0.1,1.7,0.2,2.7,0.3,3.1c0.2,0.9,0.4,1.6,0.6,2c0.3,0.5,0.7,1.1,1.3,1.8c0.6,0.3,1.1,0.5,1.7,0.5c0.9,0,1.7-0.4,2.3-1.1
		c0.2-0.2,0.6-1,1.2-2.2c0.2-0.7,0.4-1.4,0.4-2.2c0-0.4-0.1-1.2-0.4-2.2c-0.1-0.1-0.1-0.4-0.2-1c-0.7-2-1.5-3.8-2.3-5.2
		c-0.6-1-0.9-1.5-0.9-1.6v0c0.1-0.3,0.4-0.8,0.9-1.5h-0.1l0.4,0.9c0.5,1,0.8,1.5,1.1,1.6c0.3,0.2,0.7,0.4,1.1,0.4h0.1
		c0.7,0,1.4-0.4,1.8-1.2c0.1-0.2,0.1-0.4,0.1-0.6v-0.1c0-1.3-0.6-2.4-1.8-3.4C336.3,321.7,335.8,321.5,335.4,321.5z M337.6,325.1
		L337.6,325.1c0,0.6-0.2,1-0.6,1.2c-0.1,0.1-0.3,0.1-0.4,0.1h-0.1c-0.6,0-1-0.5-1.4-1.6c-0.1-0.1-0.2-0.5-0.3-1.1
		c0.1-0.9,0.2-1.3,0.4-1.3c0,0,0-0.1,0.1-0.1h0.2c0.5,0,1,0.4,1.5,1.2C337.4,324.1,337.6,324.6,337.6,325.1z M335.9,335.9
		c0,1.3-0.5,2.6-1.4,3.9c-0.4,0.5-0.9,0.7-1.5,0.7c-1.1,0-1.8-0.8-2.3-2.5c-0.3-1-0.5-2.2-0.5-3.5c0-2.3,0.8-4.8,2.3-7.4
		c0.1-0.2,0.1-0.2,0.2-0.2c0.1,0,0.5,0.6,1.1,1.9c0.6,1.3,1.1,2.5,1.5,3.6C335.7,333.9,335.9,335.1,335.9,335.9z"/>
	<path class="st1" d="M364.1,357l-0.4-9.3c0-0.2,0-0.4-0.3-0.4c-0.2,0-0.2,0.1-0.2,0.2v0.1l0.4,9.2c0,0.2,0,0.5,0.3,0.5
		C364,357.3,364.1,357.2,364.1,357L364.1,357z"/>
	<path class="st1" d="M361.4,355.2c-0.1,0-0.1,0-0.2,0.1l-0.1,0.1c-0.1,0.5-0.4,1.4-1,1.4c-0.4,0-0.7-0.3-0.7-0.7
		c0-0.2,0.1-0.5,0.2-0.8l1.5-3.1c0.3-0.8,0.6-1.7,0.6-2.6c0-1-0.6-2.6-1.8-2.6c-0.8,0-1.2,0.8-1.2,1.5c0,0.3,0,0.6,0.1,0.9
		c0,0.1,0.1,0.1,0.2,0.1c0.2,0,0.2-0.1,0.2-0.2c0-0.3-0.1-0.5-0.1-0.8c0-0.4,0.1-1,0.7-1c0.9,0,1.3,1.5,1.3,2.1
		c0,0.6-0.1,1.3-0.4,1.9c-1.7,3.7-1.9,4.1-1.9,4.6c0,0.7,0.5,1.2,1.2,1.2c0.7,0,1.1-0.6,1.3-1.1c0.1-0.2,0.2-0.4,0.2-0.6
		C361.6,355.4,361.5,355.2,361.4,355.2z"/>
	<path class="st1" d="M391.8,368.6h-0.2c-0.5,0-0.7,0.3-0.8,1v0c0,1.5,0.6,3.5,1.8,6c0.5,0.8,1,1.5,1.4,2.2l0,0.1v0
		c-0.1,0.4-0.4,0.6-1,0.6h-0.3c-1,0-2-0.7-3.2-2.1c-0.2-0.1-0.4-0.2-0.5-0.2h0c-0.3,0.1-0.4,0.2-0.4,0.5c0,0.2,0.3,0.5,0.8,1
		c0.9,0.8,1.6,1.3,2.2,1.5c0.6,0.2,1,0.3,1.4,0.3c0.6,0,1.1-0.3,1.7-0.8c0,0,0,0,0.1,0c0.1,0,0.3,0.2,0.8,0.7
		c0.7,0.5,1.4,0.8,1.9,0.8c0.7,0,1.3-0.4,1.8-1.2c0.1-0.2,0.1-0.4,0.1-0.6V378c0-0.8-0.5-1.6-1.5-2.6c-0.6-0.5-1.4-0.7-2.4-0.7h0
		c-0.1-0.2-0.3-1-0.6-2.3c-0.5-1.3-1-2.3-1.5-2.8C392.8,369,392.3,368.7,391.8,368.6z M398.5,378.3c-0.1,0.7-0.4,1-0.8,1h-0.1
		c-0.4,0-1.1-0.4-1.9-1.1c-0.3-0.3-0.4-0.5-0.4-0.6v-0.1c0.1-0.6,0.2-1.2,0.3-1.8c0-0.1,0.1-0.1,0.2-0.1h0.1c0.5,0,1.2,0.3,1.9,1
		C398.3,377.2,398.5,377.8,398.5,378.3z M394.5,375.3c0,0.1,0,0.4,0,0.9c0,0.3,0,0.4,0,0.5c0,0,0,0,0,0h0c-0.1,0-0.4-0.4-0.8-1.2
		c-0.5-0.7-1-2-1.7-3.9c-0.2-0.9-0.3-1.5-0.3-1.9v-0.1v-0.1h0.1c0.4,0.1,0.9,0.6,1.5,1.6C394,372.6,394.4,374,394.5,375.3z"/>
	<path class="st1" d="M385.6,374.5c-0.3,0-0.4,0.2-0.4,0.5c0.1,0.2,0.3,0.6,0.8,1.2c0.6,1.4,0.9,2.5,0.9,3.2c0,0.8-0.3,1.3-0.7,1.5
		c-0.1,0-0.1,0.1-0.2,0.1h-0.1c-0.5,0-1.1-0.3-1.9-0.9c-0.6-0.6-1.2-1.5-2-2.7c-0.3-0.6-0.6-1-0.9-1c-0.3,0.1-0.4,0.2-0.4,0.5v0.1
		c0.1,0.3,0.6,1,1.5,2.3c0.5,0.7,1.2,1.5,2.2,2.2c0.4,0.2,0.9,0.3,1.5,0.4h0c0.7,0,1.3-0.5,1.8-1.4c0.1-0.2,0.2-0.6,0.2-1.1
		c0-0.9-0.2-1.9-0.7-2.9l-0.2-0.6v-0.1c0,0.1,0,0.1-0.1,0.1h0.1c0.2,0,0.6,0.1,1.2,0.4c0.3,0.1,0.6,0.3,0.9,0.6
		c0.4,0,0.6-0.2,0.7-0.5l-0.3-0.4c-0.1-0.1-0.4-0.3-0.8-0.4c-0.6-0.2-1.5-0.6-2.7-1.1H385.6z"/>
	<path class="st1" d="M378,374.1h-0.1c-0.7,0.1-1,0.4-1,0.8c0.1,0.6,0.7,1.2,1.6,1.9c0.2,0.1,1,0.4,2.2,0.7c0,0,0,0,0,0.1v0
		c-0.2,0.7-0.5,1.1-0.9,1.4c-0.4,0.2-0.9,0.3-1.5,0.3H378c-1.9,0-3.6-0.8-5.2-2.4c-0.2-0.4-0.5-0.6-0.7-0.6h0
		c-0.2,0-0.4,0.1-0.5,0.4c0.1,0.5,0.9,1.3,2.4,2.4c1.5,0.7,2.7,1,3.5,1c0.1,0,0.3,0,0.8,0.1c0.4,0,1-0.2,1.9-0.5
		c0.5-0.4,0.9-0.9,1.2-1.3c0.1,0,0.2-0.3,0.3-0.9c0-0.3-0.3-0.9-0.8-1.8c-0.8-0.8-1.5-1.2-2-1.3C378.6,374.1,378.3,374.1,378,374.1z
		 M380.4,376.5C380.4,376.5,380.4,376.5,380.4,376.5L380.4,376.5c-0.2,0-0.7-0.2-1.5-0.5c-0.7-0.5-1.1-0.9-1.1-1.1c0,0,0,0,0.1,0
		h0.1c0.9,0.2,1.6,0.6,2.1,1.2C380.3,376.3,380.4,376.5,380.4,376.5z"/>
	<path class="st1" d="M369.4,374.3l-0.4,0c-0.6,0-1,0.3-1.2,0.7c-0.1,0.1-0.2,0.7-0.4,1.6c-0.4,0.8-1,1.2-1.9,1.2
		c-0.9,0-1.8-0.5-2.8-1.5c-0.2,0-0.3-0.1-0.4-0.1c-0.2,0.1-0.3,0.2-0.3,0.4c0,0.2,0.2,0.5,0.7,0.9c0.6,0.5,1.4,0.9,2.4,1.2
		c0.2,0,0.4,0,0.5,0h0.1c1.3,0,2.2-0.6,2.8-1.7l0.1,0c0,0,0.1,0.3,0.5,0.9c0.7,1,1.5,1.4,2.3,1.4h0c0.6,0,1.1-0.4,1.5-1.1
		c0.1-0.2,0.1-0.4,0.1-0.5c0-0.8-0.4-1.7-1.2-2.5C371,374.6,370.3,374.3,369.4,374.3z M371.9,377.6c0,0.5-0.2,0.8-0.6,0.9h-0.1
		c-0.7,0-1.4-0.7-2.1-2.2c-0.2-0.5-0.3-0.8-0.3-1v-0.2c0,0,0.1,0,0.4,0c1,0,1.8,0.5,2.3,1.5C371.8,377,371.9,377.3,371.9,377.6z"/>
	<path class="st1" d="M362.1,375.9c-0.3,0.1-0.4,0.2-0.4,0.3v0.1c0,0.1,0.2,0.5,0.6,1.2c0.2,0.5,0.3,0.8,0.3,0.9v-0.1
		c0.1,0-0.1-0.2-0.5-0.5c-0.4-0.3-0.8-0.4-1-0.4h-0.3c-0.6,0-1.1,0.4-1.3,1.2c0,0,0,0,0.1,0h0c0,0-0.2-0.2-0.4-0.6
		c-0.4-0.4-0.9-0.6-1.3-0.6c-0.6,0-1.1,0.3-1.4,1c-0.2,0.3-0.4,0.6-0.7,0.8c-0.6,0.4-1.1,0.6-1.3,0.6h-0.1c-0.8,0-1.6-0.4-2.3-1.1
		c-0.6-0.5-1.1-1-1.3-1.5c-0.3-0.6-0.6-0.9-0.9-0.9h0c-0.2,0-0.4,0.1-0.4,0.4c0.2,0.6,0.7,1.3,1.5,2.2c1.2,1.1,2.2,1.7,3.1,1.7h0.4
		c0.8,0,1.7-0.5,2.6-1.4c0.5-0.7,0.8-1.1,0.9-1.1h0.1c0.4,0,0.8,0.5,1.1,1.5c0.3,0.7,0.6,1.1,0.7,1.1l0.1,0c0.4,0,0.6-0.5,0.6-1.5
		c0.1-0.7,0.2-1.1,0.4-1.1c0,0,0-0.1,0-0.1h0c0.4,0,1.3,0.9,2.6,2.8c0.3,0.3,0.5,0.4,0.6,0.4h0c0.3,0,0.4-0.2,0.4-0.5
		c-0.5-1.4-1.1-2.9-1.8-4.3C362.6,376.1,362.4,375.9,362.1,375.9z"/>
	<path class="st1" d="M349.8,376.3L349.8,376.3c-0.3,0.1-0.5,0.2-0.5,0.5v0.2c0.2,0.7,0.5,1.2,0.7,1.4c0.3,0.5,0.4,1,0.4,1.5
		c0,0.2-0.2,0.3-0.5,0.3c-0.9,0-2.1-0.7-3.7-2.1c0-0.1-0.2-0.2-0.4-0.4c-0.4-0.3-0.8-0.8-1.2-1.2h-0.3c-0.3,0-0.4,0.2-0.4,0.4v0.1
		c0,0.2,0.2,0.5,0.7,0.9c0.2,0.3,0.5,0.6,0.9,0.9c1.7,1.6,3.2,2.4,4.4,2.4c0.9,0,1.4-0.4,1.4-1.3c0-0.4-0.1-0.9-0.4-1.6
		c-0.6-1.2-0.9-1.8-0.9-1.8C350.1,376.3,350,376.3,349.8,376.3z M347.9,373c-0.2,0-0.4,0.2-0.4,0.5c0,0.4,0.2,0.7,0.7,0.8
		c0.1,0,0.2,0.1,0.5,0.1c0.4-0.1,0.6-0.3,0.6-0.6c0-0.4-0.3-0.6-1-0.8C348.1,373,348,373,347.9,373z"/>
	<path class="st1" d="M333.3,376.3h-0.2c-0.2,0.1-0.3,0.3-0.3,0.4v0c0.2,0.9,0.8,1.9,1.8,3c0.8,0.7,1.4,1.2,1.8,1.2
		c0.7,0.2,1.2,0.3,1.6,0.3c1.2,0,2-0.6,2.4-1.7c0.4-1.3,0.7-2,0.7-2.1c0.1-0.1,0.2-0.1,0.3-0.2h0.1c0.4,0,0.9,0.3,1.3,0.9
		c0.3,0.3,1,1.3,2.2,3c0.2,0.2,0.3,0.3,0.4,0.3h0.1c0.3,0,0.4-0.2,0.5-0.5c-0.4-1.8-0.8-3.2-1.2-4.4c-0.2-0.2-0.3-0.3-0.5-0.3
		c-0.2,0.1-0.3,0.2-0.4,0.3v0.2c0.2,0.5,0.3,1.1,0.5,2v0.2c0-0.1,0-0.1,0.1-0.1h0c-0.1-0.1-0.5-0.6-1.1-1.4
		c-0.6-0.7-1.2-1.1-1.9-1.1h-0.1c-0.7,0-1.3,0.4-1.5,1.3c-0.4,1.5-0.8,2.2-1,2.3c-0.3,0.3-0.6,0.4-1.1,0.4h0c-0.9,0-1.8-0.4-2.7-1.3
		c-0.8-1-1.3-1.8-1.4-2.3C333.8,376.5,333.5,376.3,333.3,376.3z"/>
	<path class="st1" d="M331,374.9c-0.8,0-1.3,0.3-1.6,1c-0.5,1-1,1.8-1.3,2.4l-0.1,0.1c0,0-0.3-0.2-0.7-0.7c-0.8-0.7-1.6-1.2-2.5-1.4
		c-0.2,0-0.4-0.1-0.5-0.1c-0.3,0.1-0.4,0.2-0.4,0.5c0,0.2,0.5,0.5,1.4,0.7c0.4,0.1,1,0.6,1.8,1.3c0.3,0.3,0.4,0.5,0.4,0.5v0.1
		c0,0.1-0.2,0.5-0.5,1.1c0,0.1-0.4,0.9-1.2,2.5c-0.2,0.5-0.4,1.1-0.5,1.7c-0.3,0.8-0.4,1.7-0.4,2.6c0.1,1.7,0.2,2.7,0.3,3.1
		c0.2,0.9,0.4,1.6,0.6,2c0.3,0.5,0.7,1.1,1.3,1.8c0.6,0.3,1.1,0.5,1.7,0.5c0.9,0,1.7-0.4,2.3-1.1c0.2-0.2,0.6-1,1.2-2.2
		c0.2-0.7,0.4-1.4,0.4-2.2c0-0.4-0.1-1.2-0.4-2.2c-0.1-0.1-0.1-0.4-0.2-1c-0.7-2-1.5-3.8-2.3-5.2c-0.6-1-0.9-1.5-0.9-1.6v0
		c0.1-0.3,0.4-0.8,0.9-1.5h-0.1l0.4,0.9c0.5,1,0.8,1.5,1.1,1.6c0.3,0.2,0.7,0.4,1.1,0.4h0.1c0.7,0,1.4-0.4,1.8-1.2
		c0.1-0.2,0.1-0.4,0.1-0.6v-0.1c0-1.3-0.6-2.4-1.8-3.4C331.9,375.1,331.4,374.9,331,374.9z M333.1,378.5L333.1,378.5
		c0,0.6-0.2,1-0.6,1.2c-0.1,0.1-0.3,0.1-0.4,0.1H332c-0.6,0-1-0.5-1.4-1.6c-0.1-0.1-0.2-0.5-0.3-1.1c0.1-0.9,0.2-1.3,0.4-1.3
		c0,0,0-0.1,0.1-0.1h0.2c0.5,0,1,0.4,1.5,1.2C333,377.5,333.1,378,333.1,378.5z M331.5,389.3c0,1.3-0.5,2.6-1.4,3.9
		c-0.4,0.5-0.9,0.7-1.5,0.7c-1.1,0-1.8-0.8-2.3-2.5c-0.3-1-0.5-2.2-0.5-3.5c0-2.3,0.8-4.8,2.3-7.4c0.1-0.2,0.1-0.2,0.2-0.2
		c0.1,0,0.5,0.6,1.1,1.9c0.6,1.3,1.1,2.5,1.5,3.6C331.2,387.3,331.5,388.5,331.5,389.3z"/>
	<path class="st1" d="M369.2,400.5h-0.1c-0.1,0-0.1,0.1-0.1,0.1v0.3l-1.1,7.7l0-0.1l-0.8-7.8c0-0.2-0.1-0.2-0.2-0.2
		c-0.1,0-0.2,0-0.3,0.2l-1.3,7.9l-0.8-7.8v0c0-0.2-0.1-0.3-0.3-0.3c-0.1,0-0.2,0.1-0.2,0.3v0l0.8,9.6c0,0.2,0.1,0.3,0.3,0.3
		c0.2,0,0.3-0.2,0.4-0.4l1.3-7.5l0.7,7.6c0,0.2,0.1,0.5,0.3,0.5c0.1,0,0.3-0.1,0.3-0.2l1.4-9.6v0
		C369.5,400.7,369.4,400.5,369.2,400.5z"/>
	<path class="st1" d="M362.8,410.4l-0.4-9.3c0-0.2,0-0.4-0.3-0.4c-0.2,0-0.2,0.1-0.2,0.2v0.1l0.4,9.2c0,0.2,0,0.5,0.3,0.5
		C362.7,410.7,362.8,410.6,362.8,410.4L362.8,410.4z"/>
	<path class="st1" d="M359.2,401.4l0-0.2h0c0.1,0,0.5,0.1,0.6,0.1c0.1,0,0.1,0.1,0.2,0.1c0.1,0,0.3-0.1,0.3-0.3
		c0-0.1-0.1-0.2-0.2-0.3c-0.7-0.2-1.3-0.3-2-0.3h-0.1c-0.1,0-0.5,0-0.5,0h0c-0.2,0-0.5,0.1-0.5,0.3c0,0.2,0.1,0.3,0.3,0.3h0.1
		c0,0,0.2-0.1,0.2-0.1c0.1,0,0.4,0,0.6,0c0.1,0,0.2,0,0.4,0c0,0,0.1,0.1,0.1,0.1c0,0.4,0,1.7,0,2.1v2.4c0,0.7-0.2,3.9-0.2,4.5v0.1
		c0,0.2,0.1,0.3,0.3,0.3c0.1,0,0.2-0.1,0.2-0.2C359.2,407.3,359.2,404.2,359.2,401.4z"/>
	<path class="st1" d="M356.3,400.8c0-0.1-0.1-0.2-0.2-0.2c-0.1,0-0.2,0.1-0.2,0.2l0.2,5.4l-2-0.2l-0.2-5.4c0-0.1-0.2-0.2-0.2-0.2
		c-0.1,0-0.2,0.1-0.3,0.2l0.4,9.8c0,0.1,0.1,0.2,0.2,0.2c0.1,0,0.2,0,0.2-0.2c0,0,0-0.2,0-0.3c0-1.1-0.1-2.6-0.1-3.7h0.3l1.6,0.2
		l0.1,3.7c0,0.1,0.1,0.2,0.2,0.2c0.1,0,0.2,0,0.2-0.1v-1.9L356.3,400.8z"/>
	<path class="st1" d="M392.2,427.4c-0.9,0.2-1.4,0.8-1.6,1.8c-0.1,0.3-0.1,0.6-0.1,0.9c0,0.1,0.1,0.5,0.2,1.4c0,0.1-0.2,0.1-0.6,0.1
		H390c-0.7,0-1.8-0.3-3.2-0.8c-0.4-0.2-0.9-0.5-1.5-0.9c-0.2-0.1-0.3-0.1-0.4-0.1c-0.3,0.1-0.4,0.2-0.4,0.4c0,0.4,0.8,0.9,2.5,1.6
		c1.3,0.4,2.4,0.7,3.2,0.7c0.3,0,0.5,0,0.7-0.1c0.2,0,0.4,0.2,0.7,0.7c0.7,0.6,1,0.9,1.1,0.9c0.4,0.3,0.9,0.4,1.6,0.5
		c1,0,1.8-0.5,2.2-1.4c0.1-0.3,0.2-0.6,0.2-1c0-1-0.6-2.1-1.8-3.3C393.9,427.8,393,427.4,392.2,427.4z M395.9,431.9
		c0,0.7-0.4,1.2-1.1,1.5c-0.1,0-0.3,0.1-0.4,0.1h0c-0.8-0.1-1.5-0.5-2.1-1.3l0-0.1c0.4-0.1,0.8-0.3,1.2-0.6c0.6-0.4,1-0.9,1.2-1.6
		c0-0.1,0-0.3-0.1-0.7l0-0.1h-0.2c0.7,0.5,1.3,1.3,1.6,2.3C395.8,431.7,395.9,431.9,395.9,431.9z M393.5,429.9
		c-0.1,0.5-0.6,1-1.6,1.4c-0.1,0-0.1,0-0.2,0c-0.1,0-0.1-0.4-0.2-1.1v-0.1c0-0.8,0.2-1.4,0.6-1.8c0.1-0.1,0.2-0.1,0.2-0.1
		c0.2,0,0.6,0.3,1,0.9C393.4,429.5,393.5,429.7,393.5,429.9z"/>
	<path class="st1" d="M383,429.3c-0.9,0-1.7,0.3-2.3,0.9l-0.1,0c0,0-0.4-0.1-1.1-0.4c-0.6-0.1-1.4-0.2-2.4-0.3
		c-0.5,0-0.8,0.2-0.8,0.5c0,0.2,0.1,0.4,0.4,0.4c0.3,0,0.6,0,1,0c0.9,0,1.8,0.2,2.7,0.7c0,0,0.1,0.4,0.1,1.1c0.4,1.5,1,2.3,2,2.3
		c0.8-0.1,1.2-0.5,1.2-1.1c0-0.5-0.3-1.1-0.8-1.8l-1-0.8v-0.1c0-0.1,0.2-0.2,0.5-0.4c0.2-0.1,0.5-0.2,0.7-0.2h0
		c0.7,0,1.2,0.3,1.5,0.9c0,0.2,0,0.2,0,0.3c-0.1,1.4-0.2,3-0.2,4.8c0,1.9,0.3,3.7,0.8,5.5c0.4,1.1,0.8,1.7,1.2,1.8
		c0.4,0.2,0.7,0.4,1.1,0.4c0.2,0,0.4-0.2,0.6-0.5c0.2-0.3,0.3-0.8,0.3-1.6c0-1.4-0.5-3.5-1.4-6.4c-0.5-1.6-0.8-2.6-0.9-3
		c-0.3-0.8-0.5-1.5-0.5-2c0-0.2-0.2-0.3-0.7-0.4c0,0-0.3-0.1-0.7-0.4C383.7,429.4,383.3,429.3,383,429.3z M387.2,441.8
		c0,0.8-0.1,1.2-0.2,1.2c-0.3-0.1-0.4-0.2-0.6-0.4c-0.3-0.5-0.6-1.5-1-3.2l-0.2-1.2c0,0.1,0,0.2,0.1,0.2c-0.1-0.8-0.2-1.5-0.2-2.3
		v-0.2c0-1.4,0-2.2,0.1-2.5c0,0,0.1,0.7,0.5,2c0.5,1.6,0.9,3,1.1,4.2C387.1,440.3,387.2,441.1,387.2,441.8z M382.4,433.4v0.1
		c0,0.1-0.1,0.2-0.2,0.2c-0.2-0.1-0.4-0.3-0.6-0.6c-0.2-0.5-0.3-0.9-0.3-1.2c0,0,0,0,0,0c0.3,0.1,0.6,0.3,0.9,0.8
		C382.3,433,382.4,433.2,382.4,433.4z"/>
	<path class="st1" d="M373.6,427.5h-0.1c-0.7,0.1-1,0.4-1,0.8c0.1,0.6,0.7,1.2,1.7,1.9c0.2,0.1,1,0.4,2.2,0.7c0,0,0,0,0,0.1v0
		c-0.2,0.7-0.5,1.1-0.9,1.4c-0.4,0.2-0.9,0.3-1.5,0.3h-0.3c-1.9,0-3.6-0.8-5.2-2.4c-0.2-0.4-0.5-0.6-0.7-0.6h0
		c-0.2,0-0.4,0.1-0.5,0.4c0.1,0.5,0.9,1.3,2.4,2.4c1.5,0.7,2.7,1,3.5,1c0.1,0,0.3,0,0.8,0.1c0.4,0,1.1-0.2,1.9-0.5
		c0.5-0.4,0.9-0.9,1.2-1.3c0.1,0,0.2-0.3,0.3-0.9c0-0.3-0.3-0.9-0.8-1.8c-0.8-0.8-1.5-1.2-2-1.3
		C374.2,427.5,373.9,427.5,373.6,427.5z M376,429.9C376,429.9,376,429.9,376,429.9L376,429.9c-0.2,0-0.7-0.2-1.5-0.5
		c-0.7-0.5-1.1-0.9-1.1-1.1c0,0,0,0,0.1,0h0.1c0.9,0.2,1.6,0.6,2.1,1.2C375.9,429.7,376,429.9,376,429.9z"/>
	<path class="st1" d="M356.6,429.7h-0.2c-0.2,0.1-0.3,0.3-0.3,0.4v0c0.2,0.9,0.8,1.9,1.8,3c0.8,0.7,1.4,1.2,1.8,1.2
		c0.7,0.2,1.2,0.3,1.6,0.3c1.2,0,2-0.6,2.4-1.7c0.4-1.3,0.7-2,0.7-2.1c0.1-0.1,0.2-0.1,0.3-0.2h0.1c0.4,0,0.9,0.3,1.3,0.9
		c0.3,0.3,1,1.3,2.2,3c0.2,0.2,0.3,0.3,0.4,0.3h0.1c0.3,0,0.4-0.2,0.5-0.5c-0.4-1.8-0.8-3.2-1.2-4.4c-0.2-0.2-0.3-0.3-0.5-0.3
		c-0.2,0.1-0.3,0.2-0.4,0.3v0.2c0.2,0.5,0.3,1.1,0.5,2v0.2c0-0.1,0-0.1,0.1-0.1h0c-0.1-0.1-0.5-0.6-1.1-1.4
		c-0.6-0.7-1.2-1.1-1.9-1.1H365c-0.7,0-1.3,0.4-1.5,1.3c-0.4,1.5-0.8,2.2-1,2.3c-0.3,0.3-0.6,0.4-1.1,0.4h0c-0.9,0-1.8-0.4-2.7-1.3
		c-0.8-1-1.3-1.8-1.4-2.3C357,429.9,356.8,429.7,356.6,429.7z"/>
	<path class="st1" d="M350,427.5h-0.1c-0.7,0.1-1,0.4-1,0.8c0.1,0.6,0.7,1.2,1.7,1.9c0.2,0.1,1,0.4,2.2,0.7c0,0,0,0,0,0.1v0
		c-0.2,0.7-0.5,1.1-0.9,1.4c-0.4,0.2-0.9,0.3-1.5,0.3H350c-1.9,0-3.6-0.8-5.2-2.4c-0.2-0.4-0.5-0.6-0.7-0.6h0
		c-0.2,0-0.4,0.1-0.5,0.4c0.1,0.5,0.9,1.3,2.4,2.4c1.5,0.7,2.7,1,3.5,1c0.1,0,0.3,0,0.8,0.1c0.4,0,1-0.2,1.9-0.5
		c0.5-0.4,0.9-0.9,1.2-1.3c0.1,0,0.2-0.3,0.3-0.9c0-0.3-0.3-0.9-0.8-1.8c-0.8-0.8-1.5-1.2-2-1.3C350.6,427.5,350.3,427.5,350,427.5z
		 M352.4,429.9C352.4,429.9,352.5,429.9,352.4,429.9L352.4,429.9c-0.2,0-0.7-0.2-1.5-0.5c-0.7-0.5-1.1-0.9-1.1-1.1c0,0,0,0,0.1,0
		h0.1c0.9,0.2,1.6,0.6,2.1,1.2C352.3,429.7,352.4,429.9,352.4,429.9z"/>
	<path class="st1" d="M344.2,429.4c-0.2,0-0.3,0.1-0.4,0.3c0,0.1,0.2,0.9,0.6,2.3c0-0.1,0-0.2,0-0.2c0,0.4,0.1,0.6,0.1,0.7
		c0,0.4-0.1,0.6-0.3,0.7c-0.1,0-0.1,0-0.1,0c-0.3-0.1-0.8-0.6-1.5-1.7c-0.3-0.5-0.5-0.7-0.7-0.7h-0.1c-0.3,0-0.4,0.2-0.4,0.4v0
		c0.2,1,0.3,1.7,0.3,2v0.5c0,0.1,0,0.2,0,0.2h0.1c-0.1,0-0.4-0.3-0.9-1c-1.5-1.7-2.5-2.8-3.3-3.2c-0.1,0-0.3,0-0.3,0
		c-0.2,0.1-0.4,0.2-0.4,0.3c0,0.2,0.2,0.4,0.6,0.7c0.7,0.5,1.4,1.3,2.2,2.3c1.2,1.4,1.8,2.2,1.8,2.5c0,0.5,0,1.3-0.1,2.5
		c0,0.8,0.2,2.2,0.5,4.1c0.3,1.1,0.6,2,1,2.6c0.4,0.6,0.8,1,1.3,1.3c0.4,0.2,0.7,0.3,1,0.3h0.2c0.8,0,1.3-0.6,1.3-1.8
		c0-0.5-0.1-0.8-0.1-1c0,0.1,0,0.2,0,0.2c-0.1-0.9-0.6-2.3-1.5-4.3c-0.7-1.4-1.5-2.8-2.4-4.1l-0.1-0.3c0-0.9,0.1-1.5,0.1-1.7
		c0,0,0-0.1,0-0.3c0-0.1,0-0.1,0-0.1c0,0,0.3,0.3,0.8,0.7c0.3,0.2,0.6,0.3,0.9,0.3c0.5,0,0.9-0.4,1.1-1.2v-0.4
		c0-0.6-0.3-1.6-0.8-2.9C344.4,429.5,344.3,429.5,344.2,429.4z M345.5,444.7c-0.1,0.7-0.2,1-0.4,1H345c-1,0-1.8-1.4-2.4-4.3
		c0,0.1,0,0.2,0.1,0.2l-0.2-1.5c0,0.1,0,0.2,0.1,0.2c-0.1-0.8-0.2-1.4-0.2-1.8c0-1,0-1.5,0-1.5c0,0,0.2,0.2,0.4,0.6
		c0.9,1.4,1.6,2.9,2.2,4.5C345.3,443,345.5,443.9,345.5,444.7z"/>
	<path class="st1" d="M334.3,427.5h-0.1c-0.7,0.1-1,0.4-1,0.8c0.1,0.6,0.7,1.2,1.7,1.9c0.2,0.1,1,0.4,2.2,0.7c0,0,0,0,0,0.1v0
		c-0.2,0.7-0.5,1.1-0.9,1.4c-0.4,0.2-0.9,0.3-1.5,0.3h-0.3c-1.9,0-3.6-0.8-5.2-2.4c-0.2-0.4-0.5-0.6-0.7-0.6h0
		c-0.2,0-0.4,0.1-0.5,0.4c0.1,0.5,0.9,1.3,2.4,2.4c1.5,0.7,2.7,1,3.5,1c0.1,0,0.3,0,0.8,0.1c0.4,0,1-0.2,1.9-0.5
		c0.5-0.4,0.9-0.9,1.2-1.3c0.1,0,0.2-0.3,0.3-0.9c0-0.3-0.3-0.9-0.8-1.8c-0.8-0.8-1.5-1.2-2-1.3C335,427.5,334.6,427.5,334.3,427.5z
		 M336.8,429.9C336.8,429.9,336.8,429.9,336.8,429.9L336.8,429.9c-0.2,0-0.7-0.2-1.5-0.5c-0.7-0.5-1.1-0.9-1.1-1.1c0,0,0,0,0.1,0
		h0.1c0.9,0.2,1.6,0.6,2.1,1.2C336.7,429.7,336.8,429.9,336.8,429.9z"/>
	<path class="st1" d="M328.6,427.1c-1,0.1-1.5,0.6-1.5,1.4c0,0.6,0.3,1.2,0.9,2.1v-0.1c-0.4,0.4-0.5,0.6-0.5,0.6v-0.1l-0.3,0.1
		c0,0-0.6-0.3-1.8-0.8c-0.6-0.2-1.4-0.4-2.3-0.6c-0.3,0.1-0.4,0.3-0.4,0.5c0.2,0.3,0.5,0.5,0.9,0.5c1.4,0.3,2.4,0.7,3.1,1.2
		l-0.4,1.3l-0.1,0.4h0l0.1-0.1l0,0.1l0,0c0,0.3,0,0.4,0,0.3h0c0.3,1.1,0.6,1.7,1.1,2c0.3,0.3,0.8,0.6,1.7,0.7l0.3,0.1v0
		c-0.1-0.1-0.1-0.1,0.1,0c0.3,0,0.4,0,0.4,0v0c0.7-0.3,1-0.7,1-1.3c0-1-0.8-2.2-2.3-3.5c-0.1-0.1-0.1-0.1-0.1-0.2v0
		c0-0.1,0.3-0.4,0.8-0.9c0.6-0.7,0.9-1.3,1-1.8c0-0.1,0-0.2,0-0.2c0,0.1,0,0.2,0,0.1c0-0.4-0.1-0.8-0.4-1.2
		C329.4,427.3,329,427.1,328.6,427.1z M329.8,435.3v0.2c0,0.2-0.1,0.3-0.3,0.3c-0.5,0-1.1-0.3-1.7-0.9c-0.2-0.3-0.4-0.8-0.4-1.4
		c0.1-0.7,0.2-1,0.4-1c0.5,0.2,1,0.8,1.7,1.7C329.6,434.5,329.8,434.9,329.8,435.3z M329.2,428.7L329.2,428.7c0,0.4-0.2,0.7-0.5,1.1
		l0,0h0.1c-0.4-0.6-0.7-1.1-0.7-1.4c0-0.2,0.2-0.3,0.5-0.4C328.9,428,329,428.3,329.2,428.7z"/>
</g>
<line class="st2" x1="392.1" y1="477.1" x2="396.6" y2="497"/>
<line class="st2" x1="333.8" y1="467.6" x2="323.7" y2="485.2"/>
<line class="st2" x1="396.6" y1="497" x2="365.7" y2="491.9"/>
<line class="st3" x1="353.4" y1="489.7" x2="323.4" y2="485.2"/>
<line class="st3" x1="363.2" y1="468.9" x2="360.3" y2="487.2"/>
<path class="st3" d="M365.7,491.9c-0.6-0.8-1.4-1.9-2.6-2.9c-1-0.8-2-1.4-2.8-1.8"/>
<path class="st3" d="M353.4,489.7c0.9-0.5,1.9-1,3.2-1.5c1.4-0.5,2.6-0.8,3.7-0.9"/>
<path class="st3" d="M365.7,491.9c-1.5,0.3-3.9,0.5-6.8-0.1c-2.4-0.5-4.3-1.5-5.5-2.2"/>
<path class="st3" d="M392.2,477.4c-2.7-2.1-5.1-3.6-6.8-4.6c-5.2-3-10.7-6.1-17.3-5.3c-2.1,0.3-3.8,0.9-4.8,1.3"/>
<path class="st3" d="M333.6,467.9c3.4-1.2,6.3-1.9,8.4-2.3c6.1-1.2,11.2-2.1,16.4,0.1c2.2,1,3.8,2.2,4.8,3.1"/>
<line class="st4" x1="396.6" y1="497" x2="389.9" y2="490.2"/>
<path class="st4" d="M325.9,483.8c1-0.6,2.2-1.2,3.4-1.8c1.1-0.6,2.2-1,3.3-1.5"/>
<path class="st4" d="M360.3,487.2c-2.7-4.7-5.7-6.3-7.5-7c-2.4-0.9-4.1-0.5-11.1-0.1c-3.9,0.2-7,0.4-9.1,0.4"/>
<path class="st4" d="M389.9,490.2c-3.6-1.3-8-2.9-12.9-4.5c-5.4-1.8-8.1-2.5-11.2-1.7c-2.5,0.7-4.3,2.1-5.4,3.1"/>
<line class="st4" x1="387.1" y1="473.9" x2="389.9" y2="490.2"/>
<line class="st4" x1="339.8" y1="466.1" x2="332.6" y2="480.6"/>
<line class="st4" x1="391.6" y1="491.3" x2="389.3" y2="475.3"/>
<line class="st4" x1="391.1" y1="476.6" x2="393.2" y2="493.6"/>
<line class="st4" x1="394.4" y1="494.5" x2="392.2" y2="477.4"/>
<line class="st4" x1="325.9" y1="483.8" x2="335.1" y2="467.4"/>
<line class="st4" x1="329.3" y1="482" x2="336.2" y2="467.4"/>
<line class="st4" x1="331.2" y1="480.6" x2="337.7" y2="466.6"/>
<path class="st4" d="M358.9,487.5c-1.5-1.3-3.9-3-7.2-4.1c-2.4-0.8-4.4-1-11.7-1.2c-2.8-0.1-6.4-0.1-10.6-0.2"/>
<path class="st4" d="M356,488.4c-1.1-0.6-2.7-1.4-4.9-2.2c-4.2-1.4-7.4-1.5-13.9-1.8c-2.6-0.1-6.5-0.3-11.6-0.7"/>
<path class="st4" d="M357.5,487.9c-1.1-0.7-2.9-1.9-5.4-2.8c-4.1-1.5-7-1.4-16.1-1.8c-1.7-0.1-4.5-0.2-8-0.5"/>
<path class="st4" d="M360.3,487.2c-3.3-3.7-6.4-5.1-8.6-5.7c-3.5-1-5.8-0.2-12.7-0.4c-3.3-0.1-6-0.4-7.8-0.6"/>
<path class="st4" d="M365,491c1-0.4,2.5-0.9,4.4-1.2c4.6-0.6,7.9,0.6,12.9,2.2c3,0.9,7.4,2.3,13,3.7"/>
<path class="st4" d="M394.4,494.5c-4.4-1.5-8.8-2.9-15-4.9c-4.3-1.4-7.9-2.5-12-1.3c-1.5,0.5-2.6,1.1-3.4,1.6"/>
<path class="st4" d="M392.2,492.6c-2.5-0.8-5.9-1.9-9.9-3.1c-9-2.8-12.7-3.7-16.5-2.1c-1.2,0.5-2.1,1.2-2.7,1.7"/>
<path class="st4" d="M391.6,491.2c-4.2-1.1-7.6-2.1-9.8-2.8c-7.9-2.5-11.1-4.2-15.2-3c-2.3,0.6-3.9,1.9-4.8,2.8"/>
<line class="st3" x1="391.6" y1="498.9" x2="385.2" y2="495.1"/>
<line class="st3" x1="365" y1="505.6" x2="391.6" y2="498.9"/>
<line class="st3" x1="329.3" y1="487.9" x2="365" y2="505.6"/>
<line class="st3" x1="335.4" y1="487" x2="329.3" y2="487.9"/>
<line class="st3" x1="329.3" y1="496.1" x2="329.3" y2="487.5"/>
<line class="st3" x1="365" y1="505.6" x2="365" y2="512.3"/>
<line class="st3" x1="363.2" y1="512.3" x2="365" y2="512.3"/>
<line class="st3" x1="363.2" y1="504.7" x2="363.2" y2="512.3"/>
<line class="st3" x1="329.3" y1="495.8" x2="363.4" y2="512.4"/>
<line class="st3" x1="364.5" y1="505.4" x2="364.4" y2="512.1"/>
<line class="st3" x1="363.8" y1="505.3" x2="363.8" y2="512"/>
<line class="st3" x1="391.6" y1="498.6" x2="391.6" y2="506"/>
<line class="st3" x1="364.8" y1="512.4" x2="391.6" y2="505.6"/>
<line class="st4" x1="391.6" y1="500.6" x2="364.7" y2="507.3"/>
<line class="st4" x1="391.6" y1="502.3" x2="365" y2="508.7"/>
<line class="st4" x1="391.6" y1="503.8" x2="364.4" y2="510.7"/>
<line class="st5" x1="393.8" y1="187.2" x2="393.6" y2="255.2"/>
<line class="st5" x1="375.4" y1="187.2" x2="374.9" y2="283.2"/>
<line class="st5" x1="352.1" y1="187.2" x2="351.9" y2="223.7"/>
<line class="st5" x1="331.1" y1="187.2" x2="330.9" y2="260.4"/>
<g>
	<path class="st6" d="M367.5,280.4c7.6,0.6,13.2,7.3,12.6,14.3c-0.6,6.3-6.1,11.6-12.9,11.8"/>
	<path class="st6" d="M367.5,280.4c1,1,5.1,5.5,5.3,12.6c0.1,7.8-4.8,12.7-5.6,13.5"/>
</g>
<polygon class="st6" points="328.2,268.4 330.8,267.1 333.4,268.5 333,265.6 335.1,263.6 332.2,263.1 331,260.5 329.6,263.1 
	326.7,263.4 328.8,265.5 "/>
<polygon class="st6" points="349.2,231.4 351.8,230.1 354.4,231.5 353.9,228.7 356,226.7 353.2,226.2 351.9,223.5 350.6,226.1 
	347.7,226.5 349.7,228.6 "/>
<polygon class="st6" points="390.9,263.2 393.5,261.9 396.1,263.3 395.6,260.4 397.8,258.4 394.9,257.9 393.6,255.3 392.3,257.9 
	389.4,258.3 391.5,260.3 "/>
</svg>
